<?xml version="1.0" encoding="UTF-8" standalone="no"?>
<!-- Created with Inkscape (http://www.inkscape.org/) -->

<svg
   width="297mm"
   height="210mm"
   viewBox="0 0 297 210"
   version="1.1"
   id="svg193"
   inkscape:version="1.2.2 (b0a8486541, 2022-12-01)"
   sodipodi:docname="3-7_on_torus.svg"
   inkscape:export-filename="3-7_on_torus.pdf"
   inkscape:export-xdpi="96"
   inkscape:export-ydpi="96"
   xmlns:inkscape="http://www.inkscape.org/namespaces/inkscape"
   xmlns:sodipodi="http://sodipodi.sourceforge.net/DTD/sodipodi-0.dtd"
   xmlns="http://www.w3.org/2000/svg"
   xmlns:svg="http://www.w3.org/2000/svg">
  <sodipodi:namedview
     id="namedview195"
     pagecolor="#ffffff"
     bordercolor="#000000"
     borderopacity="0.25"
     inkscape:showpageshadow="2"
     inkscape:pageopacity="0.0"
     inkscape:pagecheckerboard="true"
     inkscape:deskcolor="#d1d1d1"
     inkscape:document-units="mm"
     showgrid="false"
     inkscape:zoom="0.74400062"
     inkscape:cx="276.88149"
     inkscape:cy="362.90292"
     inkscape:window-width="1920"
     inkscape:window-height="1007"
     inkscape:window-x="0"
     inkscape:window-y="0"
     inkscape:window-maximized="1"
     inkscape:current-layer="layer1" />
  <defs
     id="defs190" />
  <g
     inkscape:label="Layer 1"
     inkscape:groupmode="layer"
     id="layer1">
    <g
       id="g2654"
       inkscape:label="surface knot 1"
       transform="translate(74.292895,51.762832)">
      <path
         id="path2600"
         style="display:none;fill:none;stroke:#008080;stroke-width:2.1;stroke-linecap:butt;stroke-linejoin:miter;stroke-dasharray:none;stroke-opacity:1"
         d="m 58.146683,41.366684 c -11.248958,-0.09568 -22.015378,4.376869 -22.134163,9.414567 -0.214075,9.078941 13.717707,18.154269 23.619222,19.593084 9.901513,1.438815 19.832423,-1.209682 22.357902,0.670814 1.262738,0.940248 -1.437782,7.902351 -2.047594,12.709175 -0.679239,5.354086 3.428555,7.397899 5.344426,7.633077 M 82.021131,64.567554 C 69.057453,63.101486 60.266763,79.580756 75.188711,79.253748 108.62309,78.521049 126.39435,66.618886 126.39866,52.656464 126.40136,43.928421 105.15791,24.904778 81.569211,24.497714 59.721199,24.120689 25.024702,36.568457 24.677084,50.889648 24.171687,71.710981 57.566774,85.795998 77.288168,85.509635 111.04954,85.019406 137.20799,67.990102 137.33952,55.155962 137.59882,29.854176 90.43609,14.38686 90.43609,14.38686"
         sodipodi:nodetypes="cssssccssssssc"
         inkscape:label="front" />
      <g
         id="g2351"
         inkscape:label="torus1"
         transform="matrix(0.75740324,0,0,0.75740324,-36.052571,-25.384688)"
         style="display:inline;stroke:#000080">
        <ellipse
           style="fill:#b3b3b3;stroke:#000080;stroke-width:1;stroke-linejoin:round;stroke-dasharray:none"
           id="ellipse2345"
           cx="149.99866"
           cy="102.97975"
           rx="83.590645"
           ry="51.661861"
           inkscape:label="body" />
        <path
           style="display:inline;fill:none;stroke:#000080;stroke-width:0.390481;stroke-linejoin:round;stroke-dasharray:none"
           d="m 102.76937,100.08594 c 11.11616,12.5085 31.55357,18.38579 47.22932,18.38579 15.67575,0 36.01501,-5.72244 47.22932,-18.38579"
           id="path2347"
           inkscape:label="lips" />
        <path
           id="path2349"
           style="fill:#ffffff;stroke:#000080;stroke-width:1;stroke-linejoin:miter;stroke-dasharray:none"
           d="m 149.99303,83.130087 c -15.67574,0 -33.67576,5.917457 -44.79194,19.043263 0.76414,0.76619 1.31396,1.24404 2.14061,1.95645 1.65331,1.42482 3.42475,2.74245 5.28682,3.95446 3.72416,2.424 7.81084,4.42547 12.04,6.01674 8.45835,3.18256 17.48664,4.72439 25.32451,4.72439 7.83788,0 16.84163,-1.5012 25.2877,-4.66345 4.22304,-1.58112 8.30665,-3.57752 12.0354,-6.00913 1.86437,-1.21582 3.64003,-2.54044 5.30006,-3.97637 0.83,-0.71795 1.41147,-1.22916 2.18028,-2.00309 -11.2143,-13.288287 -29.1277,-19.043263 -44.80344,-19.043263 z"
           sodipodi:nodetypes="scssssssscs"
           inkscape:label="hole" />
      </g>
      <path
         id="path2593"
         style="opacity:0.55;fill:none;stroke:#000000;stroke-width:0.5;stroke-linecap:butt;stroke-linejoin:miter;stroke-dasharray:1.5, 1;stroke-dashoffset:0;stroke-opacity:1"
         d="M 90.520752,14.373765 C 77.801805,13.578568 69.671633,38.225849 58.096758,41.290938 M 85.938893,91.318105 C 90.644352,82.05984 89.104668,68.97966 82.055371,64.620769"
         inkscape:label="back" />
      <path
         style="color:#000000;fill:#000000;-inkscape-stroke:none"
         d="M 90.513672,14.148438 90.357422,14.625 c 0,0 11.770258,3.860553 23.499998,10.873047 5.86487,3.506247 11.71526,7.799005 16.07422,12.777344 4.35896,4.978338 7.22223,10.631383 7.1582,16.878906 -0.0617,6.018419 -6.07769,13.143285 -16.11718,18.93164 -10.03949,5.788356 -24.063095,10.24782 -40.001957,11.054688 -0.01882,0.174103 -0.0059,0.332031 0.02539,0.498047 16.016926,-0.81082 30.108867,-5.287647 40.226567,-11.121094 10.11769,-5.833447 16.30217,-13.015993 16.36718,-19.359375 0.0656,-6.403354 -2.87013,-12.173039 -7.28125,-17.210937 C 125.89748,32.909367 120.00667,28.591657 114.11328,25.068359 102.3265,18.021765 90.513672,14.148437 90.513672,14.148438 Z m -8.939453,10.099609 c -10.973735,-0.189371 -25.128944,2.833826 -36.611328,7.703125 -5.741192,2.434649 -10.813552,5.330343 -14.486329,8.53125 -3.672776,3.200907 -5.959496,6.720116 -6.048828,10.40039 -0.255972,10.545563 8.053368,19.337556 18.845703,25.449219 10.792336,6.111663 24.095345,9.57181 34.017579,9.427735 0.50176,-0.0073 1.027228,-0.04427 1.525615,-0.05878 -0.03929,-0.16263 -0.03215,-0.285923 -0.01056,-0.450413 -0.495936,0.01444 -1.021556,0.0019 -1.520923,0.0092 -9.799133,0.14228 -23.054478,-3.29676 -33.763664,-9.361336 -10.709186,-6.064575 -18.843173,-14.726203 -18.59375,-25.001953 0.08448,-3.480314 2.263626,-6.888013 5.876953,-10.037109 3.613328,-3.149096 8.646142,-6.026957 14.353516,-8.447266 11.414749,-4.840617 25.531995,-7.851716 36.40625,-7.664062 11.728456,0.202395 22.896167,5.03875 31.121097,10.912109 4.11246,2.93668 7.48896,6.131624 9.83008,9.125 2.34111,2.993376 3.63352,5.790532 3.63281,7.871094 -0.002,6.87516 -4.36811,13.257219 -12.93946,18.041016 -8.57134,4.783796 -21.336888,7.940919 -38.025386,8.30664 -3.550614,0.07781 -5.681281,-0.810573 -6.728516,-2.111328 -1.047235,-1.300755 -1.009487,-3.178113 -0.217368,-5.000462 l -0.576228,-0.007 c -0.841372,1.935662 -0.781252,3.851041 0.402971,5.321947 1.184223,1.470907 3.490719,2.376605 7.128906,2.296875 16.745847,-0.366977 29.583871,-3.528085 38.257811,-8.36914 8.67394,-4.841056 13.19508,-11.391268 13.19727,-18.478516 7.8e-4,-2.283455 -1.3599,-5.1367 -3.73828,-8.177734 -2.37839,-3.041034 -5.78692,-6.263496 -9.9336,-9.22461 C 104.6832,29.33168 93.434438,24.452716 81.574219,24.248047 Z m -23.425782,16.86914 c -5.658281,-0.04813 -11.18833,1.048456 -15.339843,2.800782 -2.075757,0.876163 -3.808343,1.915168 -5.041016,3.070312 -1.232673,1.155144 -1.974086,2.439583 -2.005859,3.78711 -0.110097,4.669198 3.387123,9.255545 8.115234,12.865234 4.728111,3.609689 10.710487,6.252705 15.71875,6.980469 4.984125,0.724256 9.959945,0.419088 13.996094,0.171875 2.018075,-0.123607 3.801956,-0.231501 5.224609,-0.19336 1.422654,0.03814 2.477566,0.240023 3.023438,0.646485 0.102056,0.07599 0.200134,0.289531 0.224609,0.667968 0.02447,0.378438 -0.01874,0.893395 -0.115234,1.496094 -0.192999,1.2054 -0.660224,2.885231 -1.076006,4.538322 l 0.554521,0.0046 c 0.415531,-1.65209 0.816399,-3.218601 1.015625,-4.462891 0.09961,-0.622144 0.149813,-1.163358 0.121094,-1.607422 -0.02872,-0.444063 -0.132313,-0.820543 -0.425781,-1.039062 -0.716866,-0.533786 -1.849491,-0.705022 -3.308594,-0.744141 -1.459102,-0.03912 -3.251508,0.07171 -5.269531,0.195313 -4.036046,0.247207 -8.9752,0.546588 -13.892578,-0.167969 -4.893242,-0.71105 -10.828651,-3.325405 -15.488282,-6.882812 -4.65963,-3.557408 -8.021947,-8.047298 -7.917968,-12.457032 0.02762,-1.17132 0.676689,-2.336274 1.847656,-3.433593 1.170967,-1.097319 2.857719,-2.114885 4.894531,-2.97461 4.073624,-1.719449 9.54996,-2.809271 15.140625,-2.761719 z M 82.048828,64.318359 C 76.49464,63.690233 71.51921,66.508282 68.946261,69.729438 l 0.630178,-0.02533 c 2.465426,-3.086544 7.047264,-5.494825 12.415748,-4.887701 z m -1.65625,15.75586 c -0.295017,1.260066 -0.554711,2.509359 -0.699219,3.648437 -0.348038,2.743403 0.541229,4.685861 1.769532,5.94336 1.228302,1.257498 2.769554,1.843123 3.792968,1.96875 l 0.06055,-0.496094 c -0.892454,-0.109551 -2.361344,-0.660544 -3.496094,-1.822266 -1.134749,-1.161722 -1.962059,-2.920572 -1.630859,-5.53125 0.140856,-1.11029 0.446471,-2.464395 0.739549,-3.716178 z"
         id="path2525"
         sodipodi:nodetypes="ccssssccsssscsssssscccssssssscsssccssscssscssssssssssccssssssssssccccccccssccsscc" />
      <g
         id="g2629"
         inkscape:label="torus1"
         transform="matrix(0.75740324,0,0,0.75740324,-36.052571,-25.384688)"
         style="display:inline;fill:none;stroke:#000080">
        <ellipse
           style="fill:none;stroke:#000080;stroke-width:1;stroke-linejoin:round;stroke-dasharray:none"
           id="ellipse2623"
           cx="149.99866"
           cy="102.97975"
           rx="83.590645"
           ry="51.661861"
           inkscape:label="body" />
        <path
           style="display:inline;fill:none;stroke:#000080;stroke-width:0.390481;stroke-linejoin:round;stroke-dasharray:none"
           d="m 102.76937,100.08594 c 11.11616,12.5085 31.55357,18.38579 47.22932,18.38579 15.67575,0 36.01501,-5.72244 47.22932,-18.38579"
           id="path2625"
           inkscape:label="lips" />
        <path
           id="path2627"
           style="fill:none;stroke:#000080;stroke-width:1;stroke-linejoin:miter;stroke-dasharray:none"
           d="m 149.99303,83.130087 c -15.67574,0 -33.67576,5.917457 -44.79194,19.043263 0.76414,0.76619 1.31396,1.24404 2.14061,1.95645 1.65331,1.42482 3.42475,2.74245 5.28682,3.95446 3.72416,2.424 7.81084,4.42547 12.04,6.01674 8.45835,3.18256 17.48664,4.72439 25.32451,4.72439 7.83788,0 16.84163,-1.5012 25.2877,-4.66345 4.22304,-1.58112 8.30665,-3.57752 12.0354,-6.00913 1.86437,-1.21582 3.64003,-2.54044 5.30006,-3.97637 0.83,-0.71795 1.41147,-1.22916 2.18028,-2.00309 -11.2143,-13.288287 -29.1277,-19.043263 -44.80344,-19.043263 z"
           sodipodi:nodetypes="scssssssscs"
           inkscape:label="hole" />
      </g>
    </g>
  </g>
</svg>
