<?xml version="1.0" encoding="UTF-8" standalone="no"?>
<!-- Created with Inkscape (http://www.inkscape.org/) -->

<svg
   width="297mm"
   height="210mm"
   viewBox="0 0 297 210"
   version="1.1"
   id="svg5"
   inkscape:version="1.2.2 (b0a8486541, 2022-12-01)"
   sodipodi:docname="4-106_vknot.svg"
   inkscape:export-filename="4-106_vknot.pdf"
   inkscape:export-xdpi="96"
   inkscape:export-ydpi="96"
   xml:space="preserve"
   xmlns:inkscape="http://www.inkscape.org/namespaces/inkscape"
   xmlns:sodipodi="http://sodipodi.sourceforge.net/DTD/sodipodi-0.dtd"
   xmlns="http://www.w3.org/2000/svg"
   xmlns:svg="http://www.w3.org/2000/svg"><sodipodi:namedview
     id="namedview7"
     pagecolor="#ffffff"
     bordercolor="#000000"
     borderopacity="0.25"
     inkscape:showpageshadow="2"
     inkscape:pageopacity="0.0"
     inkscape:pagecheckerboard="true"
     inkscape:deskcolor="#d1d1d1"
     inkscape:document-units="mm"
     showgrid="false"
     showguides="true"
     inkscape:zoom="1.4142136"
     inkscape:cx="368.75619"
     inkscape:cy="394.91914"
     inkscape:window-width="1920"
     inkscape:window-height="1006"
     inkscape:window-x="0"
     inkscape:window-y="0"
     inkscape:window-maximized="1"
     inkscape:current-layer="layer1"><sodipodi:guide
       position="167.71794,22.322213"
       orientation="1,0"
       id="guide1786"
       inkscape:locked="false" /><sodipodi:guide
       position="147.64985,23.70163"
       orientation="0,-1"
       id="guide2369"
       inkscape:locked="false" /><sodipodi:guide
       position="147.64985,188.89952"
       orientation="0,-1"
       id="guide2385"
       inkscape:locked="false" /><sodipodi:guide
       position="230.2488,106.30058"
       orientation="1,0"
       id="guide2389"
       inkscape:locked="false" /><sodipodi:guide
       position="65.050895,106.30058"
       orientation="1,0"
       id="guide2397"
       inkscape:locked="false" /><sodipodi:guide
       position="63.710238,122.94165"
       orientation="0,-1"
       id="guide378"
       inkscape:locked="false" /><sodipodi:guide
       position="63.830261,78.161899"
       orientation="0,-1"
       id="guide380"
       inkscape:locked="false" /><sodipodi:guide
       position="116.01979,23.336458"
       orientation="1,0"
       id="guide589"
       inkscape:locked="false" /></sodipodi:namedview><defs
     id="defs2"><inkscape:path-effect
       effect="knot"
       id="path-effect428"
       is_visible="true"
       lpeversion="1"
       switcher_size="15"
       interruption_width="4.4"
       prop_to_stroke_width="true"
       add_stroke_width="inkscape_1.0_and_up"
       both="false"
       inverse_width="false"
       add_other_stroke_width="inkscape_1.0_and_up"
       crossing_points_vector="187.94447 | 86.839668 | 0 | 1 | 0 | 3 | 0.8218556 | 4.3470978 | 1 | 85.474015 | 128.68773 | 1 | 2 | 0 | 0 | 1.4722218 | 0.16880957 | -1 | 93.354974 | 99.790979 | 1 | 2 | 1 | 1 | 2.8504827 | 0.65494259 | -1 | 143.6291 | 89.420887 | 1 | 3 | 2 | 0 | 3.6863574 | 1.229371 | -1" /><inkscape:path-effect
       effect="knot"
       id="path-effect1809"
       is_visible="true"
       lpeversion="1"
       switcher_size="15"
       interruption_width="10"
       prop_to_stroke_width="true"
       add_stroke_width="inkscape_1.0_and_up"
       both="false"
       inverse_width="false"
       add_other_stroke_width="inkscape_1.0_and_up"
       crossing_points_vector="" /><inkscape:path-effect
       effect="knot"
       id="path-effect1753"
       is_visible="true"
       lpeversion="1"
       switcher_size="15"
       interruption_width="3"
       prop_to_stroke_width="true"
       add_stroke_width="inkscape_1.0_and_up"
       both="false"
       inverse_width="false"
       add_other_stroke_width="inkscape_1.0_and_up"
       crossing_points_vector="187.94447 | 86.839668 | 0 | 1 | 0 | 3 | 0.8218556 | 4.3470978 | -1 | 85.474015 | 128.68773 | 1 | 2 | 0 | 0 | 1.4722218 | 0.16880957 | -1 | 93.354974 | 99.790979 | 1 | 2 | 1 | 1 | 2.8504827 | 0.65494259 | -1 | 143.6291 | 89.420887 | 1 | 3 | 2 | 0 | 3.6863574 | 1.229371 | -1" /><inkscape:path-effect
       effect="knot"
       id="path-effect1121"
       is_visible="true"
       lpeversion="1"
       switcher_size="15"
       interruption_width="3"
       prop_to_stroke_width="true"
       add_stroke_width="inkscape_1.0_and_up"
       both="false"
       inverse_width="false"
       add_other_stroke_width="inkscape_1.0_and_up"
       crossing_points_vector="170.14902 | 90.142526 | 0 | 1 | 1 | 0 | 0.67450792 | 0.55251845 | -1 | 125.23636 | 117.3821 | 0 | 2 | 0 | 0 | 0.32610876 | 0.55347348 | 1" /><inkscape:path-effect
       effect="knot"
       id="path-effect1103"
       is_visible="true"
       lpeversion="1"
       switcher_size="15"
       interruption_width="3"
       prop_to_stroke_width="true"
       add_stroke_width="inkscape_1.0_and_up"
       both="false"
       inverse_width="false"
       add_other_stroke_width="inkscape_1.0_and_up"
       crossing_points_vector="170.14902 | 90.142526 | 0 | 1 | 1 | 0 | 0.67450792 | 0.55251845 | -1 | 125.23636 | 117.3821 | 0 | 2 | 0 | 0 | 0.32610876 | 0.55347348 | 1" /><inkscape:path-effect
       effect="knot"
       id="path-effect1295"
       is_visible="true"
       lpeversion="1"
       switcher_size="15"
       interruption_width="3"
       prop_to_stroke_width="true"
       add_stroke_width="inkscape_1.0_and_up"
       both="false"
       inverse_width="false"
       add_other_stroke_width="inkscape_1.0_and_up"
       crossing_points_vector="163.67 | 75.561818 | 1 | 3 | 1 | 0 | 0.71402965 | 0.62659553 | -1 | 131.21559 | 132.04 | 1 | 4 | 0 | 0 | 0.2845872 | 0.37026825 | 1" /><inkscape:path-effect
       effect="knot"
       id="path-effect1089"
       is_visible="true"
       lpeversion="1"
       switcher_size="15"
       interruption_width="3"
       prop_to_stroke_width="true"
       add_stroke_width="inkscape_1.0_and_up"
       both="false"
       inverse_width="false"
       add_other_stroke_width="inkscape_1.0_and_up"
       crossing_points_vector="163.67 | 75.561818 | 1 | 3 | 1 | 0 | 0.71402965 | 0.62659553 | -1 | 131.21559 | 132.04 | 1 | 4 | 0 | 0 | 0.2845872 | 0.37026825 | 1" /><inkscape:path-effect
       effect="knot"
       id="path-effect36038"
       is_visible="true"
       lpeversion="1"
       switcher_size="15"
       interruption_width="4.4"
       prop_to_stroke_width="true"
       add_stroke_width="inkscape_1.0_and_up"
       both="false"
       inverse_width="false"
       add_other_stroke_width="inkscape_1.0_and_up"
       crossing_points_vector="164.17285 | 162.2786 | 0 | 1 | 0 | 1 | 0.63797665 | 2.5817549 | -1 | 94.321989 | 126.09628 | 1 | 2 | 0 | 0 | 0.69120593 | 0.23943975 | -1 | 169.14754 | 83.323364 | 4 | 5 | 0 | 1 | 1.2086951 | 0.76344361 | 1 | 161.78506 | 110.28888 | 4 | 5 | 1 | 2 | 2.2658824 | 1.2655497 | 1 | 189.23641 | 80.054602 | 5 | 6 | 0 | 1 | 0.49998066 | 0.47789049 | -1 | 186.751 | 66.863669 | 6 | 7 | 0 | 0 | 0.36848756 | 1.1406449 | -1" /><inkscape:path-effect
       effect="knot"
       id="path-effect35912"
       is_visible="true"
       lpeversion="1"
       switcher_size="15"
       interruption_width="4.4"
       prop_to_stroke_width="true"
       add_stroke_width="inkscape_1.0_and_up"
       both="false"
       inverse_width="false"
       add_other_stroke_width="inkscape_1.0_and_up"
       crossing_points_vector="164.17285 | 162.2786 | 0 | 1 | 0 | 1 | 0.63797665 | 2.5817549 | -1 | 94.321989 | 126.09628 | 1 | 2 | 0 | 0 | 0.69120593 | 0.23943975 | -1 | 169.14754 | 83.323364 | 4 | 5 | 0 | 1 | 1.2086951 | 0.76344361 | 1 | 161.78506 | 110.28888 | 4 | 5 | 1 | 2 | 2.2658824 | 1.2655497 | 1 | 189.23641 | 80.054602 | 5 | 6 | 0 | 1 | 0.49998066 | 0.47789049 | -1 | 186.751 | 66.863669 | 6 | 7 | 0 | 0 | 0.36848756 | 1.1406449 | -1" /><inkscape:path-effect
       effect="knot"
       id="path-effect6617"
       is_visible="true"
       lpeversion="1"
       switcher_size="15"
       interruption_width="4.7"
       prop_to_stroke_width="true"
       add_stroke_width="inkscape_1.0_and_up"
       both="false"
       inverse_width="false"
       add_other_stroke_width="inkscape_1.0_and_up"
       crossing_points_vector="94.231375 | 107.65896 | 0 | 1 | 0 | 2 | 1.3788578 | 2.9335876 | -1 | 102.93641 | 85.611826 | 0 | 1 | 1 | 1 | 2.3965971 | 2.2509201 | -1 | 121.8605 | 82.315223 | 1 | 3 | 0 | 0 | 1.7652894 | 0.89585662 | -1 | 181.75981 | 74.276606 | 4 | 7 | 0 | 0 | 1.2016067 | 0.62880773 | 1 | 206.24726 | 136.71028 | 6 | 7 | 0 | 2 | 0.69456803 | 1.7684003 | -1 | 190.65829 | 115.43676 | 6 | 7 | 1 | 1 | 1.3996311 | 1.3504034 | -1" /><inkscape:path-effect
       effect="knot"
       id="path-effect6296"
       is_visible="true"
       lpeversion="1"
       switcher_size="15"
       interruption_width="3.8"
       prop_to_stroke_width="true"
       add_stroke_width="inkscape_1.0_and_up"
       both="false"
       inverse_width="false"
       add_other_stroke_width="inkscape_1.0_and_up"
       crossing_points_vector="94.231375 | 107.65896 | 0 | 1 | 0 | 2 | 1.3788578 | 2.9335876 | -1 | 102.93641 | 85.611826 | 0 | 1 | 1 | 1 | 2.3965971 | 2.2509201 | -1 | 121.8605 | 82.315223 | 1 | 3 | 0 | 0 | 1.7652894 | 0.89585662 | -1 | 181.75981 | 74.276606 | 4 | 7 | 0 | 0 | 1.2016067 | 0.62880773 | 1 | 206.24726 | 136.71028 | 6 | 7 | 0 | 2 | 0.69456803 | 1.7684003 | -1 | 190.65829 | 115.43676 | 6 | 7 | 1 | 1 | 1.3996311 | 1.3504034 | -1" /><inkscape:path-effect
       effect="knot"
       id="path-effect6164"
       is_visible="true"
       lpeversion="1"
       switcher_size="15"
       interruption_width="4.7"
       prop_to_stroke_width="true"
       add_stroke_width="inkscape_1.0_and_up"
       both="false"
       inverse_width="false"
       add_other_stroke_width="inkscape_1.0_and_up"
       crossing_points_vector="94.231375 | 107.65896 | 0 | 1 | 0 | 2 | 1.3788578 | 2.9335876 | -1 | 102.93641 | 85.611826 | 0 | 1 | 1 | 1 | 2.3965971 | 2.2509201 | -1 | 121.8605 | 82.315223 | 1 | 3 | 0 | 0 | 1.7652894 | 0.89585662 | -1 | 181.75981 | 74.276606 | 4 | 7 | 0 | 0 | 1.2016067 | 0.62880773 | 1 | 206.24726 | 136.71028 | 6 | 7 | 0 | 2 | 0.69456803 | 1.7684003 | -1 | 190.65829 | 115.43676 | 6 | 7 | 1 | 1 | 1.3996311 | 1.3504034 | -1" /><inkscape:path-effect
       effect="knot"
       id="path-effect1347"
       is_visible="true"
       lpeversion="1"
       switcher_size="15"
       interruption_width="3"
       prop_to_stroke_width="true"
       add_stroke_width="inkscape_1.0_and_up"
       both="false"
       inverse_width="false"
       add_other_stroke_width="inkscape_1.0_and_up"
       crossing_points_vector="94.776389 | 107.44239 | 0 | 1 | 0 | 2 | 1.4977336 | 2.9189938 | -1 | 103.82561 | 86.17886 | 0 | 1 | 1 | 1 | 2.4134011 | 2.3635094 | -1 | 120.7306 | 77.936389 | 1 | 3 | 0 | 0 | 1.5721636 | 0.83324548 | -1 | 181.75981 | 74.276606 | 4 | 7 | 0 | 0 | 1.2016067 | 0.62880773 | 1 | 206.25909 | 136.72187 | 6 | 7 | 0 | 2 | 0.68342076 | 1.7686344 | -1 | 190.65829 | 115.43676 | 6 | 7 | 1 | 1 | 1.3996311 | 1.3504034 | -1" /><inkscape:path-effect
       effect="knot"
       id="path-effect1335"
       is_visible="true"
       lpeversion="1"
       switcher_size="15"
       interruption_width="3"
       prop_to_stroke_width="true"
       add_stroke_width="inkscape_1.0_and_up"
       both="false"
       inverse_width="false"
       add_other_stroke_width="inkscape_1.0_and_up"
       crossing_points_vector="" /><marker
       style="overflow:visible"
       id="Arrow2"
       refX="0"
       refY="0"
       orient="auto-start-reverse"
       inkscape:stockid="Arrow2"
       markerWidth="10.7"
       markerHeight="7.7818184"
       viewBox="0 0 7.7 5.6"
       inkscape:isstock="true"
       inkscape:collect="always"
       preserveAspectRatio="xMidYMid"
       markerUnits="userSpaceOnUse"><path
         transform="scale(0.7)"
         d="M -2,-4 9,0 -2,4 c 2,-2.33 2,-5.66 0,-8 z"
         style="fill:context-stroke;fill-rule:evenodd;stroke:none"
         id="arrow2L" /></marker></defs><g
     inkscape:groupmode="layer"
     id="layer2"
     inkscape:label="Knot"><path
       id="path1750"
       style="display:none;fill:none;stroke:#d45500;stroke-width:6;stroke-linecap:butt;stroke-linejoin:miter;stroke-dasharray:none;stroke-opacity:1"
       inkscape:label="knot thick"
       d="m 167.68469,21.293609 c 5.04864,25.001103 15.2169,55.271214 25.88944,78.610022 6.48258,13.823699 11.0136,23.760489 25.93959,29.515119 3.39336,1.31222 6.96628,2.15191 10.58423,2.55768 m -113.90569,54.18923 c -1.87116,-16.71323 -9.07113,-32.70271 -20.552331,-45.1245 -7.228379,-8.19567 -16.159784,-17.1831 -15.269582,-28.98725 1.126009,-7.69453 9.597157,-10.83887 15.941291,-13.504206 22.503542,-7.806774 45.804192,-9.125483 69.452012,-10.832691 21.05698,-1.520167 42.99561,-0.75693 64.2777,-0.57268 M 64.874327,131.97643 C 116.19226,132.17564 102.10498,87.74846 64.673108,87.150788 M 116.59474,21.605685 c -0.004,21.408213 9.24656,47.610367 20.43603,60.253138 9.95219,11.244795 18.58525,20.856677 22.44326,35.639137 5.40585,20.71318 7.33824,40.96521 7.97844,63.55011 0.0386,1.97125 0.067,3.94287 0.0577,5.9145"
       sodipodi:nodetypes="ccccccccsccccsscc"
       sodipodi:insensitive="true" /><path
       id="path34812"
       style="display:none;fill:none;stroke:#962525;stroke-width:1.2;stroke-linecap:butt;stroke-linejoin:miter;stroke-dasharray:none;stroke-opacity:1"
       inkscape:label="knot backup"
       d="m 167.68469,21.293609 c 5.04864,25.001103 15.2169,55.271214 25.88944,78.610022 6.48258,13.823699 11.0136,23.760489 25.93959,29.515119 3.39336,1.31222 6.96628,2.15191 10.58423,2.55768 m -113.90569,54.18923 c -1.87116,-16.71323 -9.07113,-32.70271 -20.552331,-45.1245 -7.228379,-8.19567 -16.159784,-17.1831 -15.269582,-28.98725 1.126009,-7.69453 9.597157,-10.83887 15.941291,-13.504206 22.503542,-7.806774 45.804192,-9.125483 69.452012,-10.832691 21.05698,-1.520167 42.99561,-0.75693 64.2777,-0.57268 M 64.874327,131.97643 C 116.19226,132.17564 102.10498,87.74846 64.673108,87.150788 M 116.59474,21.605685 c -0.004,21.408213 9.24656,47.610367 20.43603,60.253138 9.95219,11.244795 18.58525,20.856677 22.44326,35.639137 5.40585,20.71318 7.33824,40.96521 7.97844,63.55011 0.0386,1.97125 0.067,3.94287 0.0577,5.9145"
       sodipodi:nodetypes="ccccccccsccccsscc"
       sodipodi:insensitive="true" /><path
       style="color:#000000;display:inline;fill:#000000;-inkscape-stroke:none"
       d="m 168.27344,21.175781 -1.17774,0.236328 c 3.98618,19.739715 10.97255,42.271125 19.05846,62.570375 l 1.25855,-0.0589 C 179.35194,63.687426 172.24017,40.819231 168.27344,21.175781 Z m -52.2793,0.429688 c -0.004,21.581124 9.23453,47.822438 20.58789,60.65039 9.95385,11.246667 18.49172,20.762211 22.31055,35.394531 5.39053,20.6545 7.32142,40.85321 7.96094,63.41406 0.0385,1.96787 0.0659,3.93186 0.0566,5.89453 l 1.19921,0.006 c 0.009,-1.97927 -0.018,-3.95441 -0.0566,-5.92773 v -0.004 -0.002 C 167.41185,158.42234 165.47584,138.11752 160.05469,117.3457 156.1575,102.41313 147.43098,92.703838 137.48047,81.460937 126.45492,69.003373 117.19134,42.840728 117.19531,21.605469 Z m 81.82617,64.585937 c -10.78494,-0.02385 -21.54901,0.166055 -32.09961,0.927735 -6.33236,0.457152 -13.11696,0.932722 -19.39925,1.466961 l 1.00232,1.090619 c 6.26878,-0.533091 12.14724,-0.902926 18.48287,-1.360315 21.01272,-1.516972 42.93763,-0.756608 64.23047,-0.572265 l 0.01,-1.199219 C 219.41147,86.452842 208.6055,86.215253 197.82055,86.191406 Z M 64.683594,86.550781 64.664062,87.75 c 11.459963,0.18298 20.533639,4.391758 26.276906,10.245022 l 1.073418,-0.607063 C 86.030108,91.289067 76.436364,86.738437 64.683594,86.550781 Z m 75.350256,2.618126 c -14.97785,1.485994 -29.435,3.788959 -43.918616,8.813515 l -0.01758,0.0059 -0.01758,0.0078 c -3.161821,1.328363 -6.902303,2.788648 -10.033203,4.923828 -3.1309,2.13518 -5.677009,4.9979 -6.269531,9.04688 l -0.0039,0.0215 -0.002,0.0215 c -0.410001,5.43665 1.034014,9.95032 3.584455,14.36164 l 1.085936,-0.45393 c -2.417288,-4.2974 -3.854194,-8.65586 -3.473125,-13.79248 0.537912,-3.63666 2.786243,-6.18903 5.753906,-8.21289 2.96645,-2.02303 6.624719,-3.46598 9.802735,-4.800784 14.348093,-4.975276 29.552873,-7.385501 44.478453,-8.866309 z m 49.71505,0.50177 -1.2782,0.02464 c 1.49937,3.603916 3.02422,7.101643 4.5586,10.457023 v 0.004 l 0.002,0.002 c 3.24064,6.91046 6.0053,12.89124 9.87109,17.89649 3.8655,5.00485 8.84339,9.0122 16.39453,11.92383 3.4452,1.33226 7.0688,2.18263 10.73438,2.59375 l 0.13281,-1.19141 c -3.57031,-0.40043 -7.09207,-1.22931 -10.43359,-2.52149 -7.37385,-2.84294 -12.12705,-6.68133 -15.87891,-11.53906 -3.75078,-4.85633 -6.4917,-10.75535 -9.73242,-17.666008 l -0.002,-0.0059 c -1.52733,-3.340144 -2.8747,-6.387757 -4.36829,-9.977762 z m -94.237992,12.102063 -1.096655,0.49396 c 4.108409,6.39042 4.532303,13.63839 0.103321,19.30361 -4.428978,5.66522 -13.84726,9.86795 -29.640625,9.80664 l -0.0059,1.19922 c 16.007687,0.0621 25.833859,-4.18157 30.591797,-10.26758 4.757934,-6.086 4.362304,-13.8252 0.04802,-20.53585 z m -7.788102,29.03581 -1.166165,0.45122 c 2.691471,3.61882 5.80278,6.96898 8.632812,10.17773 l 0.0059,0.006 0.0039,0.006 c 11.391857,12.32513 18.539547,28.19707 20.396477,44.7832 l 1.19336,-0.13281 c -1.88487,-16.83575 -9.13415,-32.93809 -20.699212,-45.45508 l -0.0098,-0.01 c -2.841902,-3.22185 -5.676648,-6.27043 -8.356038,-9.82263 z"
       id="path425"
       inkscape:label="knot"
       sodipodi:nodetypes="ccccccssccccccssccssccsccsscccccccccsccccccsccccccccsccccsccccccsccsccccccccccccc" /></g><g
     inkscape:label="Gluing"
     inkscape:groupmode="layer"
     id="layer1"
     style="stroke:#0000ff;stroke-opacity:1"><path
       sodipodi:type="star"
       style="fill:none;stroke:#0000ff;stroke-width:1.21799;stroke-linecap:butt;stroke-linejoin:miter;stroke-dasharray:none;stroke-opacity:1"
       id="path381"
       inkscape:flatsided="true"
       sodipodi:sides="4"
       sodipodi:cx="93.043243"
       sodipodi:cy="72.367767"
       sodipodi:r1="108.89398"
       sodipodi:r2="100.60492"
       sodipodi:arg1="0.78539816"
       sodipodi:arg2="1.5707963"
       inkscape:rounded="0"
       inkscape:randomized="0"
       d="m 170.04292,149.36744 -153.999349,0 -1e-6,-153.9993455 153.99935,-5e-7 z"
       transform="matrix(0,1.0727181,-1.0727181,0,225.28005,3.8902518)" /><path
       style="fill:none;stroke:#0000ff;stroke-width:0;stroke-linecap:butt;stroke-linejoin:miter;stroke-dasharray:none;marker-end:url(#Arrow2);stroke-opacity:1"
       d="m 144.58899,186.29837 h 0.61086"
       id="path2363" /><path
       style="fill:none;stroke:#0000ff;stroke-width:0;stroke-linecap:butt;stroke-linejoin:miter;stroke-dasharray:none;marker-end:url(#Arrow2);stroke-opacity:1"
       d="m 144.58903,21.100473 0.61083,-6e-6"
       id="path2405" /><g
       id="g2995"
       transform="translate(-15.69225,-12.95685)"
       style="stroke:#0000ff;stroke-opacity:1"><path
         style="fill:none;stroke:#0000ff;stroke-width:0;stroke-linecap:butt;stroke-linejoin:miter;stroke-dasharray:none;marker-end:url(#Arrow2);stroke-opacity:1"
         d="m 245.9403,116.05646 v -0.61087"
         id="path2401" /><path
         style="fill:none;stroke:#0000ff;stroke-width:0;stroke-linecap:butt;stroke-linejoin:miter;stroke-dasharray:none;marker-end:url(#Arrow2);stroke-opacity:1"
         d="m 245.9403,126.75646 v -0.61087"
         id="path2772" /></g><g
       id="g3174"
       transform="translate(-180.88941,-12.95685)"
       style="stroke:#0000ff;stroke-opacity:1"><path
         style="fill:none;stroke:#0000ff;stroke-width:0;stroke-linecap:butt;stroke-linejoin:miter;stroke-dasharray:none;marker-end:url(#Arrow2);stroke-opacity:1"
         d="m 245.9403,116.05646 v -0.61087"
         id="path3170" /><path
         style="fill:none;stroke:#0000ff;stroke-width:0;stroke-linecap:butt;stroke-linejoin:miter;stroke-dasharray:none;marker-end:url(#Arrow2);stroke-opacity:1"
         d="m 245.9403,126.75646 v -0.61087"
         id="path3172" /></g><path
       style="fill:none;stroke:#000000;stroke-width:0;stroke-linecap:butt;stroke-linejoin:miter;stroke-dasharray:none;stroke-opacity:1;marker-end:url(#Arrow2)"
       d="m 160.86687,123.23095 -0.14611,-0.59311"
       id="path587"
       inkscape:transform-center-x="-2.1700223"
       inkscape:transform-center-y="8.7926779" /><text
       xml:space="preserve"
       style="font-style:normal;font-weight:normal;font-size:10.5833px;line-height:1.25;font-family:sans-serif;fill:#000000;fill-opacity:1;stroke:none;stroke-width:0.264583"
       x="142.8373"
       y="85.412102"
       id="text2120"><tspan
         sodipodi:role="line"
         id="tspan2118"
         style="stroke-width:0.264583"
         x="142.8373"
         y="85.412102">$1$</tspan></text><text
       xml:space="preserve"
       style="font-style:normal;font-weight:normal;font-size:10.5833px;line-height:1.25;font-family:sans-serif;fill:#000000;fill-opacity:1;stroke:none;stroke-width:0.264583"
       x="84.566437"
       y="123.20989"
       id="text2124"><tspan
         sodipodi:role="line"
         id="tspan2122"
         style="stroke-width:0.264583"
         x="84.566437"
         y="123.20989">$2$</tspan></text><text
       xml:space="preserve"
       style="font-style:normal;font-weight:normal;font-size:10.5833px;line-height:1.25;font-family:sans-serif;fill:#000000;fill-opacity:1;stroke:none;stroke-width:0.264583"
       x="91.542854"
       y="95.264771"
       id="text2128"><tspan
         sodipodi:role="line"
         id="tspan2126"
         style="stroke-width:0.264583"
         x="91.542854"
         y="95.264771">$3$</tspan></text><text
       xml:space="preserve"
       style="font-style:normal;font-weight:normal;font-size:10.5833px;line-height:1.25;font-family:sans-serif;fill:#000000;fill-opacity:1;stroke:none;stroke-width:0.264583"
       x="188.17343"
       y="82.533974"
       id="text2132"><tspan
         sodipodi:role="line"
         id="tspan2130"
         style="stroke-width:0.264583"
         x="188.17343"
         y="82.533974">$4$</tspan></text></g></svg>
