<?xml version="1.0" encoding="UTF-8" standalone="no"?>
<!-- Created with Inkscape (http://www.inkscape.org/) -->

<svg
   width="297mm"
   height="210mm"
   viewBox="0 0 297 210"
   version="1.1"
   id="svg5"
   inkscape:version="1.2.2 (b0a8486541, 2022-12-01)"
   sodipodi:docname="4-105_vknot.svg"
   inkscape:export-filename="4-105_vknot.pdf"
   inkscape:export-xdpi="96"
   inkscape:export-ydpi="96"
   xml:space="preserve"
   xmlns:inkscape="http://www.inkscape.org/namespaces/inkscape"
   xmlns:sodipodi="http://sodipodi.sourceforge.net/DTD/sodipodi-0.dtd"
   xmlns="http://www.w3.org/2000/svg"
   xmlns:svg="http://www.w3.org/2000/svg"><sodipodi:namedview
     id="namedview7"
     pagecolor="#ffffff"
     bordercolor="#000000"
     borderopacity="0.25"
     inkscape:showpageshadow="2"
     inkscape:pageopacity="0.0"
     inkscape:pagecheckerboard="true"
     inkscape:deskcolor="#d1d1d1"
     inkscape:document-units="mm"
     showgrid="false"
     showguides="true"
     inkscape:zoom="1"
     inkscape:cx="490.5"
     inkscape:cy="402.5"
     inkscape:window-width="1920"
     inkscape:window-height="1080"
     inkscape:window-x="0"
     inkscape:window-y="0"
     inkscape:window-maximized="1"
     inkscape:current-layer="layer1"><sodipodi:guide
       position="147.64985,23.70163"
       orientation="0,-1"
       id="guide2369"
       inkscape:locked="false" /><sodipodi:guide
       position="147.64985,188.89952"
       orientation="0,-1"
       id="guide2385"
       inkscape:locked="false" /><sodipodi:guide
       position="230.2488,106.30058"
       orientation="1,0"
       id="guide2389"
       inkscape:locked="false" /><sodipodi:guide
       position="65.050895,106.30058"
       orientation="1,0"
       id="guide2397"
       inkscape:locked="false" /><sodipodi:guide
       position="90.171883,48.783602"
       orientation="1,0"
       id="guide379"
       inkscape:locked="false" /><sodipodi:guide
       position="90.171883,48.783602"
       orientation="0,-1"
       id="guide381"
       inkscape:locked="false" /><sodipodi:guide
       position="115.78599,151.93416"
       orientation="1,0"
       id="guide488"
       inkscape:locked="false" /><sodipodi:guide
       position="160.81397,48.7836"
       orientation="1,0"
       id="guide492"
       inkscape:locked="false" /><sodipodi:guide
       position="207.73776,48.7836"
       orientation="1,0"
       id="guide494"
       inkscape:locked="false" /><sodipodi:guide
       position="90.171885,119.46469"
       orientation="0,-1"
       id="guide496"
       inkscape:locked="false" /><sodipodi:guide
       position="90.171883,166.38848"
       orientation="0,-1"
       id="guide498"
       inkscape:locked="false" /><sodipodi:guide
       position="125.538,142.95662"
       orientation="0,-1"
       id="guide1117"
       inkscape:locked="false" /><sodipodi:guide
       position="184.30591,84.149718"
       orientation="1,0"
       id="guide1121"
       inkscape:locked="false" /><sodipodi:guide
       position="90.171885,74.393294"
       orientation="0,-1"
       id="guide1198"
       inkscape:locked="false" /><sodipodi:guide
       position="140.86608,74.393292"
       orientation="1,0"
       id="guide1046"
       inkscape:locked="false" /></sodipodi:namedview><defs
     id="defs2"><inkscape:path-effect
       effect="knot"
       id="path-effect1122"
       is_visible="true"
       lpeversion="1"
       switcher_size="15"
       interruption_width="4.3"
       prop_to_stroke_width="true"
       add_stroke_width="inkscape_1.0_and_up"
       both="false"
       inverse_width="false"
       add_other_stroke_width="inkscape_1.0_and_up"
       crossing_points_vector="115.78599 | 21.100492 | 0 | 0 | 0 | 0 | 4.7683716e-07 | 3.0000005 | 1 | 115.78599 | 21.100513 | 0 | 0 | 0 | 0 | 1.4305115e-06 | 3.0000005 | 1 | 115.78599 | 21.100492 | 0 | 0 | 0 | 0 | 4.7683716e-07 | 3.0000014 | 1 | 115.78599 | 21.100513 | 0 | 0 | 0 | 0 | 1.4305115e-06 | 3.0000014 | 1 | 115.78599 | 21.100535 | 0 | 0 | 0 | 0 | 2.3841858e-06 | 3.0000005 | 1 | 115.78599 | 21.100556 | 0 | 0 | 0 | 0 | 3.3378601e-06 | 3.0000005 | 1 | 115.78599 | 21.100535 | 0 | 0 | 0 | 0 | 2.3841858e-06 | 3.0000014 | 1 | 115.78599 | 21.100556 | 0 | 0 | 0 | 0 | 3.3378601e-06 | 3.0000014 | 1 | 115.78599 | 21.100492 | 0 | 0 | 0 | 0 | 4.7683716e-07 | 3.0000024 | 1 | 115.78599 | 21.100492 | 0 | 0 | 0 | 0 | 4.7683716e-07 | 3.0000033 | 1 | 115.78599 | 21.100513 | 0 | 0 | 0 | 0 | 1.4305115e-06 | 3.0000024 | 1 | 115.78599 | 21.100513 | 0 | 0 | 1 | 0 | 1.4305115e-06 | 3.0000033 | 1 | 115.78599 | 21.100535 | 0 | 0 | 0 | 0 | 2.3841858e-06 | 3.0000024 | 1 | 115.78599 | 21.100556 | 0 | 0 | 0 | 0 | 3.3378601e-06 | 3.0000024 | 1 | 115.78599 | 21.100535 | 0 | 0 | 2 | 0 | 2.3841858e-06 | 3.0000033 | 1 | 115.78599 | 21.100556 | 0 | 0 | 3 | 0 | 3.3378601e-06 | 3.0000033 | 1 | 115.78599 | 21.100578 | 0 | 0 | 0 | 0 | 4.2915344e-06 | 3.0000005 | 1 | 115.78599 | 21.100599 | 0 | 0 | 0 | 0 | 5.2452087e-06 | 3.0000005 | 1 | 115.78599 | 21.100578 | 0 | 0 | 0 | 0 | 4.2915344e-06 | 3.0000014 | 1 | 115.78599 | 21.100599 | 0 | 0 | 0 | 0 | 5.2452087e-06 | 3.0000014 | 1 | 115.78599 | 21.100621 | 0 | 0 | 0 | 0 | 6.1988831e-06 | 3.0000005 | 1 | 115.78599 | 21.100642 | 0 | 0 | 0 | 10 | 7.1525574e-06 | 3.0000005 | 1 | 115.78599 | 21.100621 | 0 | 0 | 0 | 0 | 6.1988831e-06 | 3.0000014 | 1 | 115.78599 | 21.100642 | 0 | 0 | 0 | 11 | 7.1525574e-06 | 3.0000014 | 1 | 115.78599 | 21.100578 | 0 | 0 | 0 | 0 | 4.2915344e-06 | 3.0000024 | 1 | 115.78599 | 21.100599 | 0 | 0 | 0 | 0 | 5.2452087e-06 | 3.0000024 | 1 | 115.78599 | 21.100578 | 0 | 0 | 4 | 0 | 4.2915344e-06 | 3.0000033 | 1 | 115.78599 | 21.100599 | 0 | 0 | 5 | 0 | 5.2452087e-06 | 3.0000033 | 1 | 115.78599 | 21.100621 | 0 | 0 | 0 | 0 | 6.1988831e-06 | 3.0000024 | 1 | 115.78599 | 21.100642 | 0 | 0 | 0 | 12 | 7.1525574e-06 | 3.0000024 | 1 | 115.78599 | 21.100621 | 0 | 0 | 6 | 0 | 6.1988831e-06 | 3.0000033 | 1 | 115.78599 | 21.100642 | 0 | 0 | 7 | 13 | 7.1525574e-06 | 3.0000033 | 1 | 102.96579 | 54.847953 | 0 | 2 | 8 | 1 | 1.5003422 | 3.5003422 | 1 | 102.97279 | 79.910684 | 0 | 2 | 9 | 0 | 2.4998402 | 2.4998401 | 1 | 140.86609 | 135.60671 | 0 | 0 | 0 | 0 | 5.0000005 | 8.0000005 | 1 | 140.86611 | 135.60671 | 0 | 0 | 0 | 0 | 5.0000014 | 8.0000005 | 1 | 140.86609 | 135.60671 | 0 | 0 | 0 | 0 | 5.0000005 | 8.0000014 | 1 | 140.86611 | 135.60671 | 0 | 0 | 0 | 0 | 5.0000014 | 8.0000014 | 1 | 140.86613 | 135.60671 | 0 | 0 | 0 | 0 | 5.0000024 | 8.0000005 | 1 | 140.86615 | 135.60671 | 0 | 0 | 0 | 0 | 5.0000033 | 8.0000005 | 1 | 140.86613 | 135.60671 | 0 | 0 | 0 | 0 | 5.0000024 | 8.0000014 | 1 | 140.86615 | 135.60671 | 0 | 0 | 0 | 0 | 5.0000033 | 8.0000014 | 1 | 140.86609 | 135.60671 | 0 | 0 | 0 | 0 | 5.0000005 | 8.0000024 | 1 | 140.86609 | 135.60671 | 0 | 0 | 14 | 0 | 5.0000005 | 8.0000033 | 1 | 140.86611 | 135.60671 | 0 | 0 | 0 | 0 | 5.0000014 | 8.0000024 | 1 | 140.86611 | 135.60671 | 0 | 0 | 15 | 0 | 5.0000014 | 8.0000033 | 1 | 140.86613 | 135.60671 | 0 | 0 | 0 | 0 | 5.0000024 | 8.0000024 | 1 | 140.86615 | 135.60671 | 0 | 0 | 0 | 0 | 5.0000033 | 8.0000024 | 1 | 140.86613 | 135.60671 | 0 | 0 | 16 | 0 | 5.0000024 | 8.0000033 | 1 | 140.86615 | 135.60671 | 0 | 0 | 17 | 0 | 5.0000033 | 8.0000033 | 1 | 140.86617 | 135.60671 | 0 | 0 | 0 | 0 | 5.0000043 | 8.0000005 | 1 | 140.86618 | 135.60671 | 0 | 0 | 0 | 0 | 5.0000052 | 8.0000005 | 1 | 140.86617 | 135.60671 | 0 | 0 | 0 | 0 | 5.0000043 | 8.0000014 | 1 | 140.86618 | 135.60671 | 0 | 0 | 0 | 0 | 5.0000052 | 8.0000014 | 1 | 140.8662 | 135.60671 | 0 | 0 | 0 | 0 | 5.0000062 | 8.0000005 | 1 | 140.86622 | 135.60671 | 0 | 0 | 0 | 24 | 5.0000072 | 8.0000005 | 1 | 140.8662 | 135.60671 | 0 | 0 | 0 | 0 | 5.0000062 | 8.0000014 | 1 | 140.86622 | 135.60671 | 0 | 0 | 0 | 25 | 5.0000072 | 8.0000014 | 1 | 140.86617 | 135.60671 | 0 | 0 | 0 | 0 | 5.0000043 | 8.0000024 | 1 | 140.86618 | 135.60671 | 0 | 0 | 0 | 0 | 5.0000052 | 8.0000024 | 1 | 140.86617 | 135.60671 | 0 | 0 | 18 | 0 | 5.0000043 | 8.0000033 | 1 | 140.86618 | 135.60671 | 0 | 0 | 19 | 0 | 5.0000052 | 8.0000033 | 1 | 140.8662 | 135.60671 | 0 | 0 | 0 | 0 | 5.0000062 | 8.0000024 | 1 | 140.86622 | 135.60671 | 0 | 0 | 0 | 26 | 5.0000072 | 8.0000024 | 1 | 140.8662 | 135.60671 | 0 | 0 | 20 | 0 | 5.0000062 | 8.0000033 | 1 | 140.86622 | 135.60671 | 0 | 0 | 21 | 27 | 5.0000072 | 8.0000033 | 1 | 171.32582 | 147.9717 | 0 | 1 | 22 | 0 | 6.4885477 | 2.5114523 | -1 | 196.60088 | 148.41155 | 0 | 1 | 23 | 1 | 7.5 | 3.5 | -1" /><inkscape:path-effect
       effect="knot"
       id="path-effect1241"
       is_visible="true"
       lpeversion="1"
       switcher_size="15"
       interruption_width="4.4"
       prop_to_stroke_width="true"
       add_stroke_width="inkscape_1.0_and_up"
       both="false"
       inverse_width="false"
       add_other_stroke_width="inkscape_1.0_and_up"
       crossing_points_vector="102.96579 | 54.847953 | 0 | 2 | 0 | 1 | 1.5003422 | 2.5003422 | 1 | 102.97279 | 79.910684 | 0 | 2 | 1 | 0 | 2.4998402 | 1.4998401 | 1 | 171.32582 | 147.9717 | 0 | 1 | 2 | 0 | 4.4885477 | 1.5114523 | -1 | 196.60088 | 148.41155 | 0 | 1 | 3 | 1 | 5.5 | 2.5 | -1" /><inkscape:path-effect
       effect="knot"
       id="path-effect1211"
       is_visible="true"
       lpeversion="1"
       switcher_size="15"
       interruption_width="3"
       prop_to_stroke_width="true"
       add_stroke_width="inkscape_1.0_and_up"
       both="false"
       inverse_width="false"
       add_other_stroke_width="inkscape_1.0_and_up"
       crossing_points_vector="102.96579 | 54.847953 | 0 | 2 | 0 | 1 | 1.5003422 | 2.5003422 | 1 | 102.97279 | 79.910684 | 0 | 2 | 1 | 0 | 2.4998402 | 1.4998401 | 1 | 171.32582 | 147.9717 | 0 | 1 | 2 | 0 | 4.4885477 | 1.5114523 | -1 | 196.60088 | 148.41155 | 0 | 1 | 3 | 1 | 5.5 | 2.5 | -1" /><inkscape:path-effect
       effect="knot"
       id="path-effect1121"
       is_visible="true"
       lpeversion="1"
       switcher_size="15"
       interruption_width="3"
       prop_to_stroke_width="true"
       add_stroke_width="inkscape_1.0_and_up"
       both="false"
       inverse_width="false"
       add_other_stroke_width="inkscape_1.0_and_up"
       crossing_points_vector="170.14902 | 90.142526 | 0 | 1 | 1 | 0 | 0.67450792 | 0.55251845 | -1 | 125.23636 | 117.3821 | 0 | 2 | 0 | 0 | 0.32610876 | 0.55347348 | 1" /><inkscape:path-effect
       effect="knot"
       id="path-effect1103"
       is_visible="true"
       lpeversion="1"
       switcher_size="15"
       interruption_width="3"
       prop_to_stroke_width="true"
       add_stroke_width="inkscape_1.0_and_up"
       both="false"
       inverse_width="false"
       add_other_stroke_width="inkscape_1.0_and_up"
       crossing_points_vector="170.14902 | 90.142526 | 0 | 1 | 1 | 0 | 0.67450792 | 0.55251845 | -1 | 125.23636 | 117.3821 | 0 | 2 | 0 | 0 | 0.32610876 | 0.55347348 | 1" /><inkscape:path-effect
       effect="knot"
       id="path-effect1295"
       is_visible="true"
       lpeversion="1"
       switcher_size="15"
       interruption_width="3"
       prop_to_stroke_width="true"
       add_stroke_width="inkscape_1.0_and_up"
       both="false"
       inverse_width="false"
       add_other_stroke_width="inkscape_1.0_and_up"
       crossing_points_vector="163.67 | 75.561818 | 1 | 3 | 1 | 0 | 0.71402965 | 0.62659553 | -1 | 131.21559 | 132.04 | 1 | 4 | 0 | 0 | 0.2845872 | 0.37026825 | 1" /><inkscape:path-effect
       effect="knot"
       id="path-effect1089"
       is_visible="true"
       lpeversion="1"
       switcher_size="15"
       interruption_width="3"
       prop_to_stroke_width="true"
       add_stroke_width="inkscape_1.0_and_up"
       both="false"
       inverse_width="false"
       add_other_stroke_width="inkscape_1.0_and_up"
       crossing_points_vector="163.67 | 75.561818 | 1 | 3 | 1 | 0 | 0.71402965 | 0.62659553 | -1 | 131.21559 | 132.04 | 1 | 4 | 0 | 0 | 0.2845872 | 0.37026825 | 1" /><inkscape:path-effect
       effect="knot"
       id="path-effect36038"
       is_visible="true"
       lpeversion="1"
       switcher_size="15"
       interruption_width="4.4"
       prop_to_stroke_width="true"
       add_stroke_width="inkscape_1.0_and_up"
       both="false"
       inverse_width="false"
       add_other_stroke_width="inkscape_1.0_and_up"
       crossing_points_vector="164.17285 | 162.2786 | 0 | 1 | 0 | 1 | 0.63797665 | 2.5817549 | -1 | 94.321989 | 126.09628 | 1 | 2 | 0 | 0 | 0.69120593 | 0.23943975 | -1 | 169.14754 | 83.323364 | 4 | 5 | 0 | 1 | 1.2086951 | 0.76344361 | 1 | 161.78506 | 110.28888 | 4 | 5 | 1 | 2 | 2.2658824 | 1.2655497 | 1 | 189.23641 | 80.054602 | 5 | 6 | 0 | 1 | 0.49998066 | 0.47789049 | -1 | 186.751 | 66.863669 | 6 | 7 | 0 | 0 | 0.36848756 | 1.1406449 | -1" /><inkscape:path-effect
       effect="knot"
       id="path-effect35912"
       is_visible="true"
       lpeversion="1"
       switcher_size="15"
       interruption_width="4.4"
       prop_to_stroke_width="true"
       add_stroke_width="inkscape_1.0_and_up"
       both="false"
       inverse_width="false"
       add_other_stroke_width="inkscape_1.0_and_up"
       crossing_points_vector="164.17285 | 162.2786 | 0 | 1 | 0 | 1 | 0.63797665 | 2.5817549 | -1 | 94.321989 | 126.09628 | 1 | 2 | 0 | 0 | 0.69120593 | 0.23943975 | -1 | 169.14754 | 83.323364 | 4 | 5 | 0 | 1 | 1.2086951 | 0.76344361 | 1 | 161.78506 | 110.28888 | 4 | 5 | 1 | 2 | 2.2658824 | 1.2655497 | 1 | 189.23641 | 80.054602 | 5 | 6 | 0 | 1 | 0.49998066 | 0.47789049 | -1 | 186.751 | 66.863669 | 6 | 7 | 0 | 0 | 0.36848756 | 1.1406449 | -1" /><inkscape:path-effect
       effect="knot"
       id="path-effect6617"
       is_visible="true"
       lpeversion="1"
       switcher_size="15"
       interruption_width="4.7"
       prop_to_stroke_width="true"
       add_stroke_width="inkscape_1.0_and_up"
       both="false"
       inverse_width="false"
       add_other_stroke_width="inkscape_1.0_and_up"
       crossing_points_vector="94.231375 | 107.65896 | 0 | 1 | 0 | 2 | 1.3788578 | 2.9335876 | -1 | 102.93641 | 85.611826 | 0 | 1 | 1 | 1 | 2.3965971 | 2.2509201 | -1 | 121.8605 | 82.315223 | 1 | 3 | 0 | 0 | 1.7652894 | 0.89585662 | -1 | 181.75981 | 74.276606 | 4 | 7 | 0 | 0 | 1.2016067 | 0.62880773 | 1 | 206.24726 | 136.71028 | 6 | 7 | 0 | 2 | 0.69456803 | 1.7684003 | -1 | 190.65829 | 115.43676 | 6 | 7 | 1 | 1 | 1.3996311 | 1.3504034 | -1" /><inkscape:path-effect
       effect="knot"
       id="path-effect6296"
       is_visible="true"
       lpeversion="1"
       switcher_size="15"
       interruption_width="3.8"
       prop_to_stroke_width="true"
       add_stroke_width="inkscape_1.0_and_up"
       both="false"
       inverse_width="false"
       add_other_stroke_width="inkscape_1.0_and_up"
       crossing_points_vector="94.231375 | 107.65896 | 0 | 1 | 0 | 2 | 1.3788578 | 2.9335876 | -1 | 102.93641 | 85.611826 | 0 | 1 | 1 | 1 | 2.3965971 | 2.2509201 | -1 | 121.8605 | 82.315223 | 1 | 3 | 0 | 0 | 1.7652894 | 0.89585662 | -1 | 181.75981 | 74.276606 | 4 | 7 | 0 | 0 | 1.2016067 | 0.62880773 | 1 | 206.24726 | 136.71028 | 6 | 7 | 0 | 2 | 0.69456803 | 1.7684003 | -1 | 190.65829 | 115.43676 | 6 | 7 | 1 | 1 | 1.3996311 | 1.3504034 | -1" /><inkscape:path-effect
       effect="knot"
       id="path-effect6164"
       is_visible="true"
       lpeversion="1"
       switcher_size="15"
       interruption_width="4.7"
       prop_to_stroke_width="true"
       add_stroke_width="inkscape_1.0_and_up"
       both="false"
       inverse_width="false"
       add_other_stroke_width="inkscape_1.0_and_up"
       crossing_points_vector="94.231375 | 107.65896 | 0 | 1 | 0 | 2 | 1.3788578 | 2.9335876 | -1 | 102.93641 | 85.611826 | 0 | 1 | 1 | 1 | 2.3965971 | 2.2509201 | -1 | 121.8605 | 82.315223 | 1 | 3 | 0 | 0 | 1.7652894 | 0.89585662 | -1 | 181.75981 | 74.276606 | 4 | 7 | 0 | 0 | 1.2016067 | 0.62880773 | 1 | 206.24726 | 136.71028 | 6 | 7 | 0 | 2 | 0.69456803 | 1.7684003 | -1 | 190.65829 | 115.43676 | 6 | 7 | 1 | 1 | 1.3996311 | 1.3504034 | -1" /><inkscape:path-effect
       effect="knot"
       id="path-effect1347"
       is_visible="true"
       lpeversion="1"
       switcher_size="15"
       interruption_width="3"
       prop_to_stroke_width="true"
       add_stroke_width="inkscape_1.0_and_up"
       both="false"
       inverse_width="false"
       add_other_stroke_width="inkscape_1.0_and_up"
       crossing_points_vector="94.776389 | 107.44239 | 0 | 1 | 0 | 2 | 1.4977336 | 2.9189938 | -1 | 103.82561 | 86.17886 | 0 | 1 | 1 | 1 | 2.4134011 | 2.3635094 | -1 | 120.7306 | 77.936389 | 1 | 3 | 0 | 0 | 1.5721636 | 0.83324548 | -1 | 181.75981 | 74.276606 | 4 | 7 | 0 | 0 | 1.2016067 | 0.62880773 | 1 | 206.25909 | 136.72187 | 6 | 7 | 0 | 2 | 0.68342076 | 1.7686344 | -1 | 190.65829 | 115.43676 | 6 | 7 | 1 | 1 | 1.3996311 | 1.3504034 | -1" /><inkscape:path-effect
       effect="knot"
       id="path-effect1335"
       is_visible="true"
       lpeversion="1"
       switcher_size="15"
       interruption_width="3"
       prop_to_stroke_width="true"
       add_stroke_width="inkscape_1.0_and_up"
       both="false"
       inverse_width="false"
       add_other_stroke_width="inkscape_1.0_and_up"
       crossing_points_vector="" /><marker
       style="overflow:visible"
       id="Arrow2"
       refX="0"
       refY="0"
       orient="auto-start-reverse"
       inkscape:stockid="Arrow2"
       markerWidth="10.7"
       markerHeight="7.7818184"
       viewBox="0 0 7.7 5.6"
       inkscape:isstock="true"
       inkscape:collect="always"
       preserveAspectRatio="xMidYMid"
       markerUnits="userSpaceOnUse"><path
         transform="scale(0.7)"
         d="M -2,-4 9,0 -2,4 c 2,-2.33 2,-5.66 0,-8 z"
         style="fill:context-stroke;fill-rule:evenodd;stroke:none"
         id="arrow2L" /></marker></defs><g
     inkscape:groupmode="layer"
     id="layer2"
     inkscape:label="Knot"><path
       id="path1583"
       style="display:inline;fill:#b3b3b3;stroke:none;stroke-width:1.2;stroke-linecap:butt;stroke-linejoin:miter;stroke-dasharray:none;stroke-opacity:1"
       d="m 230.2488,161.2164 c -5.42242,0.13229 -13.01496,0 -22.51104,0 -9.23668,0 -12.65105,-25.60969 -23.43185,-25.60969 -10.59926,0 -16.86741,25.60969 -23.49194,25.60969 h -19.94789 c -25.08009,0 -25.08009,0 -25.08009,25.08197 H 90.171883 c 0,-25.08197 0,-25.08197 -25.120989,-25.08197 l 10e-7,-25.60969 c 25.120988,0 25.120988,0 25.120988,-25.08408 V 90.535309 c 0,-7.618214 25.614107,-12.892673 25.614107,-23.491929 0,-10.599256 -25.614107,-14.092833 -25.614107,-23.431859 0,-9.496088 -0.132292,-17.088627 0,-22.511041 l 25.614107,10e-7 V 43.61152 c 0,9.320551 -25.614107,12.81422 -25.614107,23.431859 0,10.617639 25.614107,15.873722 25.614107,23.491931 v 19.98732 c 0,25.08408 0,25.08408 25.08009,25.08408 h 19.94789 c 8.13144,0 12.71114,25.60969 23.49194,25.60969 10.7808,0 14.19517,-25.60969 23.43185,-25.60969 h 22.51104 z"
       inkscape:label="checker"
       sodipodi:nodetypes="cssssccccssssccsssssssscc"
       sodipodi:insensitive="true" /><path
       style="color:#000000;display:inline;fill:#000000;-inkscape-stroke:none"
       d="m 89.572266,21.085937 c -0.132863,5.445812 0,13.034885 0,22.525391 0,2.228682 1.30773,4.11775 3.21289,5.763672 1.90516,1.645922 3.770823,2.70508 6.45851,4.143453 l 1.143264,-0.740929 c -2.666093,-1.426813 -5.047033,-2.781932 -6.816618,-4.310727 -1.769584,-1.528795 -2.798828,-3.09536 -2.798828,-4.855469 0,-9.501651 -0.131721,-17.097088 0,-22.496094 z m 25.613284,0.01367 v 22.511719 c 0,2.055323 -1.42537,3.865772 -3.76172,5.621094 -2.33635,1.755322 -5.51934,3.393435 -8.72461,5.078125 -3.205274,1.68469 -6.433671,3.416434 -8.904298,5.439453 -2.470627,2.023019 -4.222656,4.397321 -4.222656,7.292969 0,2.49938 1.303328,4.693258 3.238281,6.626953 1.934953,1.933694 3.818606,3.250581 6.54842,4.864156 l 1.172593,-0.752571 c -2.693882,-1.592335 -5.065031,-3.155996 -6.871404,-4.961195 -1.806373,-1.805198 -2.888672,-3.694418 -2.888672,-5.777343 0,-2.413166 1.45119,-4.455716 3.783203,-6.365235 2.332014,-1.909518 5.504873,-3.623689 8.703123,-5.304687 3.19825,-1.680998 6.42043,-3.328697 8.88672,-5.181641 2.46629,-1.852944 4.24219,-3.975129 4.24219,-6.580078 V 21.099609 Z m -9.78316,35.685676 c 2.66971,1.46607 5.17427,3.054504 6.95113,4.734246 1.77685,1.679742 2.83203,3.46066 2.83203,5.523438 0,2.408152 -1.46036,4.571886 -3.79688,6.61914 -2.33652,2.047254 -5.50908,3.929091 -8.70312,5.722657 -3.194048,1.793565 -6.408287,3.499425 -8.863284,5.269531 -2.454998,1.770106 -4.25,3.640086 -4.25,5.880859 v 19.988286 c 0,6.27101 -0.0026,10.96636 -0.388672,14.43554 -0.386032,3.46919 -1.147637,5.66146 -2.576172,7.08789 -1.428535,1.42644 -3.62507,2.18678 -7.09961,2.57227 -3.474539,0.38549 -8.17679,0.38672 -14.457031,0.38672 v 1.20117 c 6.280241,0 10.999112,0.002 14.589844,-0.39648 3.590732,-0.39839 6.102868,-1.205 7.814453,-2.91407 1.711585,-1.70907 2.520924,-4.22093 2.919922,-7.80664 0.398998,-3.5857 0.396484,-8.29539 0.396484,-14.5664 V 90.535156 c 0,-1.56833 1.406264,-3.213549 3.753907,-4.90625 2.347642,-1.692701 5.538569,-3.396989 8.748049,-5.199219 3.20947,-1.802229 6.44013,-3.702468 8.90625,-5.863281 2.46612,-2.160812 4.20703,-4.631967 4.20703,-7.523437 0,-2.476779 -1.29353,-4.583762 -3.20899,-6.394532 -1.91545,-1.810769 -3.96843,-3.116042 -6.67102,-4.600174 z m 0.0622,25.193076 c 2.70199,1.509168 5.08379,2.899431 6.89093,4.351717 1.80714,1.452286 2.83008,2.85348 2.83008,4.205078 v 19.988286 c 0,6.27101 -0.002,10.98079 0.39648,14.5664 0.39834,3.58562 1.20515,6.09551 2.91406,7.80469 1.70892,1.70919 4.21962,2.51761 7.80469,2.91602 3.58507,0.3984 8.29444,0.39648 14.56445,0.39648 h 19.94922 c 1.71791,0 3.4,1.41045 5.09961,3.75391 1.69962,2.34345 3.36866,5.53009 5.12696,8.73828 1.75829,3.20818 3.60611,6.44037 5.73632,8.9082 2.13022,2.46783 4.59655,4.20899 7.5293,4.20899 2.50947,0 4.64108,-1.28715 6.46875,-3.19922 1.82767,-1.91208 3.1165,-3.88004 4.60023,-6.57942 l -0.77015,-1.16277 c -1.46477,2.66488 -3.00269,5.13927 -4.69727,6.91211 -1.69457,1.77284 -3.49862,2.83008 -5.60156,2.83008 -2.45765,0 -4.60641,-1.46094 -6.62109,-3.79492 -2.01469,-2.33399 -3.8431,-5.50499 -5.59375,-8.69922 -1.75066,-3.19423 -3.42409,-6.40884 -5.20703,-8.86719 -1.78295,-2.45836 -3.72251,-4.25 -6.07032,-4.25 h -19.94922 c -6.27001,0 -10.96294,-0.001 -14.43164,-0.38672 -3.46869,-0.38547 -5.66179,-1.14594 -7.08789,-2.57227 -1.42609,-1.42632 -2.18685,-3.61861 -2.57226,-7.08789 -0.38542,-3.46927 -0.38672,-8.16453 -0.38672,-14.43554 V 90.535156 c 0,-1.931115 -1.35514,-3.594301 -3.2793,-5.140625 -1.92415,-1.546324 -6.49568,-4.25257 -6.49568,-4.25257 z m 78.8421,53.027501 c -2.4359,0 -4.62172,1.24107 -6.57812,3.0957 -1.95641,1.85463 -3.41552,3.82767 -5.06708,6.4777 l 0.71551,1.14926 c 1.62652,-2.60986 3.35033,-5.02547 5.17774,-6.75782 1.8274,-1.73234 3.72315,-2.76367 5.75195,-2.76367 2.45765,0 4.52449,1.45224 6.44727,3.7832 1.92277,2.33097 3.64071,5.5022 5.3164,8.69922 1.67569,3.19702 3.30884,6.41711 5.14453,8.88282 1.8357,2.4657 3.93701,4.24414 6.52344,4.24414 9.4905,0 17.07958,0.13286 22.52539,0 l -0.0293,-1.19922 c -5.39901,0.13172 -12.99445,0 -22.49609,0 -2.03191,0 -3.82133,-1.42366 -5.56055,-3.75977 -1.73921,-2.33611 -3.36483,-5.51921 -5.04492,-8.72461 -1.68008,-3.20539 -3.41496,-6.4354 -5.45312,-8.90625 -2.03816,-2.47084 -4.4403,-4.2207 -7.37305,-4.2207 z m 23.43164,0 c -2.20999,0 -4.07881,1.31105 -5.70703,3.2168 -1.62822,1.90575 -2.65099,3.53126 -4.081,6.2188 l 0.63764,1.47651 c 1.41918,-2.66718 2.84312,-5.14394 4.35547,-6.91406 1.51235,-1.77013 3.05874,-2.79688 4.79492,-2.79688 h 22.50977 v -1.20117 z m -38.44336,15.28711 c -1.60142,2.79987 -3.11418,5.44254 -4.55859,7.34765 -1.44441,1.90512 -2.79699,2.97657 -3.92188,2.97657 h -19.94922 c -6.27001,0 -10.97938,-0.004 -14.56445,0.39453 -3.58507,0.39837 -6.09577,1.20697 -7.80469,2.91601 -1.70892,1.70905 -2.51572,4.21937 -2.91406,7.80469 -0.39834,3.58532 -0.39648,8.29592 -0.39648,14.56641 h 1.20117 c 0,-6.27049 0.001,-10.96657 0.38672,-14.43555 0.38541,-3.46897 1.14617,-5.66169 2.57226,-7.08789 1.42609,-1.42619 3.61919,-2.18487 7.08789,-2.57031 3.46871,-0.38544 8.16163,-0.38867 14.43164,-0.38867 h 19.94922 c 1.80997,0 3.35651,-1.4432 4.87891,-3.45118 1.5224,-2.00797 2.76275,-4.16267 4.3639,-6.96207 z M 65.050781,160.61719 v 1.19922 c 6.280241,0 10.982487,0.003 14.457031,0.38867 3.474545,0.38546 5.671081,1.144 7.09961,2.57031 1.428529,1.42631 2.190141,3.61901 2.576172,7.08789 0.386031,3.46888 0.388672,8.16506 0.388672,14.43555 h 1.199218 c 0,-6.27049 0.0025,-10.98099 -0.396484,-14.56641 -0.398999,-3.58541 -1.208331,-6.09575 -2.919922,-7.80469 -1.711591,-1.70893 -4.223726,-2.51766 -7.814453,-2.91601 -3.590727,-0.39835 -8.309603,-0.39453 -14.589844,-0.39453 z"
       id="path1094"
       inkscape:label="knot"
       sodipodi:nodetypes="cssccsscccssssssccsssssscccssssssscsscccssssssssscccssscsssssssssccssssssscsssssccssccssssssccsssssssccssccscssscsscccssssscccccssccsssc"
       sodipodi:insensitive="true" /><path
       id="path1589"
       style="display:none;fill:none;stroke:#d45500;stroke-width:6;stroke-linecap:butt;stroke-linejoin:miter;stroke-dasharray:none;stroke-opacity:1"
       d="M 115.78599,21.100481 V 43.61152 c 0,9.320551 -25.614107,12.81422 -25.614107,23.431859 0,10.617639 25.614107,15.873722 25.614107,23.491931 v 19.98732 c 0,25.08408 0,25.08408 25.08009,25.08408 h 19.94789 c 8.13144,0 12.71114,25.60969 23.49194,25.60969 10.7808,0 14.19517,-25.60969 23.43185,-25.60969 h 22.51104 m -114.46281,50.69166 c 0,-25.08197 0,-25.08197 25.08009,-25.08197 6.4428,0 -2.5661,0 19.94789,0 6.62453,0 12.89268,-25.60969 23.49194,-25.60969 10.7808,0 14.19517,25.60969 23.43185,25.60969 9.49608,0 17.08862,0.13229 22.51104,0 M 65.050895,135.60671 c 25.120988,0 25.120988,0 25.120988,-25.08408 V 90.535309 c 0,-7.618214 25.614107,-12.892673 25.614107,-23.491929 0,-10.599256 -25.614107,-14.092833 -25.614107,-23.431859 0,-9.496088 -0.132292,-17.088627 0,-22.511041 m 0,165.19789 c 0,-25.08197 0,-25.08197 -25.120989,-25.08197"
       inkscape:label="thick"
       sodipodi:nodetypes="cssssssssccssssccssssccc"
       sodipodi:insensitive="true" /></g><g
     inkscape:label="Gluing"
     inkscape:groupmode="layer"
     id="layer1"
     style="display:inline"><path
       sodipodi:type="star"
       style="fill:none;stroke:#0000ff;stroke-width:1.21799;stroke-linecap:butt;stroke-linejoin:miter;stroke-dasharray:none"
       id="path381"
       inkscape:flatsided="true"
       sodipodi:sides="4"
       sodipodi:cx="93.043243"
       sodipodi:cy="72.367767"
       sodipodi:r1="108.89398"
       sodipodi:r2="100.60492"
       sodipodi:arg1="0.78539816"
       sodipodi:arg2="1.5707963"
       inkscape:rounded="0"
       inkscape:randomized="0"
       d="m 170.04292,149.36744 -153.999349,0 -1e-6,-153.9993455 153.99935,-5e-7 z"
       transform="matrix(0,1.0727181,-1.0727181,0,225.28005,3.8902518)" /><path
       style="fill:none;stroke:#0000ff;stroke-width:0;stroke-linecap:butt;stroke-linejoin:miter;stroke-dasharray:none;marker-end:url(#Arrow2)"
       d="m 144.58899,186.29837 h 0.61086"
       id="path2363" /><path
       style="fill:none;stroke:#0000ff;stroke-width:0;stroke-linecap:butt;stroke-linejoin:miter;stroke-dasharray:none;marker-end:url(#Arrow2)"
       d="m 144.58903,21.100473 0.61083,-6e-6"
       id="path2405" /><g
       id="g2995"
       transform="translate(-15.69225,-12.95685)"><path
         style="fill:none;stroke:#0000ff;stroke-width:0;stroke-linecap:butt;stroke-linejoin:miter;stroke-dasharray:none;marker-end:url(#Arrow2)"
         d="m 245.9403,116.05646 v -0.61087"
         id="path2401" /><path
         style="fill:none;stroke:#0000ff;stroke-width:0;stroke-linecap:butt;stroke-linejoin:miter;stroke-dasharray:none;marker-end:url(#Arrow2)"
         d="m 245.9403,126.75646 v -0.61087"
         id="path2772" /></g><g
       id="g3174"
       transform="translate(-180.88941,-12.95685)"><path
         style="fill:none;stroke:#0000ff;stroke-width:0;stroke-linecap:butt;stroke-linejoin:miter;stroke-dasharray:none;marker-end:url(#Arrow2)"
         d="m 245.9403,116.05646 v -0.61087"
         id="path3170" /><path
         style="fill:none;stroke:#0000ff;stroke-width:0;stroke-linecap:butt;stroke-linejoin:miter;stroke-dasharray:none;marker-end:url(#Arrow2)"
         d="m 245.9403,126.75646 v -0.61087"
         id="path3172" /></g></g></svg>
