<?xml version="1.0" encoding="UTF-8" standalone="no"?>
<!-- Created with Inkscape (http://www.inkscape.org/) -->

<svg
   width="297mm"
   height="210mm"
   viewBox="0 0 297 210"
   version="1.1"
   id="svg5"
   inkscape:version="1.2.2 (b0a8486541, 2022-12-01)"
   sodipodi:docname="5-2429_cc.svg"
   inkscape:export-filename="5-2429_cc.pdf"
   inkscape:export-xdpi="96"
   inkscape:export-ydpi="96"
   xml:space="preserve"
   xmlns:inkscape="http://www.inkscape.org/namespaces/inkscape"
   xmlns:sodipodi="http://sodipodi.sourceforge.net/DTD/sodipodi-0.dtd"
   xmlns="http://www.w3.org/2000/svg"
   xmlns:svg="http://www.w3.org/2000/svg"><sodipodi:namedview
     id="namedview7"
     pagecolor="#ffffff"
     bordercolor="#000000"
     borderopacity="0.25"
     inkscape:showpageshadow="2"
     inkscape:pageopacity="0.0"
     inkscape:pagecheckerboard="true"
     inkscape:deskcolor="#d1d1d1"
     inkscape:document-units="mm"
     showgrid="false"
     showguides="true"
     inkscape:zoom="1.4142136"
     inkscape:cx="526.441"
     inkscape:cy="380.06989"
     inkscape:window-width="1920"
     inkscape:window-height="1006"
     inkscape:window-x="0"
     inkscape:window-y="0"
     inkscape:window-maximized="1"
     inkscape:current-layer="layer2"><sodipodi:guide
       position="147.64985,23.70163"
       orientation="0,-1"
       id="guide2369"
       inkscape:locked="false" /><sodipodi:guide
       position="147.64985,188.89952"
       orientation="0,-1"
       id="guide2385"
       inkscape:locked="false" /><sodipodi:guide
       position="230.2488,106.30058"
       orientation="1,0"
       id="guide2389"
       inkscape:locked="false" /><sodipodi:guide
       position="65.050895,106.30058"
       orientation="1,0"
       id="guide2397"
       inkscape:locked="false" /><sodipodi:guide
       position="106.62294,23.701629"
       orientation="1,0"
       id="guide1495"
       inkscape:locked="false" /><sodipodi:guide
       position="230.16449,154.96639"
       orientation="0,-1"
       id="guide1509"
       inkscape:locked="false" /><sodipodi:guide
       position="230.24881,124.47973"
       orientation="0,-1"
       id="guide1513"
       inkscape:locked="false" /><sodipodi:guide
       position="186.77085,188.89952"
       orientation="1,0"
       id="guide1519"
       inkscape:locked="false" /><sodipodi:guide
       position="230.24879,88.341258"
       orientation="0,-1"
       id="guide1523"
       inkscape:locked="false" /></sodipodi:namedview><defs
     id="defs2"><inkscape:path-effect
       effect="knot"
       id="path-effect1125"
       is_visible="true"
       lpeversion="1"
       switcher_size="15"
       interruption_width="3"
       prop_to_stroke_width="true"
       add_stroke_width="inkscape_1.0_and_up"
       both="false"
       inverse_width="false"
       add_other_stroke_width="inkscape_1.0_and_up"
       crossing_points_vector="204.82236 | 47.638932 | 0 | 2 | 0 | 0 | 0.64580689 | 0.43946097 | 1 | 183.96917 | 75.850879 | 0 | 2 | 1 | 1 | 1.2124957 | 1.6802018 | 1 | 191.86442 | 130.5496 | 0 | 3 | 2 | 2 | 1.5703141 | 0.79581803 | 1 | 144.7969 | 118.11369 | 2 | 3 | 2 | 1 | 2.5145995 | 0.51524936 | -1 | 106.08505 | 134.60876 | 2 | 3 | 3 | 0 | 3.4571017 | 0.19255884 | -1" /><inkscape:path-effect
       effect="knot"
       id="path-effect1095"
       is_visible="true"
       lpeversion="1"
       switcher_size="15"
       interruption_width="4.4"
       prop_to_stroke_width="true"
       add_stroke_width="inkscape_1.0_and_up"
       both="false"
       inverse_width="false"
       add_other_stroke_width="inkscape_1.0_and_up"
       crossing_points_vector="204.82236 | 47.638932 | 0 | 2 | 0 | 0 | 0.64580689 | 0.43946097 | 1 | 183.96917 | 75.850879 | 0 | 2 | 1 | 1 | 1.2124957 | 1.6802018 | 1 | 191.86442 | 130.5496 | 0 | 3 | 2 | 2 | 1.5703141 | 0.79581803 | 1 | 144.7969 | 118.11369 | 2 | 3 | 2 | 1 | 2.5145995 | 0.51524936 | -1 | 106.08505 | 134.60876 | 2 | 3 | 3 | 0 | 3.4571017 | 0.19255884 | -1" /><inkscape:path-effect
       effect="knot"
       id="path-effect2212"
       is_visible="true"
       lpeversion="1"
       switcher_size="15"
       interruption_width="4.4"
       prop_to_stroke_width="true"
       add_stroke_width="inkscape_1.0_and_up"
       both="false"
       inverse_width="false"
       add_other_stroke_width="inkscape_1.0_and_up"
       crossing_points_vector="156.11912 | 116.44117 | 1 | 3 | 0 | 2 | 0.55753404 | 2.0353276 | -1 | 142.80434 | 57.844211 | 2 | 3 | 0 | 0 | 0.53069642 | 0.48026329 | 1 | 161.29337 | 88.977392 | 2 | 3 | 1 | 1 | 1.36179 | 1.6060029 | 1" /><inkscape:path-effect
       effect="knot"
       id="path-effect1121"
       is_visible="true"
       lpeversion="1"
       switcher_size="15"
       interruption_width="3"
       prop_to_stroke_width="true"
       add_stroke_width="inkscape_1.0_and_up"
       both="false"
       inverse_width="false"
       add_other_stroke_width="inkscape_1.0_and_up"
       crossing_points_vector="170.14902 | 90.142526 | 0 | 1 | 1 | 0 | 0.67450792 | 0.55251845 | -1 | 125.23636 | 117.3821 | 0 | 2 | 0 | 0 | 0.32610876 | 0.55347348 | 1" /><inkscape:path-effect
       effect="knot"
       id="path-effect1103"
       is_visible="true"
       lpeversion="1"
       switcher_size="15"
       interruption_width="3"
       prop_to_stroke_width="true"
       add_stroke_width="inkscape_1.0_and_up"
       both="false"
       inverse_width="false"
       add_other_stroke_width="inkscape_1.0_and_up"
       crossing_points_vector="170.14902 | 90.142526 | 0 | 1 | 1 | 0 | 0.67450792 | 0.55251845 | -1 | 125.23636 | 117.3821 | 0 | 2 | 0 | 0 | 0.32610876 | 0.55347348 | 1" /><inkscape:path-effect
       effect="knot"
       id="path-effect1295"
       is_visible="true"
       lpeversion="1"
       switcher_size="15"
       interruption_width="3"
       prop_to_stroke_width="true"
       add_stroke_width="inkscape_1.0_and_up"
       both="false"
       inverse_width="false"
       add_other_stroke_width="inkscape_1.0_and_up"
       crossing_points_vector="163.67 | 75.561818 | 1 | 3 | 1 | 0 | 0.71402965 | 0.62659553 | -1 | 131.21559 | 132.04 | 1 | 4 | 0 | 0 | 0.2845872 | 0.37026825 | 1" /><inkscape:path-effect
       effect="knot"
       id="path-effect1089"
       is_visible="true"
       lpeversion="1"
       switcher_size="15"
       interruption_width="3"
       prop_to_stroke_width="true"
       add_stroke_width="inkscape_1.0_and_up"
       both="false"
       inverse_width="false"
       add_other_stroke_width="inkscape_1.0_and_up"
       crossing_points_vector="163.67 | 75.561818 | 1 | 3 | 1 | 0 | 0.71402965 | 0.62659553 | -1 | 131.21559 | 132.04 | 1 | 4 | 0 | 0 | 0.2845872 | 0.37026825 | 1" /><inkscape:path-effect
       effect="knot"
       id="path-effect36038"
       is_visible="true"
       lpeversion="1"
       switcher_size="15"
       interruption_width="4.4"
       prop_to_stroke_width="true"
       add_stroke_width="inkscape_1.0_and_up"
       both="false"
       inverse_width="false"
       add_other_stroke_width="inkscape_1.0_and_up"
       crossing_points_vector="164.17285 | 162.2786 | 0 | 1 | 0 | 1 | 0.63797665 | 2.5817549 | -1 | 94.321989 | 126.09628 | 1 | 2 | 0 | 0 | 0.69120593 | 0.23943975 | -1 | 169.14754 | 83.323364 | 4 | 5 | 0 | 1 | 1.2086951 | 0.76344361 | 1 | 161.78506 | 110.28888 | 4 | 5 | 1 | 2 | 2.2658824 | 1.2655497 | 1 | 189.23641 | 80.054602 | 5 | 6 | 0 | 1 | 0.49998066 | 0.47789049 | -1 | 186.751 | 66.863669 | 6 | 7 | 0 | 0 | 0.36848756 | 1.1406449 | -1" /><inkscape:path-effect
       effect="knot"
       id="path-effect35912"
       is_visible="true"
       lpeversion="1"
       switcher_size="15"
       interruption_width="4.4"
       prop_to_stroke_width="true"
       add_stroke_width="inkscape_1.0_and_up"
       both="false"
       inverse_width="false"
       add_other_stroke_width="inkscape_1.0_and_up"
       crossing_points_vector="164.17285 | 162.2786 | 0 | 1 | 0 | 1 | 0.63797665 | 2.5817549 | -1 | 94.321989 | 126.09628 | 1 | 2 | 0 | 0 | 0.69120593 | 0.23943975 | -1 | 169.14754 | 83.323364 | 4 | 5 | 0 | 1 | 1.2086951 | 0.76344361 | 1 | 161.78506 | 110.28888 | 4 | 5 | 1 | 2 | 2.2658824 | 1.2655497 | 1 | 189.23641 | 80.054602 | 5 | 6 | 0 | 1 | 0.49998066 | 0.47789049 | -1 | 186.751 | 66.863669 | 6 | 7 | 0 | 0 | 0.36848756 | 1.1406449 | -1" /><inkscape:path-effect
       effect="knot"
       id="path-effect6617"
       is_visible="true"
       lpeversion="1"
       switcher_size="15"
       interruption_width="4.7"
       prop_to_stroke_width="true"
       add_stroke_width="inkscape_1.0_and_up"
       both="false"
       inverse_width="false"
       add_other_stroke_width="inkscape_1.0_and_up"
       crossing_points_vector="94.231375 | 107.65896 | 0 | 1 | 0 | 2 | 1.3788578 | 2.9335876 | -1 | 102.93641 | 85.611826 | 0 | 1 | 1 | 1 | 2.3965971 | 2.2509201 | -1 | 121.8605 | 82.315223 | 1 | 3 | 0 | 0 | 1.7652894 | 0.89585662 | -1 | 181.75981 | 74.276606 | 4 | 7 | 0 | 0 | 1.2016067 | 0.62880773 | 1 | 206.24726 | 136.71028 | 6 | 7 | 0 | 2 | 0.69456803 | 1.7684003 | -1 | 190.65829 | 115.43676 | 6 | 7 | 1 | 1 | 1.3996311 | 1.3504034 | -1" /><inkscape:path-effect
       effect="knot"
       id="path-effect6296"
       is_visible="true"
       lpeversion="1"
       switcher_size="15"
       interruption_width="3.8"
       prop_to_stroke_width="true"
       add_stroke_width="inkscape_1.0_and_up"
       both="false"
       inverse_width="false"
       add_other_stroke_width="inkscape_1.0_and_up"
       crossing_points_vector="94.231375 | 107.65896 | 0 | 1 | 0 | 2 | 1.3788578 | 2.9335876 | -1 | 102.93641 | 85.611826 | 0 | 1 | 1 | 1 | 2.3965971 | 2.2509201 | -1 | 121.8605 | 82.315223 | 1 | 3 | 0 | 0 | 1.7652894 | 0.89585662 | -1 | 181.75981 | 74.276606 | 4 | 7 | 0 | 0 | 1.2016067 | 0.62880773 | 1 | 206.24726 | 136.71028 | 6 | 7 | 0 | 2 | 0.69456803 | 1.7684003 | -1 | 190.65829 | 115.43676 | 6 | 7 | 1 | 1 | 1.3996311 | 1.3504034 | -1" /><inkscape:path-effect
       effect="knot"
       id="path-effect6164"
       is_visible="true"
       lpeversion="1"
       switcher_size="15"
       interruption_width="4.7"
       prop_to_stroke_width="true"
       add_stroke_width="inkscape_1.0_and_up"
       both="false"
       inverse_width="false"
       add_other_stroke_width="inkscape_1.0_and_up"
       crossing_points_vector="94.231375 | 107.65896 | 0 | 1 | 0 | 2 | 1.3788578 | 2.9335876 | -1 | 102.93641 | 85.611826 | 0 | 1 | 1 | 1 | 2.3965971 | 2.2509201 | -1 | 121.8605 | 82.315223 | 1 | 3 | 0 | 0 | 1.7652894 | 0.89585662 | -1 | 181.75981 | 74.276606 | 4 | 7 | 0 | 0 | 1.2016067 | 0.62880773 | 1 | 206.24726 | 136.71028 | 6 | 7 | 0 | 2 | 0.69456803 | 1.7684003 | -1 | 190.65829 | 115.43676 | 6 | 7 | 1 | 1 | 1.3996311 | 1.3504034 | -1" /><inkscape:path-effect
       effect="knot"
       id="path-effect1347"
       is_visible="true"
       lpeversion="1"
       switcher_size="15"
       interruption_width="3"
       prop_to_stroke_width="true"
       add_stroke_width="inkscape_1.0_and_up"
       both="false"
       inverse_width="false"
       add_other_stroke_width="inkscape_1.0_and_up"
       crossing_points_vector="94.776389 | 107.44239 | 0 | 1 | 0 | 2 | 1.4977336 | 2.9189938 | -1 | 103.82561 | 86.17886 | 0 | 1 | 1 | 1 | 2.4134011 | 2.3635094 | -1 | 120.7306 | 77.936389 | 1 | 3 | 0 | 0 | 1.5721636 | 0.83324548 | -1 | 181.75981 | 74.276606 | 4 | 7 | 0 | 0 | 1.2016067 | 0.62880773 | 1 | 206.25909 | 136.72187 | 6 | 7 | 0 | 2 | 0.68342076 | 1.7686344 | -1 | 190.65829 | 115.43676 | 6 | 7 | 1 | 1 | 1.3996311 | 1.3504034 | -1" /><inkscape:path-effect
       effect="knot"
       id="path-effect1335"
       is_visible="true"
       lpeversion="1"
       switcher_size="15"
       interruption_width="3"
       prop_to_stroke_width="true"
       add_stroke_width="inkscape_1.0_and_up"
       both="false"
       inverse_width="false"
       add_other_stroke_width="inkscape_1.0_and_up"
       crossing_points_vector="" /><marker
       style="overflow:visible"
       id="Arrow2"
       refX="0"
       refY="0"
       orient="auto-start-reverse"
       inkscape:stockid="Arrow2"
       markerWidth="10.7"
       markerHeight="7.7818184"
       viewBox="0 0 7.7 5.6"
       inkscape:isstock="true"
       inkscape:collect="always"
       preserveAspectRatio="xMidYMid"
       markerUnits="userSpaceOnUse"><path
         transform="scale(0.7)"
         d="M -2,-4 9,0 -2,4 c 2,-2.33 2,-5.66 0,-8 z"
         style="fill:context-stroke;fill-rule:evenodd;stroke:none"
         id="arrow2L" /></marker></defs><g
     inkscape:groupmode="layer"
     id="layer2"
     inkscape:label="Knot"><path
       id="path1121"
       style="display:none;fill:none;stroke:#d45500;stroke-width:6;stroke-linecap:butt;stroke-linejoin:miter;stroke-dasharray:none;stroke-opacity:1"
       d="m 230.2488,50.788109 c -14.49142,0 -28.06597,-7.106084 -35.14584,0 -31.20231,31.317827 10.11395,106.687121 12.81652,135.510251 M 65.050894,50.788109 c 29.459139,0 29.579432,-10.613456 29.459139,-29.687629 m 105.992567,0 c 0,29.687629 10.7993,32.713554 9.5738,42.61083 -2.18913,17.679646 -25.04759,5.994568 -46.17575,18.394626 -12.43581,7.298543 -23.12074,64.898674 -41.56757,61.103494 -18.44684,-3.79517 -17.73964,-16.2972 -28.850011,-15.92297 -8.900804,0.2998 -28.432175,1.50461 -28.432175,1.50461 m 29.459139,57.5073 C 105.55576,58.794928 166.27583,150.02101 230.2488,128.79107"
       inkscape:label="thick"
       sodipodi:insensitive="true" /><path
       id="path414"
       style="display:inline;fill:#b3b3b3;stroke:none;stroke-width:0.2;stroke-linecap:butt;stroke-linejoin:miter;stroke-dasharray:none;stroke-opacity:1"
       d="m 65.050894,50.788109 c 14.72957,0 22.124427,-2.653364 25.821856,-7.691 3.697429,-5.037635 3.697429,-12.459543 3.637283,-21.996629 H 65.050895 Z M 200.5026,21.10048 c 0,29.687629 10.7993,32.713554 9.5738,42.61083 -2.18913,17.679646 -25.04759,5.994568 -46.17575,18.394626 -12.43581,7.298543 -23.12074,64.898674 -41.56757,61.103494 -18.44684,-3.79517 -17.73964,-16.2972 -28.850011,-15.92297 -8.900804,0.2998 -28.432175,1.50461 -28.432175,1.50461 l 10e-7,57.5073 H 94.510033 C 105.55576,58.794928 166.27583,150.02101 230.2488,128.79107 v 57.5073 l -22.32932,-1e-5 C 205.21691,157.47523 163.90065,82.105936 195.10296,50.788109 c 7.07987,-7.106084 20.65442,0 35.14584,0 V 21.10048 Z"
       inkscape:label="checkerboard"
       sodipodi:nodetypes="csccccssssccccccsccc" /><path
       style="color:#000000;display:inline;fill:#000000;-inkscape-stroke:none"
       d="m 95.109375,21.097656 -1.199219,0.0059 c 0.06013,9.535114 0.0096,16.827657 -3.521484,21.638671 C 86.857574,47.553202 79.708281,50.1875 65.050781,50.1875 v 1.201172 c 14.80161,0 22.442888,-2.673253 26.306641,-7.9375 3.863753,-5.264247 3.812112,-12.814476 3.751953,-22.353516 z m 104.792965,0.002 c 0,14.916553 2.72953,23.217287 5.29883,28.972657 1.28465,2.877685 2.51898,5.113819 3.33789,7.199218 0.81891,2.0854 1.23412,4.00127 0.94141,6.365235 -0.67348,5.43908 -3.20665,7.817046 -7.20703,9.173828 -4.00038,1.356781 -9.16721,1.549804 -15.34844,2.166275 l -0.20234,1.173569 c 6.13083,-0.611445 11.65425,-0.751068 15.93554,-2.203125 4.2813,-1.452058 7.29796,-4.381941 8.01367,-10.16211 0.32004,-2.584668 -0.15434,-4.757867 -1.01562,-6.951172 -0.86128,-2.193304 -2.09739,-4.425049 -3.35938,-7.251953 -2.52396,-5.653807 -5.19335,-13.711375 -5.19335,-28.482422 z m 1.65294,26.071625 c -2.78722,0.291033 -4.88692,1.196004 -6.87755,3.194 -8.76119,8.793626 -11.87713,20.986849 -11.77343,34.539063 0.10369,13.552214 3.25561,27.853406 7.40479,42.330556 l 1.3081,0.31984 c -4.13537,-14.42894 -7.41143,-29.296872 -7.51367,-42.660162 -0.10225,-13.363289 2.95346,-25.181875 11.42382,-33.683594 1.77178,-1.778341 3.95266,-2.609366 6.55274,-2.880859 z m 6.37523,0.08852 0.58253,1.200479 c 6.47754,0.704465 13.51113,2.928434 21.73501,2.928434 V 50.1875 c -8.00423,0 -15.37507,-2.187511 -22.01756,-2.909914 z m -26.75668,28.375007 c -5.65386,0.885531 -11.67907,2.492133 -17.57617,5.953125 -3.37373,1.980028 -6.3322,7.023845 -9.38477,13.419921 -3.05257,6.396086 -6.13104,14.163476 -9.39062,21.568366 -3.25959,7.4049 -6.7068,14.4473 -10.4375,19.3496 -1.86536,2.45116 -3.79988,4.36129 -5.78321,5.52931 -1.98333,1.16801 -3.99489,1.60906 -6.14843,1.166 -6.76945,-1.3927 -10.86241,-3.94511 -13.9629,-6.60937 l -0.42861,1.15883 c 3.21123,2.75941 7.19,5.19414 14.15127,6.62632 2.45816,0.50574 4.81568,-0.0226 6.99609,-1.30664 2.18042,-1.28407 4.20611,-3.30869 6.13086,-5.83789 3.84951,-5.0584 7.30811,-12.16069 10.58008,-19.59374 3.27197,-7.43304 6.35012,-15.19515 9.375,-21.533207 3.02488,-6.338051 6.06598,-11.233105 8.91016,-12.902344 5.72935,-3.362542 11.22322,-4.913258 16.78664,-5.784627 z m -47.86914,40.587902 c -8.61728,-0.0101 -16.27797,2.61998 -22.51758,10.0625 -8.31948,9.92335 -14.124258,28.20846 -16.875001,59.96092 l 1.195313,0.10353 c 2.741572,-31.64663 8.571908,-49.7196 16.599608,-59.29492 8.0277,-9.57533 17.78221,-10.93916 29.85972,-8.93316 l 0.65591,-1.09028 c -3.06777,-0.50954 -6.04555,-0.80523 -8.91797,-0.80859 z m 14.69396,1.90202 -0.69592,1.13899 c 23.61144,5.36969 52.96308,20.11036 83.13477,10.09765 l -0.37695,-1.14062 c -29.61527,9.82807 -58.20054,-4.6695 -82.0619,-10.09602 z m -54.535759,8.56282 c -8.925333,0.30062 -28.449219,1.5039 -28.449219,1.5039 l 0.07422,1.19921 c 0,0 19.539758,-1.20493 28.416015,-1.5039 4.799164,-0.16164 7.169653,2.10234 10.197263,5.17383 l 0.45996,-1.1079 c -3.0462,-3.09035 -5.495331,-5.4404 -10.698238,-5.26515 z m 99.961739,7.17885 -1.28791,-0.30972 c 6.45384,21.3391 14.09154,41.12916 15.18555,52.79688 l 1.19531,-0.11133 c -1.13021,-12.05379 -8.65583,-31.09202 -15.09295,-52.37583 z"
       id="path1064"
       sodipodi:nodetypes="cccccsccssssccsssscccssccsscccccccccssssssccssssssccssccsccscccccsccsccssccccc"
       inkscape:label="knot" /></g><g
     inkscape:label="Gluing"
     inkscape:groupmode="layer"
     id="layer1"
     style="display:inline"><path
       sodipodi:type="star"
       style="fill:none;stroke:#0000ff;stroke-width:1.21799;stroke-linecap:butt;stroke-linejoin:miter;stroke-dasharray:none"
       id="path381"
       inkscape:flatsided="true"
       sodipodi:sides="4"
       sodipodi:cx="93.043243"
       sodipodi:cy="72.367767"
       sodipodi:r1="108.89398"
       sodipodi:r2="100.60492"
       sodipodi:arg1="0.78539816"
       sodipodi:arg2="1.5707963"
       inkscape:rounded="0"
       inkscape:randomized="0"
       d="m 170.04292,149.36744 -153.999349,0 -1e-6,-153.9993455 153.99935,-5e-7 z"
       transform="matrix(0,1.0727181,-1.0727181,0,225.28005,3.8902555)" /><path
       style="fill:none;stroke:#0000ff;stroke-width:0;stroke-linecap:butt;stroke-linejoin:miter;stroke-dasharray:none;marker-end:url(#Arrow2)"
       d="m 144.58899,186.29837 h 0.61086"
       id="path2363" /><path
       style="fill:none;stroke:#0000ff;stroke-width:0;stroke-linecap:butt;stroke-linejoin:miter;stroke-dasharray:none;marker-end:url(#Arrow2)"
       d="m 144.58903,21.100473 0.61083,-6e-6"
       id="path2405" /><g
       id="g2995"
       transform="translate(-15.69225,-12.95685)"><path
         style="fill:none;stroke:#0000ff;stroke-width:0;stroke-linecap:butt;stroke-linejoin:miter;stroke-dasharray:none;marker-end:url(#Arrow2)"
         d="m 245.9403,116.05646 v -0.61087"
         id="path2401" /><path
         style="fill:none;stroke:#0000ff;stroke-width:0;stroke-linecap:butt;stroke-linejoin:miter;stroke-dasharray:none;marker-end:url(#Arrow2)"
         d="m 245.9403,126.75646 v -0.61087"
         id="path2772" /></g><g
       id="g3174"
       transform="translate(-180.88941,-12.95685)"
       style="display:inline"><path
         style="fill:none;stroke:#0000ff;stroke-width:0;stroke-linecap:butt;stroke-linejoin:miter;stroke-dasharray:none;marker-end:url(#Arrow2)"
         d="m 245.9403,116.05646 v -0.61087"
         id="path3170" /><path
         style="fill:none;stroke:#0000ff;stroke-width:0;stroke-linecap:butt;stroke-linejoin:miter;stroke-dasharray:none;marker-end:url(#Arrow2)"
         d="m 245.9403,126.75646 v -0.61087"
         id="path3172" /></g></g></svg>
