<?xml version="1.0" encoding="UTF-8" standalone="no"?>
<!-- Created with Inkscape (http://www.inkscape.org/) -->

<svg
   width="297mm"
   height="210mm"
   viewBox="0 0 297 210"
   version="1.1"
   id="svg5"
   inkscape:version="1.2.2 (b0a8486541, 2022-12-01)"
   sodipodi:docname="6-90124_vknot.svg"
   inkscape:export-filename="6-90124_vknot.pdf"
   inkscape:export-xdpi="96"
   inkscape:export-ydpi="96"
   xml:space="preserve"
   xmlns:inkscape="http://www.inkscape.org/namespaces/inkscape"
   xmlns:sodipodi="http://sodipodi.sourceforge.net/DTD/sodipodi-0.dtd"
   xmlns="http://www.w3.org/2000/svg"
   xmlns:svg="http://www.w3.org/2000/svg"><sodipodi:namedview
     id="namedview7"
     pagecolor="#ffffff"
     bordercolor="#000000"
     borderopacity="0.25"
     inkscape:showpageshadow="2"
     inkscape:pageopacity="0.0"
     inkscape:pagecheckerboard="true"
     inkscape:deskcolor="#d1d1d1"
     inkscape:document-units="mm"
     showgrid="false"
     showguides="true"
     inkscape:zoom="1.1656964"
     inkscape:cx="561.038"
     inkscape:cy="348.28965"
     inkscape:window-width="1920"
     inkscape:window-height="1007"
     inkscape:window-x="0"
     inkscape:window-y="0"
     inkscape:window-maximized="1"
     inkscape:current-layer="layer2"><sodipodi:guide
       position="147.64985,106.30058"
       orientation="1,0"
       id="guide1786"
       inkscape:locked="false" /><sodipodi:guide
       position="147.64985,106.30058"
       orientation="0,-1"
       id="guide1788"
       inkscape:locked="false" /><sodipodi:guide
       position="147.64985,106.30058"
       orientation="0.70710678,-0.70710678"
       id="guide1790"
       inkscape:locked="false" /><sodipodi:guide
       position="147.64985,106.30058"
       orientation="-0.70710678,-0.70710678"
       id="guide1792"
       inkscape:locked="false" /><sodipodi:guide
       position="147.64985,23.70163"
       orientation="0,-1"
       id="guide2369"
       inkscape:locked="false" /><sodipodi:guide
       position="147.64985,188.89952"
       orientation="0,-1"
       id="guide2385"
       inkscape:locked="false" /><sodipodi:guide
       position="206.05612,47.894301"
       orientation="0.70710678,-0.70710678"
       id="guide2387"
       inkscape:locked="false" /><sodipodi:guide
       position="230.2488,106.30058"
       orientation="1,0"
       id="guide2389"
       inkscape:locked="false" /><sodipodi:guide
       position="206.05612,164.70686"
       orientation="-0.70710678,-0.70710678"
       id="guide2391"
       inkscape:locked="false" /><sodipodi:guide
       position="89.243567,164.70685"
       orientation="0.70710678,-0.70710678"
       id="guide2395"
       inkscape:locked="false" /><sodipodi:guide
       position="65.050895,106.30058"
       orientation="1,0"
       id="guide2397"
       inkscape:locked="false" /><sodipodi:guide
       position="89.243567,47.894301"
       orientation="-0.70710678,-0.70710678"
       id="guide2399"
       inkscape:locked="false" /></sodipodi:namedview><defs
     id="defs2"><inkscape:path-effect
       effect="knot"
       id="path-effect36038"
       is_visible="true"
       lpeversion="1"
       switcher_size="15"
       interruption_width="4.4"
       prop_to_stroke_width="true"
       add_stroke_width="inkscape_1.0_and_up"
       both="false"
       inverse_width="false"
       add_other_stroke_width="inkscape_1.0_and_up"
       crossing_points_vector="164.17285 | 162.2786 | 0 | 1 | 0 | 1 | 0.63797665 | 2.5817549 | -1 | 94.321989 | 126.09628 | 1 | 2 | 0 | 0 | 0.69120593 | 0.23943975 | -1 | 169.14754 | 83.323364 | 4 | 5 | 0 | 1 | 1.2086951 | 0.76344361 | 1 | 161.78506 | 110.28888 | 4 | 5 | 1 | 2 | 2.2658824 | 1.2655497 | 1 | 189.23641 | 80.054602 | 5 | 6 | 0 | 1 | 0.49998066 | 0.47789049 | -1 | 186.751 | 66.863669 | 6 | 7 | 0 | 0 | 0.36848756 | 1.1406449 | -1" /><inkscape:path-effect
       effect="knot"
       id="path-effect35912"
       is_visible="true"
       lpeversion="1"
       switcher_size="15"
       interruption_width="4.4"
       prop_to_stroke_width="true"
       add_stroke_width="inkscape_1.0_and_up"
       both="false"
       inverse_width="false"
       add_other_stroke_width="inkscape_1.0_and_up"
       crossing_points_vector="164.17285 | 162.2786 | 0 | 1 | 0 | 1 | 0.63797665 | 2.5817549 | -1 | 94.321989 | 126.09628 | 1 | 2 | 0 | 0 | 0.69120593 | 0.23943975 | -1 | 169.14754 | 83.323364 | 4 | 5 | 0 | 1 | 1.2086951 | 0.76344361 | 1 | 161.78506 | 110.28888 | 4 | 5 | 1 | 2 | 2.2658824 | 1.2655497 | 1 | 189.23641 | 80.054602 | 5 | 6 | 0 | 1 | 0.49998066 | 0.47789049 | -1 | 186.751 | 66.863669 | 6 | 7 | 0 | 0 | 0.36848756 | 1.1406449 | -1" /><inkscape:path-effect
       effect="knot"
       id="path-effect6617"
       is_visible="true"
       lpeversion="1"
       switcher_size="15"
       interruption_width="4.7"
       prop_to_stroke_width="true"
       add_stroke_width="inkscape_1.0_and_up"
       both="false"
       inverse_width="false"
       add_other_stroke_width="inkscape_1.0_and_up"
       crossing_points_vector="94.231375 | 107.65896 | 0 | 1 | 0 | 2 | 1.3788578 | 2.9335876 | -1 | 102.93641 | 85.611826 | 0 | 1 | 1 | 1 | 2.3965971 | 2.2509201 | -1 | 121.8605 | 82.315223 | 1 | 3 | 0 | 0 | 1.7652894 | 0.89585662 | -1 | 181.75981 | 74.276606 | 4 | 7 | 0 | 0 | 1.2016067 | 0.62880773 | 1 | 206.24726 | 136.71028 | 6 | 7 | 0 | 2 | 0.69456803 | 1.7684003 | -1 | 190.65829 | 115.43676 | 6 | 7 | 1 | 1 | 1.3996311 | 1.3504034 | -1" /><inkscape:path-effect
       effect="knot"
       id="path-effect6296"
       is_visible="true"
       lpeversion="1"
       switcher_size="15"
       interruption_width="3.8"
       prop_to_stroke_width="true"
       add_stroke_width="inkscape_1.0_and_up"
       both="false"
       inverse_width="false"
       add_other_stroke_width="inkscape_1.0_and_up"
       crossing_points_vector="94.231375 | 107.65896 | 0 | 1 | 0 | 2 | 1.3788578 | 2.9335876 | -1 | 102.93641 | 85.611826 | 0 | 1 | 1 | 1 | 2.3965971 | 2.2509201 | -1 | 121.8605 | 82.315223 | 1 | 3 | 0 | 0 | 1.7652894 | 0.89585662 | -1 | 181.75981 | 74.276606 | 4 | 7 | 0 | 0 | 1.2016067 | 0.62880773 | 1 | 206.24726 | 136.71028 | 6 | 7 | 0 | 2 | 0.69456803 | 1.7684003 | -1 | 190.65829 | 115.43676 | 6 | 7 | 1 | 1 | 1.3996311 | 1.3504034 | -1" /><inkscape:path-effect
       effect="knot"
       id="path-effect6164"
       is_visible="true"
       lpeversion="1"
       switcher_size="15"
       interruption_width="4.7"
       prop_to_stroke_width="true"
       add_stroke_width="inkscape_1.0_and_up"
       both="false"
       inverse_width="false"
       add_other_stroke_width="inkscape_1.0_and_up"
       crossing_points_vector="94.231375 | 107.65896 | 0 | 1 | 0 | 2 | 1.3788578 | 2.9335876 | -1 | 102.93641 | 85.611826 | 0 | 1 | 1 | 1 | 2.3965971 | 2.2509201 | -1 | 121.8605 | 82.315223 | 1 | 3 | 0 | 0 | 1.7652894 | 0.89585662 | -1 | 181.75981 | 74.276606 | 4 | 7 | 0 | 0 | 1.2016067 | 0.62880773 | 1 | 206.24726 | 136.71028 | 6 | 7 | 0 | 2 | 0.69456803 | 1.7684003 | -1 | 190.65829 | 115.43676 | 6 | 7 | 1 | 1 | 1.3996311 | 1.3504034 | -1" /><inkscape:path-effect
       effect="knot"
       id="path-effect1347"
       is_visible="true"
       lpeversion="1"
       switcher_size="15"
       interruption_width="3"
       prop_to_stroke_width="true"
       add_stroke_width="inkscape_1.0_and_up"
       both="false"
       inverse_width="false"
       add_other_stroke_width="inkscape_1.0_and_up"
       crossing_points_vector="94.776389 | 107.44239 | 0 | 1 | 0 | 2 | 1.4977336 | 2.9189938 | -1 | 103.82561 | 86.17886 | 0 | 1 | 1 | 1 | 2.4134011 | 2.3635094 | -1 | 120.7306 | 77.936389 | 1 | 3 | 0 | 0 | 1.5721636 | 0.83324548 | -1 | 181.75981 | 74.276606 | 4 | 7 | 0 | 0 | 1.2016067 | 0.62880773 | 1 | 206.25909 | 136.72187 | 6 | 7 | 0 | 2 | 0.68342076 | 1.7686344 | -1 | 190.65829 | 115.43676 | 6 | 7 | 1 | 1 | 1.3996311 | 1.3504034 | -1" /><inkscape:path-effect
       effect="knot"
       id="path-effect1335"
       is_visible="true"
       lpeversion="1"
       switcher_size="15"
       interruption_width="3"
       prop_to_stroke_width="true"
       add_stroke_width="inkscape_1.0_and_up"
       both="false"
       inverse_width="false"
       add_other_stroke_width="inkscape_1.0_and_up"
       crossing_points_vector="" /><marker
       style="overflow:visible"
       id="Arrow2"
       refX="0"
       refY="0"
       orient="auto-start-reverse"
       inkscape:stockid="Arrow2"
       markerWidth="7.6999998"
       markerHeight="5.5999999"
       viewBox="0 0 7.7 5.6"
       inkscape:isstock="true"
       inkscape:collect="always"
       preserveAspectRatio="xMidYMid"
       markerUnits="userSpaceOnUse"><path
         transform="scale(0.7)"
         d="M -2,-4 9,0 -2,4 c 2,-2.33 2,-5.66 0,-8 z"
         style="fill:context-stroke;fill-rule:evenodd;stroke:none"
         id="arrow2L" /></marker></defs><g
     inkscape:groupmode="layer"
     id="layer2"
     inkscape:label="Knot"
     style="display:inline"><path
       id="path35907"
       style="display:none;fill:none;stroke:#ff6600;stroke-width:6;stroke-dasharray:none"
       d="m 128.81795,186.17294 c 0.10054,-18.90163 41.12112,-35.59137 66.05519,-13.17082 M 75.631973,148.39128 c 14.477844,-14.07569 18.881675,-24.05577 22.621634,-26.84434 11.461623,-8.54595 41.925433,3.92108 53.990303,14.3773 12.06488,10.45622 13.17081,31.46922 13.47244,49.76761 M 65.075207,121.24531 c 51.376253,-0.5027 56.503823,33.07786 36.998943,53.38706 M 77.275967,57.40946 C 89.34084,70.580281 83.509488,86.365156 65.211097,86.365156 M 129.3608,20.650196 c 0.70379,36.797864 27.84975,51.778419 35.69192,58.112473 7.84217,6.334054 9.55136,17.795682 3.61946,26.140551 -5.9319,8.34487 -23.90026,11.47828 -32.77624,0.60325 -6.82982,-8.368036 -17.79568,-56.101658 -34.68651,-71.584913 m 128.5792,49.287352 c -22.68172,0.714528 -61.16454,-13.248241 -72.89194,12.366494 -7.99553,17.463657 46.14814,39.914607 61.6314,53.789217 M 193.37408,32.677838 c -16.25299,16.476657 -5.06974,87.443192 36.90474,88.486962 M 166.63283,21.015336 c 0.84995,14.434606 -2.97935,33.751312 13.21463,42.958808 16.19399,9.207497 34.27174,0.66109 39.47704,-4.741871"
       inkscape:label="thick"
       sodipodi:insensitive="true" /><path
       style="color:#000000;fill:#000000;-inkscape-stroke:none"
       d="m 129.96094,20.638672 -1.19922,0.02344 c 0.35468,18.544817 7.3894,31.643229 15.3125,40.859375 7.92309,9.216147 16.76387,14.60736 20.60156,17.707032 7.60008,6.138515 9.25786,17.23713 3.50781,25.326171 -1.06036,1.4917 -2.41471,2.66187 -4.18363,3.76856 l 0.79034,0.94216 c 1.88129,-1.177 3.20227,-2.37013 4.37181,-4.01541 6.11374,-8.600677 4.35183,-20.423542 -3.73242,-26.953122 -4.00447,-3.234376 -12.65896,-8.501501 -20.44532,-17.558594 -7.78635,-9.057092 -14.67433,-21.846599 -15.02343,-40.099609 z m 37.27148,0.341797 -1.19922,0.07031 c 0.42095,7.148836 -0.32889,15.609526 0.85938,23.494141 1.18826,7.884614 4.38683,15.248276 12.6582,19.951172 1.39697,0.794281 2.80828,1.459576 4.22461,2.007812 l -0.0952,-1.242894 c -1.36198,-0.527201 -2.19043,-1.043016 -3.53568,-1.807887 -7.92259,-4.504591 -10.90639,-11.403642 -12.06445,-19.087891 -1.15807,-7.684248 -0.41865,-16.099009 -0.84766,-23.384765 z m 25.71485,11.27539 c -3.86509,3.918275 -6.14689,10.62506 -6.96875,18.650391 -0.82187,8.025331 -0.21592,17.105881 1.95576,26.354977 l 1.22197,0.0064 c -2.14276,-9.125966 -2.78995,-18.372001 -1.98438,-26.238281 0.80558,-7.86628 3.08367,-14.33566 6.62891,-17.929688 z m -91.33204,1.222657 -0.81054,0.884765 c 8.26668,7.57779 15.26206,23.337664 20.96094,38.232422 2.84943,7.447379 5.38734,14.679724 7.64453,20.585938 2.25719,5.906213 4.18707,10.457529 6.02148,12.705079 6.00771,7.36076 15.87251,8.53745 23.74336,6.04284 l -0.84418,-1.00426 c -7.49272,2.37477 -16.33751,1.10207 -21.96949,-5.79835 -1.5805,-1.93646 -3.58245,-6.491853 -5.83008,-12.373044 -2.24763,-5.881191 -4.78743,-13.118515 -7.64453,-20.585937 -5.71421,-14.934846 -12.64736,-30.784003 -21.27149,-38.689453 z m -23.89648,23.52539 -0.884766,0.810547 c 5.919266,6.461865 7.373315,13.451477 5.238282,18.789063 -2.135034,5.337585 -7.884669,9.162109 -16.861329,9.162109 v 1.199219 c 9.321714,0 15.637545,-4.06847 17.976563,-9.916016 2.339018,-5.847546 0.676846,-13.335979 -5.46875,-20.044922 z m 141.17383,1.8125 c -1.98698,2.062431 -6.1073,4.72816 -11.32227,6.53125 -5.21496,1.80309 -11.43968,2.742321 -17.89242,1.539999 l 0.0963,1.190939 c 6.7042,1.249174 12.81595,0.259534 18.18874,-1.598125 5.37279,-1.857659 9.59516,-4.55077 11.79297,-6.832032 z M 185.5,79.476562 c -4.99322,0.15156 -9.75959,0.801593 -14.04883,2.28711 l 0.63839,0.987277 c 8.26132,-2.86119 18.36065,-2.386752 28.70536,-1.375949 10.34472,1.010803 20.67484,2.696225 29.01172,2.433594 l -0.0371,-1.199219 C 221.6268,82.86589 211.30767,81.195458 200.91211,80.179687 195.71433,79.671802 190.49322,79.325003 185.5,79.476562 Z m 5.16205,3.460058 -1.24603,-0.05771 c 3.02615,10.035644 7.88304,19.59981 14.66601,26.74804 6.78297,7.14823 15.51925,11.87158 26.18164,12.13672 l 0.0293,-1.19922 c -10.32587,-0.25677 -18.72826,-4.79605 -25.33985,-11.76367 -6.61158,-6.96761 -11.30666,-15.96695 -14.29107,-25.864156 z m -24.31151,1.149166 c -4.23599,2.447475 -7.6086,6.019393 -9.99898,11.240386 -1.06291,2.321599 -1.09055,4.764168 -0.30859,7.189458 0.78195,2.42528 2.35101,4.84917 4.48242,7.27734 4.26281,4.85633 10.79763,9.74581 18.05273,14.52344 14.51022,9.55526 31.94629,18.68147 39.54883,25.49414 l 0.80078,-0.89258 c -7.8807,-7.06193 -25.25592,-16.09875 -39.68945,-25.60352 -7.21676,-4.75238 -13.68632,-9.616 -17.81055,-14.31445 -2.06211,-2.34922 -3.53307,-4.65417 -4.24218,-6.85352 -0.70911,-2.199345 -0.68011,-4.27795 0.25586,-6.322261 2.29404,-5.010587 5.55586,-8.34703 9.59515,-10.680854 z m -56.52046,34.007964 c -4.74221,-0.1341 -8.91199,0.71825 -11.935549,2.97266 -0.788944,0.58824 -1.515814,1.23481 -2.364528,2.29742 l 1.136348,0.56908 c 0.818585,-1.02489 1.297739,-1.42298 1.944977,-1.90557 5.414502,-4.03713 15.748872,-3.17673 26.228512,0.1543 10.47964,3.33103 21.07898,9.0536 27.01172,14.19531 11.77794,10.20754 12.96427,31.04245 13.26563,49.32422 l 1.19922,-0.0195 c -0.30191,-18.31497 -1.32789,-39.50605 -13.67969,-50.21094 -6.13212,-5.3145 -16.79777,-11.05354 -27.43164,-14.43359 -5.31694,-1.69003 -10.6328,-2.80926 -15.375,-2.94336 z m -44.759768,2.55078 0.01172,1.20117 c 25.557201,-0.25007 39.398878,7.95128 44.533198,18.55078 5.13433,10.5995 1.64519,23.80383 -7.9746,33.82032 l 0.86718,0.83203 c 9.88507,-10.29269 13.5848,-24.0334 8.1875,-35.17578 -5.39729,-11.14239 -19.805995,-19.48115 -45.624998,-19.22852 z m 26.905208,7.59515 c -3.460656,4.81856 -8.19606,11.39264 -16.762629,19.72126 l 0.83789,0.86133 c 8.635522,-8.39565 13.632553,-15.15729 17.098196,-19.9828 z m 75.04179,33.42632 0.1462,1.21092 c 9.60657,0.17646 19.15769,3.24258 27.30914,10.5723 l 0.80078,-0.89258 c -8.38582,-7.54046 -18.37887,-10.71298 -28.22789,-10.89389 z m -5.84808,0.19732 c -8.8475,0.79777 -16.79547,3.87278 -22.88017,8.2441 -6.08469,4.37132 -10.03836,10.05774 -10.07031,16.0625 l 1.19922,0.006 c 0.0292,-5.47854 3.68829,-10.86663 9.57226,-15.09375 5.88397,-4.22711 13.76655,-7.23675 22.40387,-8.01557 z"
       id="path35910"
       inkscape:label="knot"
       sodipodi:nodetypes="ccsssccsssscccssccsssccsccsccccsssccssscccsccsccsccsccsccsccssccsccscccsssccsssscccccccssccssccccsccsccccccccccscccccsccc" /><path
       id="path36034"
       style="display:none;fill:none;stroke:#000000;stroke-width:1.2;stroke-dasharray:none"
       d="m 128.81795,186.17294 c 0.0611,-11.48332 15.22549,-22.15025 32.71032,-23.72684 m 5.31074,-0.19184 c 9.7278,0.17869 19.76549,3.31276 28.03413,10.74786 M 75.631973,148.39128 c 8.601054,-8.36214 13.646629,-15.27879 17.109782,-20.10083 m 3.217543,-4.3638 c 0.83365,-1.04375 1.576217,-1.84429 2.294309,-2.37971 11.461623,-8.54595 41.925433,3.92108 53.990303,14.3773 12.06488,10.45622 13.17081,31.46922 13.47244,49.76761 M 65.075207,121.24531 c 51.376253,-0.5027 56.503823,33.07786 36.998943,53.38706 M 77.275967,57.40946 C 89.34084,70.580281 83.509488,86.365156 65.211097,86.365156 M 129.3608,20.650196 c 0.70379,36.797864 27.84975,51.778419 35.69192,58.112473 7.84217,6.334054 9.55136,17.795682 3.61946,26.140551 -1.11495,1.56849 -2.65514,2.95287 -4.48025,4.09472 m -5.06546,2.31248 c -7.6818,2.43469 -17.41068,1.32665 -23.23053,-5.80395 -6.82982,-8.368036 -17.79568,-56.101658 -34.68651,-71.584913 m 128.5792,49.287352 C 213.309,83.728056 188.48814,76.499217 171.64832,82.331446 m -4.86235,2.200398 c -4.13764,2.390652 -7.54707,5.927764 -9.88928,11.043559 -7.99553,17.463657 46.14814,39.914607 61.6314,53.789217 M 193.37408,32.677838 c -7.41033,7.512309 -9.11727,26.351867 -4.80283,44.726947 m 1.41901,5.300906 c 6.01057,19.932869 19.30028,37.937199 40.28856,38.459109 M 166.63283,21.015336 c 0.84995,14.434606 -2.97935,33.751312 13.21463,42.958808 1.37111,0.779577 2.75572,1.431884 4.14488,1.969603 m 5.48576,1.556131 c 13.15695,2.451498 25.66161,-3.923908 29.8464,-8.267605"
       inkscape:label="knot stroke"
       inkscape:path-effect="#path-effect36038"
       inkscape:original-d="m 128.81795,186.17294 c 0.10054,-18.90163 41.12112,-35.59137 66.05519,-13.17082 M 75.631973,148.39128 c 14.477844,-14.07569 18.881675,-24.05577 22.621634,-26.84434 11.461623,-8.54595 41.925433,3.92108 53.990303,14.3773 12.06488,10.45622 13.17081,31.46922 13.47244,49.76761 M 65.075207,121.24531 c 51.376253,-0.5027 56.503823,33.07786 36.998943,53.38706 M 77.275967,57.40946 C 89.34084,70.580281 83.509488,86.365156 65.211097,86.365156 M 129.3608,20.650196 c 0.70379,36.797864 27.84975,51.778419 35.69192,58.112473 7.84217,6.334054 9.55136,17.795682 3.61946,26.140551 -5.9319,8.34487 -23.90026,11.47828 -32.77624,0.60325 -6.82982,-8.368036 -17.79568,-56.101658 -34.68651,-71.584913 m 128.5792,49.287352 c -22.68172,0.714528 -61.16454,-13.248241 -72.89194,12.366494 -7.99553,17.463657 46.14814,39.914607 61.6314,53.789217 M 193.37408,32.677838 c -16.25299,16.476657 -5.06974,87.443192 36.90474,88.486962 M 166.63283,21.015336 c 0.84995,14.434606 -2.97935,33.751312 13.21463,42.958808 16.19399,9.207497 34.27174,0.66109 39.47704,-4.741871"
       sodipodi:insensitive="true" /></g><g
     inkscape:label="Gluing"
     inkscape:groupmode="layer"
     id="layer1"><path
       sodipodi:type="star"
       style="fill:none;stroke:#0000ff;stroke-width:1.21799276;stroke-dasharray:none;stroke-linejoin:miter;stroke-linecap:butt"
       id="path381"
       inkscape:flatsided="true"
       sodipodi:sides="8"
       sodipodi:cx="93.043243"
       sodipodi:cy="72.367767"
       sodipodi:r1="108.89398"
       sodipodi:r2="100.60492"
       sodipodi:arg1="0.78539816"
       sodipodi:arg2="1.1780972"
       inkscape:rounded="0"
       inkscape:randomized="0"
       d="M 170.04292,149.36744 93.043244,181.26175 16.043571,149.36744 -15.850739,72.367768 16.04357,-4.6319055 93.043243,-36.526215 170.04292,-4.631906 201.93723,72.367767 Z"
       transform="matrix(0.75852629,0.31419188,-0.31419188,0.75852629,99.81146,19.573136)" /><path
       style="fill:none;stroke:#0000ff;stroke-width:0;stroke-linecap:butt;stroke-linejoin:miter;stroke-dasharray:none;marker-end:url(#Arrow2)"
       d="m 144.58899,186.29837 h 0.61086"
       id="path2239" /><path
       style="fill:none;stroke:#0000ff;stroke-width:0;stroke-linecap:butt;stroke-linejoin:miter;stroke-dasharray:none;marker-end:url(#Arrow2)"
       d="m 204.88172,163.2801 0.43194,-0.43194"
       id="path2363" /><path
       style="fill:none;stroke:#0000ff;stroke-width:0;stroke-linecap:butt;stroke-linejoin:miter;stroke-dasharray:none;marker-end:url(#Arrow2)"
       d="m 230.2488,100.63857 v 0.61085"
       id="path2401" /><path
       style="fill:none;stroke:#0000ff;stroke-width:0;stroke-linecap:butt;stroke-linejoin:miter;stroke-dasharray:none;marker-end:url(#Arrow2)"
       d="m 204.88171,44.11876 0.43194,0.431936"
       id="path2403" /><path
       style="fill:none;stroke:#0000ff;stroke-width:0;stroke-linecap:butt;stroke-linejoin:miter;stroke-dasharray:none;marker-end:url(#Arrow2)"
       d="m 150.71067,21.100492 -0.61084,9e-6"
       id="path2405" /><path
       style="fill:none;stroke:#0000ff;stroke-width:0;stroke-linecap:butt;stroke-linejoin:miter;stroke-dasharray:none;marker-end:url(#Arrow2)"
       d="m 65.050882,106.76024 -1e-5,-0.61084"
       id="path2407" /><path
       style="fill:none;stroke:#0000ff;stroke-width:0;stroke-linecap:butt;stroke-linejoin:miter;stroke-dasharray:none;marker-end:url(#Arrow2)"
       d="m 90.417905,44.118695 -0.43192,0.431936"
       id="path2409" /><path
       style="fill:none;stroke:#0000ff;stroke-width:0;stroke-linecap:butt;stroke-linejoin:miter;stroke-dasharray:none;marker-end:url(#Arrow2)"
       d="m 90.417977,163.28009 -0.43194,-0.43193"
       id="path2411" /><text
       xml:space="preserve"
       style="font-size:8.46667px;text-align:center;text-anchor:middle;white-space:pre;inline-size:0;fill:none;stroke:#000000;stroke-width:0;stroke-linecap:butt;stroke-linejoin:miter;stroke-dasharray:none"
       x="161.06107"
       y="197.36542"
       id="text2510"
       transform="translate(-6.7183062,-0.38748235)"><tspan
         id="tspan2508"
         style="font-size:8.46667px;text-align:center;text-anchor:middle;fill:#000000;stroke:#000000;stroke-width:0"
         x="154.34276"
         y="197.36542">$a$</tspan></text><text
       xml:space="preserve"
       style="font-size:8.46667px;fill:none;stroke:#000000;stroke-width:0;stroke-linecap:butt;stroke-linejoin:miter;stroke-dasharray:none"
       x="236.08656"
       y="104.50893"
       id="text2564"><tspan
         sodipodi:role="line"
         id="tspan2562"
         style="font-size:8.46667px;text-align:center;text-anchor:middle;fill:#000000;stroke:#000000;stroke-width:0"
         x="236.08656"
         y="104.50893">$a$</tspan></text><text
       xml:space="preserve"
       style="font-size:8.46667px;fill:none;stroke:#000000;stroke-width:0;stroke-linecap:butt;stroke-linejoin:miter;stroke-dasharray:none"
       x="212.258"
       y="170.41418"
       id="text2568"><tspan
         sodipodi:role="line"
         id="tspan2566"
         style="font-size:8.46667px;text-align:center;text-anchor:middle;fill:#000000;stroke:#000000;stroke-width:0"
         x="212.258"
         y="170.41418">$b$</tspan></text><text
       xml:space="preserve"
       style="font-size:8.46667px;fill:none;stroke:#000000;stroke-width:0;stroke-linecap:butt;stroke-linejoin:miter;stroke-dasharray:none"
       x="212.258"
       y="40.110184"
       id="text2572"><tspan
         sodipodi:role="line"
         id="tspan2570"
         style="font-size:8.46667px;text-align:center;text-anchor:middle;fill:#000000;stroke:#000000;stroke-width:0"
         x="212.258"
         y="40.110184">$b$</tspan></text><text
       xml:space="preserve"
       style="font-size:8.46667px;fill:none;stroke:#000000;stroke-width:0;stroke-linecap:butt;stroke-linejoin:miter;stroke-dasharray:none"
       x="146.86743"
       y="15.076017"
       id="text2576"><tspan
         sodipodi:role="line"
         id="tspan2574"
         style="font-size:8.46667px;text-align:center;text-anchor:middle;fill:#000000;stroke:#000000;stroke-width:0"
         x="146.86743"
         y="15.076017">$c$</tspan></text><text
       xml:space="preserve"
       style="font-size:8.46667px;fill:none;stroke:#000000;stroke-width:0;stroke-linecap:butt;stroke-linejoin:miter;stroke-dasharray:none"
       x="55.850094"
       y="104.07634"
       id="text2685"><tspan
         sodipodi:role="line"
         id="tspan2683"
         style="font-size:8.46667px;text-align:center;text-anchor:middle;fill:#000000;stroke:#000000;stroke-width:0"
         x="55.850094"
         y="104.07634">$c$</tspan></text><text
       xml:space="preserve"
       style="font-size:8.46667px;fill:none;stroke:#000000;stroke-width:0;stroke-linecap:butt;stroke-linejoin:miter;stroke-dasharray:none"
       x="82.576935"
       y="40.110184"
       id="text2689"><tspan
         sodipodi:role="line"
         id="tspan2687"
         style="font-size:8.46667px;text-align:center;text-anchor:middle;fill:#000000;stroke:#000000;stroke-width:0"
         x="82.576935"
         y="40.110184">$d$</tspan></text><text
       xml:space="preserve"
       style="font-size:8.46667px;fill:none;stroke:#000000;stroke-width:0;stroke-linecap:butt;stroke-linejoin:miter;stroke-dasharray:none"
       x="77.693878"
       y="170.41418"
       id="text2693"><tspan
         sodipodi:role="line"
         id="tspan2691"
         style="font-size:8.46667px;text-align:center;text-anchor:middle;fill:#000000;stroke:#000000;stroke-width:0"
         x="77.693878"
         y="170.41418">$d$</tspan></text></g></svg>
