<?xml version="1.0" encoding="UTF-8" standalone="no"?>
<!-- Created with Inkscape (http://www.inkscape.org/) -->

<svg
   width="297mm"
   height="210mm"
   viewBox="0 0 297 210"
   version="1.1"
   id="svg5"
   inkscape:version="1.2.2 (b0a8486541, 2022-12-01)"
   sodipodi:docname="connected_sum.svg"
   inkscape:export-filename="connected_sum.pdf"
   inkscape:export-xdpi="96"
   inkscape:export-ydpi="96"
   xmlns:inkscape="http://www.inkscape.org/namespaces/inkscape"
   xmlns:sodipodi="http://sodipodi.sourceforge.net/DTD/sodipodi-0.dtd"
   xmlns="http://www.w3.org/2000/svg"
   xmlns:svg="http://www.w3.org/2000/svg">
  <sodipodi:namedview
     id="namedview7"
     pagecolor="#ffffff"
     bordercolor="#666666"
     borderopacity="1.0"
     inkscape:showpageshadow="2"
     inkscape:pageopacity="0.0"
     inkscape:pagecheckerboard="true"
     inkscape:deskcolor="#d1d1d1"
     inkscape:document-units="mm"
     showgrid="false"
     inkscape:zoom="1.3558782"
     inkscape:cx="599.98014"
     inkscape:cy="479.02532"
     inkscape:window-width="1920"
     inkscape:window-height="1080"
     inkscape:window-x="0"
     inkscape:window-y="0"
     inkscape:window-maximized="1"
     inkscape:current-layer="layer1"
     showguides="true">
    <sodipodi:guide
       position="35.710251,59.183123"
       orientation="0,-1"
       id="guide1717"
       inkscape:locked="false" />
  </sodipodi:namedview>
  <defs
     id="defs2">
    <inkscape:path-effect
       effect="knot"
       id="path-effect2076"
       is_visible="true"
       lpeversion="1"
       switcher_size="15"
       interruption_width="4.4"
       prop_to_stroke_width="true"
       add_stroke_width="inkscape_1.0_and_up"
       both="false"
       inverse_width="false"
       add_other_stroke_width="inkscape_1.0_and_up"
       crossing_points_vector="128.30095 | 93.364862 | 0 | 0 | 0 | 5 | 0.68141436 | 4.2028325 | -1 | 128.99771 | 118.6051 | 0 | 0 | 1 | 6 | 1.1790629 | 5.5163764 | -1 | 93.110167 | 129.46907 | 0 | 0 | 2 | 9 | 2.498027 | 8.4970032 | 1 | 104.83022 | 102.92159 | 0 | 0 | 4 | 7 | 3.4762663 | 6.2424658 | -1 | 95.904027 | 110.87245 | 0 | 0 | 3 | 10 | 3.1711333 | 9.6637341 | 1 | 92.10262 | 96.996863 | 0 | 0 | 8 | 11 | 6.6307915 | 10.108713 | 1" />
    <inkscape:path-effect
       effect="knot"
       id="path-effect2072"
       is_visible="true"
       lpeversion="1"
       switcher_size="15"
       interruption_width="4.4"
       prop_to_stroke_width="true"
       add_stroke_width="inkscape_1.0_and_up"
       both="false"
       inverse_width="false"
       add_other_stroke_width="inkscape_1.0_and_up"
       crossing_points_vector="49.187452 | 104.14251 | 0 | 0 | 0 | 3 | 0.75015888 | 3.2648137 | -1 | 16.542529 | 104.30583 | 0 | 0 | 1 | 4 | 1.2602871 | 4.7365893 | -1 | 33.316228 | 133.11903 | 0 | 0 | 2 | 5 | 2.72805 | 5.2850717 | -1" />
    <inkscape:path-effect
       effect="knot"
       id="path-effect1930"
       is_visible="true"
       lpeversion="1"
       switcher_size="15"
       interruption_width="4.4"
       prop_to_stroke_width="true"
       add_stroke_width="inkscape_1.0_and_up"
       both="false"
       inverse_width="false"
       add_other_stroke_width="inkscape_1.0_and_up"
       crossing_points_vector="128.30095 | 93.364862 | 0 | 0 | 0 | 5 | 0.68141436 | 4.2028325 | -1 | 128.99771 | 118.6051 | 0 | 0 | 1 | 6 | 1.1790629 | 5.5163764 | -1 | 93.110167 | 129.46907 | 0 | 0 | 2 | 9 | 2.498027 | 8.4970032 | 1 | 104.83022 | 102.92159 | 0 | 0 | 4 | 7 | 3.4762663 | 6.2424658 | -1 | 95.904027 | 110.87245 | 0 | 0 | 3 | 10 | 3.1711333 | 9.6637341 | 1 | 92.10262 | 96.996863 | 0 | 0 | 8 | 11 | 6.6307915 | 10.108713 | 1" />
    <inkscape:path-effect
       effect="knot"
       id="path-effect1727"
       is_visible="true"
       lpeversion="1"
       switcher_size="15"
       interruption_width="4.4"
       prop_to_stroke_width="true"
       add_stroke_width="inkscape_1.0_and_up"
       both="false"
       inverse_width="false"
       add_other_stroke_width="inkscape_1.0_and_up"
       crossing_points_vector="49.187452 | 104.14251 | 0 | 0 | 0 | 3 | 0.75015888 | 3.2648137 | -1 | 16.542529 | 104.30583 | 0 | 0 | 1 | 4 | 1.2602871 | 4.7365893 | -1 | 33.316228 | 133.11903 | 0 | 0 | 2 | 5 | 2.72805 | 5.2850717 | -1" />
  </defs>
  <g
     inkscape:label="Layer 1"
     inkscape:groupmode="layer"
     id="layer1">
    <path
       style="display:none;fill:none;stroke:#d45500;stroke-width:2.7;stroke-linecap:butt;stroke-linejoin:miter;stroke-dasharray:none;stroke-opacity:1"
       d="m 112.3342,79.895702 c 10.09485,1.107943 18.63644,9.038675 17.70462,29.166028 -0.93183,20.12735 -7.67226,26.55137 -17.05234,27.86148 -20.627624,2.88107 -25.33543,-15.92693 -21.431925,-20.966 7.904767,-10.20432 19.349185,-18.943242 30.377405,-21.152353 11.02821,-2.209109 19.70668,-7.154841 19.84782,14.163703 0.14114,21.31853 -22.43595,5.36455 -30.16568,-1.18489 -7.72975,-6.54944 -23.600472,-14.842457 -28.352767,-10.18335 -4.752289,4.65912 -9.504583,12.95232 -2.609098,22.5501 6.895487,9.59777 19.722775,14.05933 20.406915,3.72729 0.68411,-10.33205 -6.244558,-9.13099 -8.665956,-22.64328 C 89.971786,87.722126 102.23935,78.787759 112.3342,79.895702 Z"
       id="path414"
       sodipodi:nodetypes="zzsszzzzzzzz"
       inkscape:label="6_3 thick"
       sodipodi:insensitive="true" />
    <path
       style="display:none;fill:none;stroke:#ff0000;stroke-width:0.675315;stroke-linecap:butt;stroke-linejoin:miter;stroke-dasharray:none;stroke-opacity:1"
       d="m 112.3342,79.895702 c 10.09485,1.107943 18.63644,9.038675 17.70462,29.166028 -0.93183,20.12735 -7.67226,26.55137 -17.05234,27.86148 -20.627624,2.88107 -25.33543,-15.92693 -21.431925,-20.966 7.904767,-10.20432 19.349185,-18.943242 30.377405,-21.152353 11.02821,-2.209109 19.70668,-7.154841 19.84782,14.163703 0.14114,21.31853 -22.43595,5.36455 -30.16568,-1.18489 -7.72975,-6.54944 -23.600472,-14.842457 -28.352767,-10.18335 -4.752289,4.65912 -9.504583,12.95232 -2.609098,22.5501 6.895487,9.59777 19.722775,14.05933 20.406915,3.72729 0.68411,-10.33205 -6.244558,-9.13099 -8.665956,-22.64328 C 89.971786,87.722126 102.23935,78.787759 112.3342,79.895702 Z"
       id="path1863"
       sodipodi:nodetypes="zzsszzzzzzzz"
       inkscape:label="6_3 thin"
       sodipodi:insensitive="true" />
    <path
       style="color:#000000;fill:#000000;-inkscape-stroke:none"
       d="m 109.0293,79.539062 c -7.87041,0.72812 -15.913971,6.791308 -17.126956,15.908204 l 0.669223,0.20375 C 93.904663,85.631351 103.9049,79.309422 112.29688,80.230469 c 4.97083,0.545565 9.52445,2.754279 12.74804,7.310547 3.22359,4.556268 5.11986,11.491851 4.65625,21.505864 -0.13731,2.96575 -0.39999,5.62912 -0.7793,8.01953 l 0.62947,0.28015 c 0.38388,-2.41925 0.68732,-5.28144 0.82561,-8.26843 0.46821,-10.11333 -1.44134,-17.207874 -4.77929,-21.925786 -3.33796,-4.717913 -8.10256,-7.029421 -13.22657,-7.591797 -1.09686,-0.120384 -2.21745,-0.125502 -3.34179,-0.02148 z m 25.61718,12.896485 c -1.50446,-0.194155 -3.42056,0.02407 -5.19823,0.350253 l 0.27969,0.620689 c 1.74464,-0.320124 3.43902,-0.480614 4.83065,-0.30102 1.39164,0.179594 2.57733,0.682196 3.57618,1.699218 1.99769,2.034046 3.25419,6.244443 3.30664,14.166013 0.0349,5.27031 -1.32117,8.12389 -3.40821,9.44141 -2.08704,1.31752 -5.03129,1.14983 -8.28125,0.0937 -6.49991,-2.11216 -14.07559,-7.72315 -17.91992,-10.98047 -1.55393,-1.31666 -3.42738,-2.69696 -5.47265,-4.03125 l -0.6439,0.38642 c 2.02467,1.32085 4.15364,2.86632 5.681,4.16046 3.8854,3.29211 11.46268,8.93487 18.14844,11.10742 3.34288,1.08627 6.49964,1.31821 8.84766,-0.16406 2.34802,-1.48228 3.76029,-4.62864 3.72461,-10.01758 -0.0529,-7.99023 -1.27951,-12.37583 -3.5,-14.636722 -1.11025,-1.130446 -2.46624,-1.700376 -3.97071,-1.894531 z m -7.8789,0.929687 c -1.56955,0.365237 -3.21088,0.770549 -4.90235,1.109375 -8.8098,1.76473 -17.82231,7.622741 -25.138668,15.056641 l 0.346922,0.62104 c 7.246026,-7.36244 16.310736,-13.290098 24.924566,-15.015571 1.7105,-0.34264 3.36039,-0.749467 4.92383,-1.113282 z m -40.025393,2.556641 c -1.502074,0.09269 -2.794338,0.53313 -3.716796,1.4375 -2.407481,2.360281 -4.824891,5.644385 -5.765625,9.585935 -0.940734,3.94156 -0.376935,8.53618 3.11914,13.40235 2.839552,3.95234 7.604977,7.84055 11.459938,9.0857 l -0.817286,-1.05548 c -3.482567,-1.52494 -7.326862,-4.57073 -10.095777,-8.42475 -3.399403,-4.73161 -3.907425,-9.08231 -3.007812,-12.85157 0.899612,-3.76926 3.235274,-6.96093 5.580078,-9.259763 0.775477,-0.76027 1.889581,-1.159975 3.285156,-1.246094 1.395575,-0.08612 3.059471,0.147203 4.865234,0.626953 3.611528,0.959501 7.82773,2.914044 11.670193,5.170724 l 0.62815,-0.38802 c -3.88067,-2.279114 -8.419725,-4.450769 -12.124514,-5.435048 -1.852395,-0.492139 -3.578004,-0.741128 -5.080079,-0.648437 z m 5.69336,2.603516 -0.69231,-0.285728 c 0.03457,0.892109 0.149676,2.119797 0.31731,3.055257 1.220867,6.81289 3.610515,9.97647 5.55664,12.65235 1.946126,2.67587 3.442613,4.8163 3.105473,9.9082 -0.13986,2.11216 -0.792738,3.53287 -1.763676,4.41601 -0.970938,0.88315 -2.754531,1.35064 -4.296682,1.14068 l 0.917676,0.73429 c 1.682235,-0.0974 2.706904,-0.34971 3.834087,-1.37497 1.127185,-1.02525 1.834655,-2.63952 1.982415,-4.87109 0.34697,-5.24014 -1.27989,-7.66493 -3.232415,-10.34961 -1.952526,-2.68467 -4.238925,-5.67561 -5.439453,-12.375 -0.162254,-0.90544 -0.255723,-1.790034 -0.289062,-2.650389 z m 2.333013,13.064949 c -1.162618,1.28983 -2.433337,2.80664 -3.481451,4.15966 -1.058272,1.36613 -1.487383,3.55879 -1.267578,6.04297 0.219805,2.48417 1.103525,5.26775 2.769531,7.80273 3.332014,5.06997 9.827158,9.11706 20.244138,7.66211 3.74844,-0.52354 7.11766,-1.86484 9.85938,-4.55469 2.74171,-2.68984 4.88154,-6.8532 6.17135,-12.69802 l -0.62863,-0.28642 c -1.27058,5.75765 -3.39048,9.92874 -6.01538,12.50398 -2.62489,2.57523 -5.83281,3.85576 -9.48047,4.36523 -10.21062,1.42612 -16.383021,-2.48975 -19.585934,-7.36328 -1.601457,-2.43676 -2.452449,-5.12071 -2.66211,-7.49023 -0.20966,-2.36953 0.237382,-4.41692 1.13086,-5.57032 1.037698,-1.33957 2.135633,-2.65417 3.287109,-3.93164 z"
       id="path1865"
       sodipodi:nodetypes="sccsssccssssscccsssscsccssssscccsccsccssssccsssssccssccssssccsssssccsssssccssssscc" />
    <text
       xml:space="preserve"
       style="font-style:normal;font-weight:normal;font-size:10.5833px;line-height:1.25;font-family:sans-serif;fill:#000000;fill-opacity:1;stroke:none;stroke-width:0.264583"
       x="107.69039"
       y="149.14471"
       id="text1711"
       inkscape:label="K2"><tspan
         sodipodi:role="line"
         id="tspan1709"
         style="text-align:center;text-anchor:middle;stroke-width:0.264583"
         x="107.69039"
         y="149.14471">$K_{2}$</tspan></text>
    <path
       style="display:none;fill:none;stroke:#d45500;stroke-width:2.7;stroke-linecap:butt;stroke-linejoin:miter;stroke-dasharray:none;stroke-opacity:1"
       d="M 64.019042,130.61864 C 69.638884,119.18181 57.85769,101.20395 33.171037,101.09586 8.4843886,100.98783 -3.5540393,119.20232 1.4571111,131.37266 6.4682602,143.54299 34.531564,140.95621 44.852733,120.06449 55.173904,99.172788 45.668761,79.9435 32.825603,79.904903 19.982447,79.866301 10.352894,99.429216 21.11856,120.02977 c 10.765664,20.60058 37.280639,22.0257 42.900482,10.58887 z"
       id="path1719"
       sodipodi:nodetypes="zzzzzzz"
       inkscape:label="trefoil thick"
       sodipodi:insensitive="true" />
    <path
       style="display:none;fill:none;stroke:#ff0000;stroke-width:0.675;stroke-linecap:butt;stroke-linejoin:miter;stroke-dasharray:none;stroke-opacity:1"
       d="M 64.019042,130.61864 C 69.638884,119.18181 57.85769,101.20395 33.171037,101.09586 8.4843886,100.98783 -3.5540393,119.20232 1.4571111,131.37266 6.4682602,143.54299 34.531564,140.95621 44.852733,120.06449 55.173904,99.172788 45.668761,79.9435 32.825603,79.904903 19.982447,79.866301 10.352894,99.429216 21.11856,120.02977 c 10.765664,20.60058 37.280639,22.0257 42.900482,10.58887 z"
       id="path1722"
       sodipodi:nodetypes="zzzzzzz"
       inkscape:label="trefoil thin"
       sodipodi:insensitive="true" />
    <path
       style="color:#000000;fill:#000000;-inkscape-stroke:none"
       d="m 32.826172,79.566406 c -4.66825,-0.01403 -8.914396,2.500067 -11.94336,6.644531 -3.028963,4.144465 -4.858492,10.2949 -4.743754,16.879153 l 0.676127,-0.33586 c -0.112436,-6.452168 1.685737,-12.137469 4.614502,-16.144835 2.928766,-4.007366 6.96941,-6.380488 11.394532,-6.367188 6.253307,0.01879 11.728317,4.710272 14.384765,12.03711 2.656449,7.326837 2.465924,17.262713 -2.658203,27.634763 -2.507824,5.07624 -6.304238,9.23098 -10.331063,12.17603 l 0.695579,0.32123 c 4.107773,-3.00425 7.682693,-7.01815 10.240953,-12.19648 5.197034,-10.51962 5.414115,-20.645646 2.6875,-28.166012 C 45.117135,84.528462 39.41601,79.58621 32.826172,79.566406 Z m 0.345703,21.191404 c -12.426594,-0.0544 -21.707155,4.50761 -27.2460938,10.64649 -5.53893844,6.13887 -7.3456461,13.86963 -4.78125,20.09765 1.8168972,4.41261 6.5427838,6.91615 12.2832028,7.41211 5.74042,0.49596 12.855365,-1.15901 18.971139,-4.78481 l -0.664498,-0.41831 c -5.996623,3.55516 -12.669394,5.01128 -18.248047,4.52929 -5.5786527,-0.48198 -10.0227835,-2.88192 -11.7167968,-6.99609 -2.44674917,-5.9423 -0.7409358,-13.40474 4.6582032,-19.38867 5.3991386,-5.98394 14.4821576,-10.47553 26.7421876,-10.42188 5.476664,0.024 10.525214,1.01434 14.662027,2.53476 l 0.05202,-0.70628 c -4.214762,-1.54907 -9.16242,-2.47996 -14.712091,-2.50426 z m 17.335331,3.58938 -0.04968,0.73384 c 12.28941,5.82596 17.215864,17.33769 13.259275,25.38967 -2.714774,5.52479 -10.579864,8.02018 -19.160156,6.53516 -8.580293,-1.48502 -17.807068,-6.93055 -23.138672,-17.13281 -2.521033,-4.8241 -3.941662,-9.92249 -4.432142,-14.37998 l -0.651344,0.30273 c 0.499953,4.54358 1.925608,9.49438 4.483876,14.38973 5.434049,10.39829 14.849493,15.96785 23.623047,17.48632 8.773554,1.51848 16.975797,-0.99226 19.88086,-6.90429 4.164894,-8.4759 -0.918205,-20.30264 -13.456384,-26.24653 z"
       id="path848"
       sodipodi:nodetypes="ssccssssccsssssssccssscccsccsssccssscc" />
    <text
       xml:space="preserve"
       style="font-style:normal;font-weight:normal;font-size:10.5833px;line-height:1.25;font-family:sans-serif;fill:#000000;fill-opacity:1;stroke:none;stroke-width:0.264583;text-anchor:middle;text-align:center"
       x="34.479877"
       y="149.14471"
       id="text1657"
       inkscape:label="K1"><tspan
         sodipodi:role="line"
         id="tspan1655"
         style="stroke-width:0.264583;text-anchor:middle;text-align:center"
         x="16.37715"
         y="149.14471">$K_{1}$</tspan></text>
    <path
       style="display:none;fill:none;stroke:#d45500;stroke-width:2.7;stroke-linecap:butt;stroke-linejoin:miter;stroke-dasharray:none;stroke-opacity:1"
       d="m 217.49607,130.61887 c 5.61984,-11.43683 -6.16135,-29.41469 -30.848,-29.52278 -24.68665,-0.10803 -36.72508,18.10646 -31.71393,30.2768 5.01115,12.17033 33.07445,9.58355 43.39562,-11.30817 10.32117,-20.891698 0.81603,-40.120986 -12.02713,-40.159583 -12.84315,-0.0386 -22.47271,19.524313 -11.70704,40.124863 10.76566,20.60058 37.28064,22.0257 42.90048,10.58887 z"
       id="path2058"
       sodipodi:nodetypes="zzzzzzz"
       inkscape:label="trefoil thick"
       sodipodi:insensitive="true" />
    <path
       style="display:none;fill:none;stroke:#ff0000;stroke-width:0.675;stroke-linecap:butt;stroke-linejoin:miter;stroke-dasharray:none;stroke-opacity:1"
       d="m 217.49607,130.61887 c 5.61984,-11.43683 -6.16135,-29.41469 -30.848,-29.52278 -24.68665,-0.10803 -36.72508,18.10646 -31.71393,30.2768 5.01115,12.17033 33.07445,9.58355 43.39562,-11.30817 10.32117,-20.891698 0.81603,-40.120986 -12.02713,-40.159583 -12.84315,-0.0386 -22.47271,19.524313 -11.70704,40.124863 10.76566,20.60058 37.28064,22.0257 42.90048,10.58887 z"
       id="path2060"
       sodipodi:nodetypes="zzzzzzz"
       inkscape:label="trefoil thin"
       sodipodi:insensitive="true" />
    <path
       style="display:none;fill:none;stroke:#d45500;stroke-width:2.7;stroke-linecap:butt;stroke-linejoin:miter;stroke-dasharray:none;stroke-opacity:1"
       d="m 265.81123,79.895936 c 10.09485,1.107943 18.63644,9.038675 17.70462,29.166024 -0.93183,20.12735 -7.67226,26.55137 -17.05234,27.86148 -20.62762,2.88107 -25.33543,-15.92693 -21.43192,-20.966 7.90476,-10.20432 19.34918,-18.943238 30.3774,-21.152349 11.02821,-2.209109 19.70668,-7.154841 19.84782,14.163699 0.14114,21.31853 -22.43595,5.36455 -30.16568,-1.18489 -7.72975,-6.54944 -23.60047,-14.842453 -28.35277,-10.183346 -4.75229,4.659116 -9.50458,12.952316 -2.60909,22.550096 6.89548,9.59777 19.72277,14.05933 20.40691,3.72729 0.68411,-10.33205 -6.24456,-9.13099 -8.66596,-22.64328 -2.4214,-13.5123 9.84616,-22.446667 19.94101,-21.338724 z"
       id="path2064"
       sodipodi:nodetypes="zzsszzzzzzzz"
       inkscape:label="6_3 thick"
       sodipodi:insensitive="true" />
    <path
       style="display:none;fill:none;stroke:#ff0000;stroke-width:0.675315;stroke-linecap:butt;stroke-linejoin:miter;stroke-dasharray:none;stroke-opacity:1"
       d="m 265.81123,79.895936 c 10.09485,1.107943 18.63644,9.038675 17.70462,29.166024 -0.93183,20.12735 -7.67226,26.55137 -17.05234,27.86148 -20.62762,2.88107 -25.33543,-15.92693 -21.43192,-20.966 7.90476,-10.20432 19.34918,-18.943238 30.3774,-21.152349 11.02821,-2.209109 19.70668,-7.154841 19.84782,14.163699 0.14114,21.31853 -22.43595,5.36455 -30.16568,-1.18489 -7.72975,-6.54944 -23.60047,-14.842453 -28.35277,-10.183346 -4.75229,4.659116 -9.50458,12.952316 -2.60909,22.550096 6.89548,9.59777 19.72277,14.05933 20.40691,3.72729 0.68411,-10.33205 -6.24456,-9.13099 -8.66596,-22.64328 -2.4214,-13.5123 9.84616,-22.446667 19.94101,-21.338724 z"
       id="path2066"
       sodipodi:nodetypes="zzsszzzzzzzz"
       inkscape:label="6_3 thin"
       sodipodi:insensitive="true" />
    <path
       style="color:#000000;fill:#000000;-inkscape-stroke:none"
       d="m 265.84766,79.560547 c -2.58,-0.283164 -5.28765,0.076 -7.86329,0.984375 h -0.002 -0.002 c -2.54298,0.933648 -5.17939,2.233666 -7.05081,4.423729 -0.2332,0.272914 -1.01029,1.18914 -1.34177,1.638771 -16.16702,-8.803571 -36.13246,-8.637407 -51.03516,0.0957 -0.97643,-1.410314 -2.06404,-2.676904 -3.2832,-3.703125 -1.29414,-1.089351 -2.71088,-1.944618 -4.2168,-2.529297 -1.50592,-0.58468 -3.10253,-0.897392 -4.75,-0.902344 -6.59326,-0.01982 -12.32343,4.986383 -15.02539,12.544922 -2.70195,7.558539 -2.40276,17.696492 3.01953,28.072272 2.80001,5.35793 6.65809,9.43654 10.93946,12.33593 l 0.61931,-0.38646 c -4.19402,-2.84024 -8.21389,-7.00505 -10.96111,-12.26197 -5.34337,-10.22476 -5.61266,-20.167866 -2.98047,-27.531256 2.63219,-7.36339 8.13685,-12.118393 14.38672,-12.09961 1.56333,0.0047 3.07598,0.301505 4.50781,0.857422 1.43184,0.555916 2.78364,1.372716 4.02539,2.417969 1.24177,1.045253 2.373,2.31941 3.35938,3.791016 l 0.17773,0.265625 0.27539,-0.164063 c 14.78102,-8.787009 34.79144,-8.967261 50.88086,-0.08789 l 0.26368,0.146484 0.17578,-0.246094 c 0.18114,-0.254932 1.2892,-1.595321 1.47653,-1.814552 1.74516,-2.042307 4.26739,-3.308911 6.76565,-4.226463 l 0.004,-0.002 c 2.48682,-0.876416 5.09448,-1.217925 7.56055,-0.947265 4.97083,0.545566 9.52641,2.752326 12.75,7.308594 3.22359,4.556267 5.1179,11.491853 4.65429,21.505863 -0.1373,2.96575 -0.39999,5.62912 -0.77929,8.01953 l 0.62932,0.28413 c 0.38388,-2.41925 0.68746,-5.28542 0.82576,-8.27241 0.4682,-10.113327 -1.44135,-17.207873 -4.7793,-21.925785 -3.33796,-4.717912 -8.10256,-7.029421 -13.22656,-7.591797 z m -41.40625,5.521484 c -7.73229,2.45e-4 -15.68597,2.24529 -23.60743,6.791016 l -0.24609,0.140625 0.0977,0.265625 c 0.66411,1.831709 1.15009,3.827176 1.42578,5.951172 0.18008,1.38772 0.27063,2.830001 0.26172,4.318361 l 0.6787,0.284 c 0.009,-1.51831 -0.0864,-3.269842 -0.2705,-4.688199 -0.26816,-2.065955 -0.75898,-3.994799 -1.39063,-5.798828 15.52081,-8.821946 30.99708,-8.706347 44.76758,-0.128906 -0.34756,1.031876 -0.62906,2.101289 -0.77929,3.230469 l 0.65212,0.208072 c 0.15722,-1.181688 0.45202,-2.427757 0.83225,-3.497138 l 0.0898,-0.255859 -0.22851,-0.144532 C 239.6852,87.3249 232.1737,85.081883 224.44141,85.082128 Z m 63.68164,7.353516 c -1.50447,-0.194156 -3.37823,0.01161 -5.1559,0.337788 l 0.33949,0.629009 c 1.74464,-0.320124 3.33884,-0.476469 4.73047,-0.296875 1.39163,0.179594 2.57732,0.682196 3.57617,1.699218 1.9977,2.034046 3.2542,6.244443 3.30664,14.166013 0.0349,5.27031 -1.32312,8.12389 -3.41015,9.44141 -2.08704,1.31752 -5.02934,1.14983 -8.2793,0.0937 -6.49992,-2.11216 -14.07755,-7.72315 -17.92188,-10.98047 -1.55393,-1.31666 -3.47725,-2.75535 -5.52252,-4.08963 l -0.62069,0.40504 c 2.02466,1.32084 4.18031,2.90608 5.70767,4.20022 3.88539,3.29211 11.46267,8.93487 18.14843,11.10742 3.34289,1.08627 6.50159,1.31821 8.84961,-0.16406 2.34802,-1.48228 3.75834,-4.62864 3.72266,-10.01758 -0.0529,-7.99022 -1.27951,-12.37583 -3.5,-14.636722 -1.11024,-1.130446 -2.46624,-1.700376 -3.9707,-1.894531 z m -7.87891,0.929687 c -1.56954,0.365237 -3.21087,0.770549 -4.90234,1.109375 -8.8098,1.76473 -17.82233,7.622741 -25.13868,15.056641 l 0.41299,0.54414 c 7.24601,-7.36244 16.24468,-13.213198 24.8585,-14.938671 1.71051,-0.34264 3.46098,-0.784876 5.02441,-1.148691 z m -40.02539,2.556641 c -1.50207,0.09269 -2.79434,0.53313 -3.7168,1.4375 -2.40748,2.360279 -4.82294,5.644385 -5.76367,9.585935 -0.94073,3.94156 -0.37889,8.53618 3.11719,13.40235 2.83954,3.95234 7.63017,7.86785 11.5392,9.11479 l -0.99037,-1.10893 c -3.48257,-1.52494 -7.23109,-4.54637 -10,-8.40039 -3.39941,-4.73161 -3.90938,-9.08231 -3.00977,-12.85157 0.89961,-3.76926 3.23527,-6.96093 5.58008,-9.259763 0.77548,-0.760271 1.89153,-1.158022 3.28711,-1.244141 1.39557,-0.08612 3.05752,0.14525 4.86328,0.625 3.61153,0.959501 7.74112,2.872134 11.58359,5.128804 l 0.52196,-0.49382 c -3.88067,-2.279117 -8.22693,-4.30305 -11.93172,-5.287328 -1.8524,-0.492138 -3.57801,-0.741128 -5.08008,-0.648437 z m 5.69336,2.603516 -0.69381,-0.301661 c 0.0345,0.892137 0.15118,2.13576 0.31881,3.07119 1.22087,6.81289 3.61051,9.97647 5.55664,12.65235 1.94613,2.67587 3.44262,4.8163 3.10547,9.9082 -0.13986,2.11216 -0.79274,3.53287 -1.76367,4.41601 -0.97094,0.88315 -2.81591,1.43081 -4.33741,1.10319 l 0.69876,0.76343 c 1.685,-0.0121 2.96659,-0.34136 4.09377,-1.36662 1.12719,-1.02525 1.83466,-2.63952 1.98243,-4.87109 0.34696,-5.24014 -1.2799,-7.66493 -3.23243,-10.34961 -1.95252,-2.68467 -4.23697,-5.67561 -5.4375,-12.375 -0.16225,-0.90544 -0.25773,-1.790067 -0.29101,-2.650392 z m -59.26172,2.232419 c -5.8077,-0.0254 -10.92822,0.95792 -15.30078,2.63867 l -0.0211,0.71388 c 4.28999,-1.64902 9.58806,-2.7018 15.31792,-2.67677 12.26159,0.0537 21.28138,4.54189 26.53907,10.40039 5.25768,5.85851 6.74566,13.06498 4.00781,18.63672 -1.86361,3.79261 -6.13471,6.15861 -11.42774,6.78907 -5.29302,0.63045 -11.65784,-0.53894 -17.44607,-3.66318 l -0.57494,0.45551 c 5.8553,3.28773 12.65316,4.52649 18.10109,3.87759 5.44793,-0.64891 9.95889,-3.10367 11.95313,-7.16211 2.88199,-5.86508 1.28827,-13.36813 -4.11133,-19.38477 -5.3996,-6.01664 -14.61207,-10.57059 -27.03711,-10.625 z m -17.97337,3.76977 c -12.25519,6.05885 -17.70792,18.10493 -14.05593,26.97437 1.29664,3.14907 4.08689,5.33314 7.65235,6.49805 3.56546,1.16491 7.91774,1.32693 12.43164,0.44922 9.02779,-1.75543 18.71577,-7.68453 23.92773,-18.23438 1.29926,-2.6299 2.28754,-5.23518 2.9961,-7.78125 0.6368,-2.28817 1.04736,-4.52984 1.25586,-6.69726 l -0.63487,-0.3848 c -0.20464,2.12735 -0.64498,4.64967 -1.27138,6.90047 -0.69699,2.50449 -1.67014,5.07106 -2.95118,7.66407 -5.1092,10.34185 -14.61425,16.15083 -23.45117,17.86914 -4.41846,0.85915 -8.66543,0.69237 -12.09375,-0.42774 -3.42832,-1.1201 -6.02739,-3.17719 -7.23633,-6.11328 -3.48445,-8.46254 1.46983,-20.02591 13.47852,-25.96289 z m 79.57197,7.03777 c -1.16262,1.28983 -2.43526,2.83164 -3.48337,4.18465 -1.05827,1.36613 -1.48933,3.56075 -1.26953,6.04492 0.21981,2.48418 1.10353,5.2658 2.76953,7.80078 3.33202,5.06997 9.82717,9.11706 20.24415,7.66211 3.74843,-0.52354 7.11766,-1.86484 9.85937,-4.55469 2.74171,-2.68984 4.87841,-6.82252 6.16823,-12.66734 l -0.64192,-0.29384 c -1.27058,5.75765 -3.37407,9.90548 -5.99897,12.48072 -2.62489,2.57523 -5.83281,3.85772 -9.48046,4.36718 -10.21063,1.42613 -16.38303,-2.4917 -19.58594,-7.36523 -1.60146,-2.43676 -2.4505,-5.12071 -2.66016,-7.49023 -0.20966,-2.36953 0.23543,-4.41692 1.12891,-5.57032 1.03769,-1.33956 2.21742,-2.73268 3.3689,-4.01015 z"
       id="path2068"
       sodipodi:nodetypes="ccccsccsssssccsssssccccccsccsssccssccccccsccscccccccccsccsssscsccssssssscsccsccssssccsssssccssccssssccssssccccccsssccssssccssssccsssssccccsssscccssssccc" />
    <text
       xml:space="preserve"
       style="font-style:normal;font-weight:normal;font-size:10.5833px;line-height:1.25;font-family:sans-serif;fill:#000000;fill-opacity:1;stroke:none;stroke-width:0.264583"
       x="211.64102"
       y="149.14471"
       id="text1715"
       inkscape:label="K1#K2"><tspan
         sodipodi:role="line"
         id="tspan1713"
         style="text-align:center;text-anchor:middle;stroke-width:0.264583"
         x="211.64102"
         y="149.14471">$K_{1} \hash K_{2}$</tspan></text>
  </g>
</svg>
