<?xml version="1.0" encoding="UTF-8" standalone="no"?>
<!-- Created with Inkscape (http://www.inkscape.org/) -->

<svg
   width="297mm"
   height="210mm"
   viewBox="0 0 297 210"
   version="1.1"
   id="svg5"
   inkscape:version="1.2.2 (b0a8486541, 2022-12-01)"
   sodipodi:docname="mutation_whitney_flip.svg"
   inkscape:export-filename="mutation_whitney_flip.pdf"
   inkscape:export-xdpi="96"
   inkscape:export-ydpi="96"
   xmlns:inkscape="http://www.inkscape.org/namespaces/inkscape"
   xmlns:sodipodi="http://sodipodi.sourceforge.net/DTD/sodipodi-0.dtd"
   xmlns="http://www.w3.org/2000/svg"
   xmlns:svg="http://www.w3.org/2000/svg">
  <sodipodi:namedview
     id="namedview7"
     pagecolor="#ffffff"
     bordercolor="#666666"
     borderopacity="1.0"
     inkscape:showpageshadow="2"
     inkscape:pageopacity="0.0"
     inkscape:pagecheckerboard="true"
     inkscape:deskcolor="#d1d1d1"
     inkscape:document-units="mm"
     showgrid="false"
     inkscape:zoom="0.85103299"
     inkscape:cx="442.40353"
     inkscape:cy="378.95123"
     inkscape:window-width="1920"
     inkscape:window-height="1006"
     inkscape:window-x="0"
     inkscape:window-y="0"
     inkscape:window-maximized="1"
     inkscape:current-layer="layer1"
     showguides="true">
    <sodipodi:guide
       position="63.472362,166.12128"
       orientation="1,0"
       id="guide152"
       inkscape:locked="false" />
    <sodipodi:guide
       position="235.05197,46.783896"
       orientation="1,0"
       id="guide204"
       inkscape:locked="false" />
    <sodipodi:guide
       position="63.472362,166.12128"
       orientation="0,-1"
       id="guide206"
       inkscape:locked="false" />
    <sodipodi:guide
       position="63.627929,94.632323"
       orientation="0,-1"
       id="guide208"
       inkscape:locked="false" />
  </sodipodi:namedview>
  <defs
     id="defs2">
    <inkscape:path-effect
       effect="knot"
       id="path-effect4692"
       is_visible="true"
       lpeversion="1"
       switcher_size="15"
       interruption_width="4.4"
       prop_to_stroke_width="true"
       add_stroke_width="inkscape_1.0_and_up"
       both="false"
       inverse_width="false"
       add_other_stroke_width="inkscape_1.0_and_up"
       crossing_points_vector="56.318101 | 53.670213 | 0 | 1 | 0 | 4 | 0.72454737 | 3.5351118 | -1 | 56.183816 | 44.775423 | 0 | 1 | 1 | 5 | 1.507533 | 4.4693074 | -1 | 63.472362 | 31.907047 | 0 | 1 | 0 | 0 | 3 | 1 | 1 | 63.472362 | 31.907047 | 0 | 1 | 2 | 2 | 3 | 1 | 1 | 63.472362 | 31.907047 | 0 | 1 | 0 | 0 | 3 | 1 | 1 | 63.472362 | 31.907047 | 0 | 1 | 3 | 1 | 3 | 1 | 1 | 72.493616 | 49.385524 | 1 | 1 | 3 | 6 | 2.444089 | 5.3850737 | -1" />
    <inkscape:path-effect
       effect="knot"
       id="path-effect3010"
       is_visible="true"
       lpeversion="1"
       switcher_size="15"
       interruption_width="4.4"
       prop_to_stroke_width="true"
       add_stroke_width="inkscape_1.0_and_up"
       both="false"
       inverse_width="false"
       add_other_stroke_width="inkscape_1.0_and_up"
       crossing_points_vector="242.20592 | 53.612924 | 0 | 1 | 0 | 5 | 0.72454731 | 3.5351117 | -1 | 242.34014 | 44.718184 | 0 | 1 | 1 | 6 | 1.5075284 | 4.4693025 | -1 | 235.05166 | 31.849757 | 0 | 1 | 0 | 0 | 3 | 1 | 1 | 235.05166 | 31.849757 | 0 | 1 | 0 | 3 | 3 | 1 | 1 | 235.05166 | 31.849757 | 0 | 1 | 2 | 1 | 3 | 1 | 1 | 235.05166 | 31.849757 | 0 | 1 | 3 | 2 | 3 | 1 | 0 | 226.03041 | 49.328225 | 1 | 1 | 4 | 7 | 2.4440886 | 5.3850734 | -1" />
    <marker
       style="overflow:visible"
       id="marker1881"
       refX="0"
       refY="0"
       orient="auto-start-reverse"
       inkscape:stockid="Arrow2"
       markerWidth="7.6999998"
       markerHeight="5.5999999"
       viewBox="0 0 7.7 5.6"
       inkscape:isstock="true"
       inkscape:collect="always"
       preserveAspectRatio="xMidYMid">
      <path
         transform="scale(0.7)"
         d="M -2,-4 9,0 -2,4 c 2,-2.33 2,-5.66 0,-8 z"
         style="fill:context-stroke;fill-rule:evenodd;stroke:none"
         id="path1879" />
    </marker>
    <marker
       style="overflow:visible"
       id="marker1835"
       refX="0"
       refY="0"
       orient="auto-start-reverse"
       inkscape:stockid="Arrow2"
       markerWidth="7.6999998"
       markerHeight="5.5999999"
       viewBox="0 0 7.7 5.6"
       inkscape:isstock="true"
       inkscape:collect="always"
       preserveAspectRatio="xMidYMid">
      <path
         transform="scale(0.7)"
         d="M -2,-4 9,0 -2,4 c 2,-2.33 2,-5.66 0,-8 z"
         style="fill:context-stroke;fill-rule:evenodd;stroke:none"
         id="path1833" />
    </marker>
    <marker
       style="overflow:visible"
       id="Arrow2"
       refX="0"
       refY="0"
       orient="auto-start-reverse"
       inkscape:stockid="Arrow2"
       markerWidth="7.6999998"
       markerHeight="5.5999999"
       viewBox="0 0 7.7 5.6"
       inkscape:isstock="true"
       inkscape:collect="always"
       preserveAspectRatio="xMidYMid">
      <path
         transform="scale(0.7)"
         d="M -2,-4 9,0 -2,4 c 2,-2.33 2,-5.66 0,-8 z"
         style="fill:context-stroke;fill-rule:evenodd;stroke:none"
         id="arrow2L" />
    </marker>
    <inkscape:path-effect
       effect="knot"
       id="path-effect1659"
       is_visible="true"
       lpeversion="1"
       switcher_size="15"
       interruption_width="4.4"
       prop_to_stroke_width="true"
       add_stroke_width="inkscape_1.0_and_up"
       both="false"
       inverse_width="false"
       add_other_stroke_width="inkscape_1.0_and_up"
       crossing_points_vector="" />
    <inkscape:path-effect
       effect="knot"
       id="path-effect1653"
       is_visible="true"
       lpeversion="1"
       switcher_size="15"
       interruption_width="4.4"
       prop_to_stroke_width="true"
       add_stroke_width="inkscape_1.0_and_up"
       both="false"
       inverse_width="false"
       add_other_stroke_width="inkscape_1.0_and_up"
       crossing_points_vector="" />
  </defs>
  <g
     inkscape:groupmode="layer"
     id="layer2"
     inkscape:label="Layer 2">
    <g
       id="g1957">
      <circle
         style="opacity:0.873199;fill:none;stroke:#800000;stroke-width:0.6;stroke-linejoin:round;stroke-dasharray:1.8, 0.6;stroke-dashoffset:0"
         id="path262-5-2"
         cx="235.05197"
         cy="115.59109"
         r="26.713057" />
      <g
         id="g1825"
         inkscape:label="graph"
         transform="translate(171.57961,-47.625002)">
        <circle
           style="opacity:1;fill:#000000;stroke:none;stroke-width:0.600001;stroke-linejoin:round;stroke-dasharray:none;stroke-dashoffset:0"
           id="circle1766"
           cx="63.472363"
           cy="175.87402"
           r="1.5" />
        <circle
           style="opacity:1;fill:#000000;stroke:none;stroke-width:0.600001;stroke-linejoin:round;stroke-dasharray:none;stroke-dashoffset:0"
           id="path1736"
           cx="36.759308"
           cy="163.21611"
           r="1.5" />
        <circle
           style="opacity:1;fill:#000000;stroke:none;stroke-width:0.600001;stroke-linejoin:round;stroke-dasharray:none;stroke-dashoffset:0"
           id="circle1764"
           cx="90.185417"
           cy="163.21611"
           r="1.5" />
        <path
           style="fill:none;stroke:#000000;stroke-width:0.45;stroke-linecap:butt;stroke-linejoin:miter;stroke-dasharray:none;stroke-opacity:1"
           d="m 36.759313,163.2161 v 0 l -6.231318,-1.91536"
           id="path1793"
           sodipodi:nodetypes="ccc" />
        <path
           style="fill:none;stroke:#000000;stroke-width:0.45;stroke-linecap:butt;stroke-linejoin:miter;stroke-dasharray:none;stroke-opacity:1"
           d="m 36.759313,163.2161 -6.286952,10e-6"
           id="path1795" />
        <path
           style="fill:none;stroke:#000000;stroke-width:0.45;stroke-linecap:butt;stroke-linejoin:miter;stroke-dasharray:none;stroke-opacity:1"
           d="m 36.759313,163.2161 -6.238673,1.78439"
           id="path1797"
           sodipodi:nodetypes="cc" />
        <path
           style="fill:none;stroke:#000000;stroke-width:0.45;stroke-linecap:butt;stroke-linejoin:miter;stroke-dasharray:none;stroke-opacity:1"
           d="m 36.759306,163.21611 c 19.574889,-15.73715 34.303124,-15.64977 53.426113,0"
           id="path1783"
           sodipodi:nodetypes="cc" />
        <path
           style="fill:none;stroke:#000000;stroke-width:0.45;stroke-linecap:butt;stroke-linejoin:miter;stroke-dasharray:none;stroke-opacity:1"
           d="m 36.759321,163.2161 c 7.939781,7.66385 14.440837,10.55725 26.713042,12.65792"
           id="path1785"
           sodipodi:nodetypes="cc" />
        <path
           style="fill:none;stroke:#000000;stroke-width:0.45;stroke-linecap:butt;stroke-linejoin:miter;stroke-dasharray:none;stroke-opacity:1"
           d="M 63.472363,175.87402 C 74.71772,165.11279 74.692858,165.05542 90.185419,163.21611"
           id="path1787"
           sodipodi:nodetypes="cc" />
        <path
           style="fill:none;stroke:#000000;stroke-width:0.45;stroke-linecap:butt;stroke-linejoin:miter;stroke-dasharray:none;stroke-opacity:1"
           d="M 63.472363,175.87402 C 80.503521,174.21603 80.57113,174.2386 90.185419,163.21611"
           id="path1789"
           sodipodi:nodetypes="cc" />
        <path
           style="fill:none;stroke:#000000;stroke-width:0.45;stroke-linecap:butt;stroke-linejoin:miter;stroke-dasharray:none;stroke-opacity:1"
           d="m 90.185419,163.21611 v 0 l 6.23132,-1.91536"
           id="path1869"
           sodipodi:nodetypes="ccc" />
        <path
           style="fill:none;stroke:#000000;stroke-width:0.45;stroke-linecap:butt;stroke-linejoin:miter;stroke-dasharray:none;stroke-opacity:1"
           d="m 90.185419,163.21611 6.23868,1.78439"
           id="path1873"
           sodipodi:nodetypes="cc" />
      </g>
    </g>
    <g
       id="g1973">
      <circle
         style="opacity:0.873199;fill:none;stroke:#800000;stroke-width:0.6;stroke-linejoin:round;stroke-dasharray:1.8, 0.6;stroke-dashoffset:0"
         id="path262-5-5"
         cx="63.472363"
         cy="115.59109"
         r="26.713057" />
      <g
         id="g1901"
         inkscape:label="graph"
         transform="matrix(-1,0,0,1,126.94473,-47.625002)">
        <circle
           style="opacity:1;fill:#000000;stroke:none;stroke-width:0.600001;stroke-linejoin:round;stroke-dasharray:none;stroke-dashoffset:0"
           id="circle1875"
           cx="63.472363"
           cy="175.87402"
           r="1.5" />
        <circle
           style="opacity:1;fill:#000000;stroke:none;stroke-width:0.600001;stroke-linejoin:round;stroke-dasharray:none;stroke-dashoffset:0"
           id="circle1877"
           cx="36.759308"
           cy="163.21611"
           r="1.5" />
        <circle
           style="opacity:1;fill:#000000;stroke:none;stroke-width:0.600001;stroke-linejoin:round;stroke-dasharray:none;stroke-dashoffset:0"
           id="circle1879"
           cx="90.185417"
           cy="163.21611"
           r="1.5" />
        <path
           style="fill:none;stroke:#000000;stroke-width:0.45;stroke-linecap:butt;stroke-linejoin:miter;stroke-dasharray:none;stroke-opacity:1"
           d="m 36.759313,163.2161 v 0 l -6.231318,-1.91536"
           id="path1881"
           sodipodi:nodetypes="ccc" />
        <path
           style="fill:none;stroke:#000000;stroke-width:0.45;stroke-linecap:butt;stroke-linejoin:miter;stroke-dasharray:none;stroke-opacity:1"
           d="m 36.759313,163.2161 -6.238673,1.78439"
           id="path1885"
           sodipodi:nodetypes="cc" />
        <path
           style="fill:none;stroke:#000000;stroke-width:0.45;stroke-linecap:butt;stroke-linejoin:miter;stroke-dasharray:none;stroke-opacity:1"
           d="m 36.759306,163.21611 c 19.574889,-15.73715 34.303124,-15.64977 53.426113,0"
           id="path1887"
           sodipodi:nodetypes="cc" />
        <path
           style="fill:none;stroke:#000000;stroke-width:0.45;stroke-linecap:butt;stroke-linejoin:miter;stroke-dasharray:none;stroke-opacity:1"
           d="m 36.759321,163.2161 c 7.939781,7.66385 14.440837,10.55725 26.713042,12.65792"
           id="path1889"
           sodipodi:nodetypes="cc" />
        <path
           style="fill:none;stroke:#000000;stroke-width:0.45;stroke-linecap:butt;stroke-linejoin:miter;stroke-dasharray:none;stroke-opacity:1"
           d="M 63.472363,175.87402 C 74.71772,165.11279 74.692858,165.05542 90.185419,163.21611"
           id="path1891"
           sodipodi:nodetypes="cc" />
        <path
           style="fill:none;stroke:#000000;stroke-width:0.45;stroke-linecap:butt;stroke-linejoin:miter;stroke-dasharray:none;stroke-opacity:1"
           d="M 63.472363,175.87402 C 80.503521,174.21603 80.57113,174.2386 90.185419,163.21611"
           id="path1893"
           sodipodi:nodetypes="cc" />
        <path
           style="fill:none;stroke:#000000;stroke-width:0.45;stroke-linecap:butt;stroke-linejoin:miter;stroke-dasharray:none;stroke-opacity:1"
           d="m 90.185419,163.21611 v 0 l 6.23132,-1.91536"
           id="path1895"
           sodipodi:nodetypes="ccc" />
        <path
           style="fill:none;stroke:#000000;stroke-width:0.45;stroke-linecap:butt;stroke-linejoin:miter;stroke-dasharray:none;stroke-opacity:1"
           d="m 90.185419,163.21611 6.28696,1e-5"
           id="path1897" />
        <path
           style="fill:none;stroke:#000000;stroke-width:0.45;stroke-linecap:butt;stroke-linejoin:miter;stroke-dasharray:none;stroke-opacity:1"
           d="m 90.185419,163.21611 6.23868,1.78439"
           id="path1899"
           sodipodi:nodetypes="cc" />
      </g>
    </g>
    <path
       style="fill:none;stroke:#000000;stroke-width:0.7;stroke-linecap:butt;stroke-linejoin:miter;stroke-dasharray:none;stroke-opacity:1;marker-start:url(#marker1835);marker-end:url(#Arrow2)"
       d="m 130.30343,43.878719 h 37.91791"
       id="path1903" />
    <path
       style="fill:none;stroke:#000000;stroke-width:0.7;stroke-linecap:butt;stroke-linejoin:miter;stroke-dasharray:none;stroke-opacity:1;marker-start:url(#marker1881);marker-end:url(#Arrow2)"
       d="m 130.30322,115.36768 h 37.91791"
       id="path2241" />
    <text
       xml:space="preserve"
       style="font-style:normal;font-weight:normal;font-size:10.5833px;line-height:1.25;font-family:sans-serif;fill:#000000;fill-opacity:1;stroke:none;stroke-width:0.264583"
       x="135.93419"
       y="38.327049"
       id="text555"><tspan
         sodipodi:role="line"
         id="tspan553"
         style="stroke-width:0.264583"
         x="135.93419"
         y="38.327049">mutation</tspan></text>
    <text
       xml:space="preserve"
       style="font-style:normal;font-weight:normal;font-size:10.5833px;line-height:1.25;font-family:sans-serif;fill:#000000;fill-opacity:1;stroke:none;stroke-width:0.264583"
       x="130.90778"
       y="107.4315"
       id="text559"><tspan
         sodipodi:role="line"
         id="tspan557"
         style="stroke-width:0.264583"
         x="130.90778"
         y="107.4315">Whitney flip</tspan></text>
  </g>
  <g
     inkscape:label="Layer 1"
     inkscape:groupmode="layer"
     id="layer1">
    <path
       id="path1674"
       style="display:inline;opacity:1;mix-blend-mode:luminosity;fill:#b3b3b3;stroke:none;stroke-width:0.1;stroke-linecap:butt;stroke-linejoin:miter;stroke-dasharray:none;stroke-opacity:1"
       d="m 235.05164,31.895785 c -3.79097,1.607675 -13.27449,5.441864 -13.22098,9.409227 0.0462,3.423556 9.19062,16.00296 13.22098,15.942926 0.48127,-0.0072 1.00673,-0.10414 1.55781,-0.272555 0.55109,-0.168416 1.1278,-0.408275 1.71159,-0.70122 0.58378,-0.292945 1.17464,-0.638976 1.75402,-1.019734 0.57938,-0.380757 1.59446,-1.164873 2.13232,-1.596726 -1.98428,-1.870288 -3.24466,-3.219559 -3.70786,-4.007795 0.25778,-1.496684 2.14715,-3.217335 3.8474,-4.879918 -0.12589,-0.108952 -0.25417,-0.217078 -0.38459,-0.324082 -2.08669,-1.712072 -4.72137,-3.137108 -6.91069,-3.065225 -4.37864,0.143767 -21.11574,23.602513 -23.33453,25.821296 -5.97182,-5.971825 -9.66547,-14.221825 -9.66547,-23.334524 0,-9.112698 3.69365,-17.362698 9.66547,-23.334522 3.28121,3.281202 15.56934,8.059794 23.33453,11.362852 7.76519,3.303058 10.99542,6.30582 10.99242,7.610842 0.0675,1.835673 -2.58332,4.132446 -3.70528,5.256317 1.12752,1.057799 3.2272,3.27472 3.24629,4.46781 -0.26345,1.561991 -2.69587,3.824947 -3.37769,4.426949 0.25132,0.227812 0.64907,0.586062 0.91611,0.824084 0.26703,0.238022 0.54132,0.480693 0.82165,0.727098 0.28034,0.246404 0.56671,0.496542 0.85791,0.7495 0.29121,0.252958 0.58724,0.508735 0.8869,0.766417 0.29965,0.257683 0.60293,0.51727 0.90861,0.777849 0.30569,0.260578 0.61378,0.522147 0.92307,0.783793 0.30929,0.261645 0.61978,0.523367 0.93025,0.784252 0.31048,0.260884 0.62094,0.52093 0.93018,0.779224 0.30924,0.258294 0.61725,0.514836 0.92282,0.768711 0.30558,0.253875 0.60872,0.505084 0.90822,0.752712 0.29949,0.247628 0.59534,0.491675 0.88633,0.731226 0.29099,0.239552 0.57712,0.474608 0.85718,0.704255 0.28007,0.229646 0.55406,0.453884 0.82077,0.671797 0.26672,0.217913 0.52615,0.429502 0.77709,0.633853 0.25095,0.204351 0.4934,0.401464 0.72615,0.590424 0.23275,0.18896 0.45579,0.369767 0.66793,0.541508 0.21213,0.17174 0.41335,0.334414 0.60244,0.487106 0.1891,0.152692 0.36607,0.295403 0.5297,0.427218 0.16364,0.131815 0.31394,0.252734 0.44969,0.361844 0.13575,0.10911 0.25696,0.206409 0.36241,0.290984 0.10544,0.08458 0.19513,0.156426 0.26785,0.214638 0.0727,0.05821 0.12848,0.102786 0.16605,0.132806 0.0376,0.03002 0.057,0.04549 0.057,0.04549 5.97433,-5.974337 9.66798,-14.224337 9.66798,-23.337035 0,-9.112698 -3.69365,-17.362698 -9.66547,-23.334523 -6.40525,6.405245 -20.07876,9.98215 -23.33453,11.362853 z"
       inkscape:label="shading2"
       sodipodi:nodetypes="scsssscccsscscsccccsssssssssssssssssssssscscss"
       sodipodi:insensitive="true" />
    <path
       id="path1305-2"
       style="display:inline;opacity:1;mix-blend-mode:luminosity;fill:#b3b3b3;stroke:none;stroke-width:0.1;stroke-linecap:butt;stroke-linejoin:miter;stroke-dasharray:none;stroke-opacity:1"
       d="m 63.472362,31.909643 c 3.790972,1.607675 13.274492,5.441864 13.220982,9.409227 -0.0462,3.423556 -9.19062,16.00296 -13.220982,15.942926 -0.481273,-0.0072 -1.00673,-0.10414 -1.557816,-0.272555 -0.551085,-0.168416 -1.127798,-0.408275 -1.711585,-0.70122 -0.583786,-0.292945 -1.174645,-0.638976 -1.754022,-1.019734 -0.579376,-0.380757 -1.594464,-1.164873 -2.13232,-1.596726 1.984278,-1.870288 3.244657,-3.219559 3.707857,-4.007795 -0.257779,-1.496684 -2.147147,-3.217335 -3.8474,-4.879918 0.125895,-0.108952 0.254173,-0.217078 0.384591,-0.324082 2.08669,-1.712072 4.721373,-3.137108 6.910695,-3.065225 4.378642,0.143767 21.115742,23.602513 23.334523,25.821296 5.971827,-5.971825 9.665478,-14.221825 9.665478,-23.334524 0,-9.112698 -3.693651,-17.362698 -9.665478,-23.334522 -3.281201,3.281202 -15.569331,8.059794 -23.334523,11.362852 -7.76519,3.303058 -10.995426,6.30582 -10.992426,7.610842 -0.06749,1.835673 2.583324,4.132446 3.705287,5.256317 -1.127521,1.057799 -3.227202,3.27472 -3.246294,4.46781 0.263454,1.561991 2.695875,3.824947 3.37769,4.426949 -0.251318,0.227812 -0.649072,0.586062 -0.916108,0.824084 -0.267036,0.238022 -0.541325,0.480693 -0.821656,0.727098 -0.280331,0.246404 -0.566704,0.496542 -0.857908,0.7495 -0.291205,0.252958 -0.58724,0.508735 -0.886896,0.766417 -0.299655,0.257683 -0.60293,0.51727 -0.908614,0.777849 -0.305684,0.260578 -0.613777,0.522147 -0.923068,0.783793 -0.309291,0.261645 -0.619779,0.523367 -0.930254,0.784252 -0.310475,0.260884 -0.620936,0.52093 -0.930174,0.779224 -0.309237,0.258294 -0.617249,0.514836 -0.922826,0.768711 -0.305577,0.253875 -0.608718,0.505084 -0.908212,0.752712 -0.299495,0.247628 -0.595343,0.491675 -0.886332,0.731226 -0.29099,0.239552 -0.577122,0.474608 -0.857185,0.704255 -0.280063,0.229646 -0.554057,0.453884 -0.820771,0.671797 -0.266714,0.217913 -0.526147,0.429502 -0.77709,0.633853 -0.250942,0.204351 -0.493394,0.401464 -0.726143,0.590424 -0.232749,0.18896 -0.455795,0.369767 -0.667928,0.541508 -0.212134,0.17174 -0.413353,0.334414 -0.602448,0.487106 -0.189095,0.152692 -0.366066,0.295403 -0.529701,0.427218 -0.163635,0.131815 -0.313934,0.252734 -0.449686,0.361844 -0.135753,0.10911 -0.256958,0.206409 -0.362406,0.290984 -0.105447,0.08458 -0.195137,0.156426 -0.267858,0.214638 -0.07272,0.05821 -0.128472,0.102786 -0.166043,0.132806 -0.03757,0.03002 -0.05696,0.04549 -0.05696,0.04549 -5.974335,-5.974337 -9.667986,-14.224337 -9.667986,-23.337035 0,-9.112698 3.693651,-17.362698 9.665476,-23.334523 6.405244,6.405245 20.078759,9.98215 23.334523,11.362853 z"
       inkscape:label="shading"
       sodipodi:nodetypes="scsssscccsscscsccccsssssssssssssssssssssscscss"
       sodipodi:insensitive="true" />
    <path
       id="path1655"
       style="display:none;fill:none;stroke:#d45500;stroke-width:2.4;stroke-linecap:butt;stroke-linejoin:miter;stroke-dasharray:none;stroke-opacity:1"
       inkscape:label="strand thick"
       d="m 40.14286,67.218263 c 0,0 19.854153,-15.838506 19.881616,-17.554497 0.03819,-2.386179 -7.537311,-7.045141 -7.54454,-10.143281 -0.003,-1.305022 3.227236,-4.31038 10.992426,-7.613438 7.76519,-3.303058 20.053323,-8.08165 23.334523,-11.36285 m -46.669046,-2e-6 c 6.405244,6.405244 20.078759,9.982149 23.334523,11.362852 3.790974,1.607675 13.274489,5.441864 13.220987,9.409227 -0.04617,3.423556 -9.190628,16.002961 -13.220987,15.942926 -3.850186,-0.05735 -10.528113,-5.862065 -10.533433,-8.014588 -0.0053,-2.152523 6.15479,-7.996434 10.533433,-7.852667 4.378645,0.143766 21.115741,23.602513 23.334523,25.821296"
       sodipodi:insensitive="true" />
    <path
       id="path1662"
       style="display:none;fill:none;stroke:#d40000;stroke-width:0.6;stroke-linecap:butt;stroke-linejoin:miter;stroke-dasharray:none;stroke-opacity:1"
       inkscape:label="strand thin"
       d="m 40.14286,67.218263 c 0,0 19.854153,-15.838506 19.881616,-17.554497 0.03819,-2.386179 -7.537311,-7.045141 -7.54454,-10.143281 -0.003,-1.305022 3.227236,-4.31038 10.992426,-7.613438 7.76519,-3.303058 20.053323,-8.08165 23.334523,-11.36285 m -46.669046,-2e-6 c 6.405244,6.405244 20.078759,9.982149 23.334523,11.362852 3.790974,1.607675 13.274489,5.441864 13.220987,9.409227 -0.04617,3.423556 -9.190628,16.002961 -13.220987,15.942926 -3.850186,-0.05735 -10.528113,-5.862065 -10.533433,-8.014588 -0.0053,-2.152523 6.15479,-7.996434 10.533433,-7.852667 4.378645,0.143766 21.115741,23.602513 23.334523,25.821296"
       sodipodi:insensitive="true" />
    <g
       id="g2237">
      <path
         style="color:#000000;display:inline;fill:#000000;-inkscape-stroke:none"
         d="m 40.349609,20.332031 -0.423828,0.423828 c 5.652203,5.652203 16.613376,9.033183 21.551486,10.741221 l 0.80787,-0.366524 C 57.320772,29.413436 45.808462,25.790884 40.349609,20.332031 Z m 46.246094,0 c -1.559682,1.559682 -5.454138,3.597514 -9.898437,5.611328 -4.4443,2.013815 -9.454707,4.034059 -13.341797,5.6875 -3.898961,1.658491 -6.66732,3.243913 -8.472657,4.591797 -0.902668,0.673942 -1.563536,1.287723 -2.009765,1.832031 -0.446229,0.544309 -0.694395,1.016517 -0.69336,1.466797 0.0017,0.733131 0.355383,1.47637 0.876954,2.232422 0.521571,0.756052 1.275156,1.586354 2.028248,2.355019 l 0.471003,-0.378427 c -0.742396,-0.757748 -1.518101,-1.612435 -2.005111,-2.318389 -0.487009,-0.705953 -0.77024,-1.359092 -0.771484,-1.892578 -4.65e-4,-0.20223 0.155382,-0.594531 0.55664,-1.083984 0.401259,-0.489454 1.031088,-1.079016 1.90625,-1.732422 1.750326,-1.306812 4.481436,-2.874967 8.347657,-4.519531 3.878091,-1.649614 8.894113,-3.671817 13.355468,-5.69336 4.461356,-2.021542 8.352705,-4.01286 10.074219,-5.734375 z M 65.211018,32.307938 64.44397,32.646319 c 2.173938,0.931842 5.655949,2.487905 7.972046,3.976728 1.158048,0.744411 2.172941,1.536785 2.882812,2.335937 0.709872,0.799153 1.104012,1.592534 1.09375,2.353516 -0.0098,0.72485 -0.563437,2.158385 -1.480469,3.800781 -0.917032,1.642396 -2.18147,3.523752 -3.570312,5.294922 -1.388842,1.77117 -2.902293,3.433542 -4.304688,4.638672 -1.402394,1.20513 -2.710653,1.924769 -3.560547,1.912109 -1.614766,-0.02405 -4.073255,-1.319834 -6.071953,-2.816945 l -0.503795,0.394029 c 2.052865,1.537685 4.68395,2.994461 6.567936,3.022526 1.165284,0.01736 2.511815,-0.813034 3.958984,-2.056641 1.44717,-1.243607 2.97793,-2.928538 4.384766,-4.722656 1.406836,-1.794118 2.688514,-3.695809 3.625,-5.373047 0.936486,-1.677238 1.543331,-3.099011 1.556641,-4.085938 0.01309,-0.970738 -0.478911,-1.896093 -1.246094,-2.759765 -0.767183,-0.863673 -1.821664,-1.678931 -3.007813,-2.441406 -2.372297,-1.52495 -5.345779,-2.875289 -7.529216,-3.811203 z m -1.728596,8.783859 c -2.327179,-0.07641 -4.992017,1.393976 -7.111328,3.132812 -1.059656,0.869419 -1.979251,1.811413 -2.642578,2.683594 -0.663328,0.872182 -1.091522,1.656338 -1.089844,2.337891 0.0013,0.528882 0.281418,1.09915 0.71875,1.734375 0.437332,0.635225 1.079601,1.364946 1.799447,2.05698 l 0.463334,-0.39061 c -0.697797,-0.670837 -1.36412,-1.418648 -1.768641,-2.006214 -0.40452,-0.587566 -0.612558,-1.103887 -0.613281,-1.396484 -9.72e-4,-0.394708 0.339767,-1.148202 0.966797,-1.972657 0.62703,-0.824454 1.519842,-1.739379 2.546875,-2.582031 2.054066,-1.685304 4.659478,-3.065404 6.710938,-2.998047 0.591723,0.01943 1.77099,0.724234 3.160156,1.955078 1.389166,1.230845 3.12229,3.049449 4.851065,5.011203 l 0.355966,-0.489718 C 70.092266,46.19596 68.44134,44.457033 67.019531,43.197266 65.597722,41.937499 64.44499,41.1234 63.482422,41.091797 Z m -6.286057,4.247028 -0.439693,0.421444 c 0.778457,0.764965 1.663156,1.652663 2.176922,2.304184 0.513766,0.651522 0.796929,1.224296 0.791015,1.59375 5.68e-4,-0.03547 -0.03947,0.122169 -0.173828,0.314453 -0.134359,0.192285 -0.341801,0.443349 -0.609375,0.736328 -0.535148,0.585959 -1.309047,1.341196 -2.238281,2.201172 -1.858468,1.719952 -4.340694,3.859859 -6.822266,5.945313 -4.963143,4.170908 -9.925781,8.128906 -9.925781,8.128906 l 0.375,0.46875 c 0,0 4.964758,-3.961338 9.935547,-8.138672 2.485395,-2.088667 4.971845,-4.230503 6.84375,-5.962891 0.935953,-0.866193 1.719509,-1.629621 2.275391,-2.238281 0.27794,-0.30433 0.498713,-0.568626 0.658203,-0.796875 0.159489,-0.228248 0.277249,-0.398463 0.28125,-0.648437 0.01026,-0.640826 -0.373106,-1.281176 -0.919922,-1.97461 -0.546816,-0.693433 -1.425179,-1.585346 -2.207932,-2.354534 z m 16.253898,4.681334 -0.370865,0.509462 c 2.923717,3.452904 6.020217,7.404614 8.483102,10.575848 1.231442,1.585617 2.321525,2.996763 3.185547,4.09375 0.864021,1.096987 1.491553,1.870459 1.847656,2.226562 l 0.423828,-0.423828 c -0.293397,-0.293397 -0.939773,-1.080667 -1.800781,-2.173828 -0.861008,-1.093161 -1.949611,-2.50347 -3.181641,-4.089844 -2.46406,-3.172747 -5.652368,-7.252509 -8.586846,-10.718122 z"
         id="path4689"
         sodipodi:nodetypes="ccccccsssscsccssssssccccsscssssccssssssscsssssccssssssccssccscssssccsssssscccssccssc" />
      <circle
         style="display:inline;opacity:0.873199;fill:none;stroke:#800000;stroke-width:0.6;stroke-linejoin:round;stroke-dasharray:1.8, 0.6;stroke-dashoffset:0"
         id="path262"
         cx="63.472363"
         cy="43.878719"
         r="26.713057" />
    </g>
    <g
       id="g2233">
      <path
         id="path2999"
         style="display:none;fill:none;stroke:#d45500;stroke-width:2.4;stroke-linecap:butt;stroke-linejoin:miter;stroke-dasharray:none;stroke-opacity:1"
         inkscape:label="strand thick"
         d="m 258.38116,67.160973 c 0,0 -19.85416,-15.838506 -19.88162,-17.554497 -0.0382,-2.386179 7.53731,-7.045141 7.54454,-10.143281 0.003,-1.305022 -3.22723,-4.31038 -10.99242,-7.613438 -7.76519,-3.303058 -20.05333,-8.08165 -23.33453,-11.36285 m 46.66905,-2e-6 c -6.40525,6.405244 -20.07876,9.982149 -23.33452,11.362852 -3.79098,1.607675 -13.27449,5.441864 -13.22099,9.409227 0.0462,3.423556 9.19063,16.002961 13.22099,15.942926 3.85018,-0.05735 10.52811,-5.862065 10.53343,-8.014588 0.005,-2.152523 -6.15479,-7.996434 -10.53343,-7.852667 -4.37865,0.143766 -21.11575,23.602513 -23.33453,25.821296" />
      <path
         id="path3001"
         style="display:none;fill:none;stroke:#d40000;stroke-width:0.6;stroke-linecap:butt;stroke-linejoin:miter;stroke-dasharray:none;stroke-opacity:1"
         inkscape:label="strand thin"
         d="m 258.38116,67.160973 c 0,0 -19.85416,-15.838506 -19.88162,-17.554497 -0.0382,-2.386179 7.53731,-7.045141 7.54454,-10.143281 0.003,-1.305022 -3.22723,-4.31038 -10.99242,-7.613438 -7.76519,-3.303058 -20.05333,-8.08165 -23.33453,-11.36285 m 46.66905,-2e-6 c -6.40525,6.405244 -20.07876,9.982149 -23.33452,11.362852 -3.79098,1.607675 -13.27449,5.441864 -13.22099,9.409227 0.0462,3.423556 9.19063,16.002961 13.22099,15.942926 3.85018,-0.05735 10.52811,-5.862065 10.53343,-8.014588 0.005,-2.152523 -6.15479,-7.996434 -10.53343,-7.852667 -4.37865,0.143766 -21.11575,23.602513 -23.33453,25.821296" />
      <path
         style="color:#000000;fill:#000000;-inkscape-stroke:none"
         d="m 211.92969,20.275391 -0.42383,0.423828 c 1.60087,1.600869 5.07546,3.43018 9.14453,5.308593 4.06907,1.878414 8.71752,3.779992 12.58984,5.404297 l 0.23243,-0.554687 c -3.8764,-1.626011 -8.52135,-3.524498 -12.57227,-5.394531 -4.05091,-1.870034 -7.52032,-3.737122 -8.9707,-5.1875 z m 46.24414,0 c -3.14689,3.146888 -8.13822,5.637107 -12.74805,7.498046 -4.60983,1.86094 -8.81106,3.087849 -10.49219,3.800782 -1.89162,0.802199 -5.22175,2.165272 -8.08593,3.835937 -1.4321,0.835333 -2.748,1.746245 -3.71875,2.71875 -0.97076,0.972505 -1.61266,2.022788 -1.59766,3.134766 0.0105,0.77627 0.39242,1.811647 1.00586,3.044922 0.61344,1.233275 1.63574,2.896954 2.62626,4.332797 l 0.38698,-0.489696 c -0.97757,-1.41706 -1.88032,-2.91285 -2.47613,-4.110679 -0.59581,-1.19783 -0.93565,-2.21501 -0.94336,-2.785157 -0.0118,-0.871702 0.51105,-1.790661 1.42187,-2.703125 0.91083,-0.912464 2.19169,-1.804907 3.59766,-2.625 2.81193,-1.640185 6.11823,-2.99726 8.01758,-3.802734 1.57463,-0.667769 5.84025,-1.920925 10.48242,-3.794922 4.64217,-1.873996 9.68891,-4.37251 12.94727,-7.630859 z m -21.33985,12.033203 -0.25,0.544922 c 3.26929,1.49737 5.58643,2.908013 7.07227,4.080078 0.74292,0.586032 1.27714,1.112017 1.61719,1.550781 0.34005,0.438764 0.47117,0.791348 0.4707,0.978516 -0.002,0.652451 -0.42977,1.483564 -1.12305,2.371093 -0.69327,0.88753 -1.63278,1.830344 -2.57617,2.753907 -0.94339,0.923562 -1.89102,1.829347 -2.61133,2.667968 -0.7203,0.838622 -1.24649,1.598687 -1.23437,2.355469 0.004,0.232159 0.10999,0.392059 0.25,0.599609 0.14001,0.207551 0.33304,0.444279 0.57617,0.716797 0.48626,0.545036 1.21513,1.267788 2.04238,2.044164 l 0.47912,-0.373622 c -0.82015,-0.76972 -1.60943,-1.547996 -2.07423,-2.068979 -0.2324,-0.260492 -0.41248,-0.484016 -0.52735,-0.654297 -0.11487,-0.170281 -0.14701,-0.306382 -0.14648,-0.273438 -0.007,-0.436305 0.40025,-1.152216 1.08984,-1.955078 0.68959,-0.802861 1.62956,-1.704143 2.57617,-2.630859 0.94662,-0.926716 1.90094,-1.878603 2.62891,-2.810547 0.72797,-0.931944 1.24791,-1.843618 1.25,-2.740234 0.001,-0.416839 -0.21229,-0.852945 -0.5957,-1.347657 -0.38341,-0.494711 -0.95072,-1.046916 -1.72071,-1.654296 -1.53997,-1.214762 -3.89211,-2.642288 -7.19336,-4.154297 z m -1.79296,8.726562 c -0.67792,0.02226 -1.43682,0.444602 -2.3379,1.119141 -0.90107,0.674539 -1.93084,1.620466 -3.04687,2.753906 -2.23206,2.266881 -4.80701,5.285495 -7.31445,8.369141 -2.50744,3.083646 -4.94507,6.23071 -6.89453,8.74414 -1.94947,2.513431 -3.44027,4.420733 -3.94141,4.921875 l 0.42383,0.423828 c 0.60824,-0.608248 2.04063,-2.46491 3.99023,-4.978515 1.9496,-2.513605 4.38521,-5.656069 6.88672,-8.732422 2.50151,-3.076353 5.07037,-6.086724 7.27734,-8.328125 1.10349,-1.120701 2.11752,-2.048814 2.97852,-2.693359 0.861,-0.644545 1.58131,-0.986317 1.99805,-1 1.84142,-0.06046 4.16503,1.065703 6.09808,2.514859 l 0.44427,-0.419267 c -1.9957,-1.496122 -4.47297,-2.763789 -6.56188,-2.695202 z m 8.34148,4.229557 -0.39215,0.461459 c 0.6726,0.672461 1.33619,1.448066 1.71863,2.041406 0.38245,0.59334 0.57691,1.116403 0.57618,1.419922 -9.5e-4,0.383346 -0.37027,1.137525 -1.03907,1.962891 -0.66879,0.825365 -1.61239,1.743459 -2.67382,2.595703 -2.12287,1.704487 -4.74844,3.129781 -6.5254,3.15625 -0.86031,0.01282 -2.18895,-0.725818 -3.61132,-1.957032 -1.42238,-1.231213 -3.15478,-3.181618 -4.55442,-4.979734 l -0.3723,0.492955 c 1.41768,1.821286 3.06723,3.670143 4.53414,4.939904 1.4669,1.269762 2.8341,2.121087 4.01367,2.103516 2.07322,-0.03088 4.71066,-1.536774 6.89063,-3.287109 1.08998,-0.875168 2.05854,-1.815341 2.76367,-2.685547 0.70513,-0.870207 1.17211,-1.648883 1.17383,-2.341797 0.001,-0.52411 -0.25777,-1.101679 -0.67188,-1.744141 -0.41411,-0.642461 -1.13382,-1.482219 -1.83039,-2.178646 z m -0.14437,8.868068 -0.42523,0.430554 c 5.89067,5.244009 15.38046,12.831196 15.38046,12.831196 l 0.19884,-0.628301 c 0,0 -9.2878,-7.411163 -15.15407,-12.633449 z"
         id="path3006"
         sodipodi:nodetypes="ccsccsccssssssccssssssccccsscssscssccsscsssssscsssssccsssssccsccssssssccsssscscccccc" />
      <circle
         style="opacity:0.873199;fill:none;stroke:#800000;stroke-width:0.6;stroke-linejoin:round;stroke-dasharray:1.8, 0.6;stroke-dashoffset:0"
         id="path262-5"
         cx="-235.0524"
         cy="43.878719"
         r="26.713057"
         transform="scale(-1,1)" />
    </g>
  </g>
</svg>
