<?xml version="1.0" encoding="UTF-8" standalone="no"?>
<!-- Created with Inkscape (http://www.inkscape.org/) -->

<svg
   width="297mm"
   height="210mm"
   viewBox="0 0 297 210"
   version="1.1"
   id="svg5"
   xml:space="preserve"
   inkscape:version="1.2.2 (b0a8486541, 2022-12-01)"
   sodipodi:docname="trefoil_nonalternating.svg"
   inkscape:export-filename="trefoil_nonalternating.pdf"
   inkscape:export-xdpi="96"
   inkscape:export-ydpi="96"
   xmlns:inkscape="http://www.inkscape.org/namespaces/inkscape"
   xmlns:sodipodi="http://sodipodi.sourceforge.net/DTD/sodipodi-0.dtd"
   xmlns="http://www.w3.org/2000/svg"
   xmlns:svg="http://www.w3.org/2000/svg"><sodipodi:namedview
     id="namedview7"
     pagecolor="#ffffff"
     bordercolor="#666666"
     borderopacity="1.0"
     inkscape:showpageshadow="2"
     inkscape:pageopacity="0.0"
     inkscape:pagecheckerboard="0"
     inkscape:deskcolor="#d1d1d1"
     inkscape:document-units="mm"
     showgrid="false"
     inkscape:zoom="1"
     inkscape:cx="285.49999"
     inkscape:cy="426.49999"
     inkscape:window-width="1920"
     inkscape:window-height="1006"
     inkscape:window-x="0"
     inkscape:window-y="0"
     inkscape:window-maximized="1"
     inkscape:current-layer="layer1"
     showguides="true"><sodipodi:guide
       position="145.83928,110.22519"
       orientation="0,-1"
       id="guide958"
       inkscape:locked="false" /><sodipodi:guide
       position="150.12593,90.506386"
       orientation="1,0"
       id="guide960"
       inkscape:locked="false" /><sodipodi:guide
       position="179.37841,128.31383"
       orientation="0,-1"
       id="guide962"
       inkscape:locked="false" /></sodipodi:namedview><defs
     id="defs2"><inkscape:path-effect
       effect="knot"
       id="path-effect958"
       is_visible="true"
       lpeversion="1"
       switcher_size="15"
       interruption_width="4.2"
       prop_to_stroke_width="true"
       add_stroke_width="inkscape_1.0_and_up"
       both="false"
       inverse_width="false"
       add_other_stroke_width="inkscape_1.0_and_up"
       crossing_points_vector="190.2763 | 113.78646 | 0 | 0 | 0 | 3 | 0.77050631 | 3.5562876 | -1 | 109.24122 | 114.55511 | 0 | 0 | 1 | 6 | 1.2464896 | 6.4510121 | -1 | 151.43176 | 191.22558 | 0 | 0 | 2 | 7 | 2.7280498 | 7.2850719 | -1 | 150.15669 | 47.855878 | 0 | 0 | 4 | 5 | 4.3973293 | 5.6059958 | 1" /><inkscape:path-effect
       effect="knot"
       id="path-effect4493"
       is_visible="true"
       lpeversion="1"
       switcher_size="15"
       interruption_width="3.8"
       prop_to_stroke_width="true"
       add_stroke_width="inkscape_1.0_and_up"
       both="false"
       inverse_width="false"
       add_other_stroke_width="inkscape_1.0_and_up"
       crossing_points_vector="" /><inkscape:path-effect
       effect="knot"
       id="path-effect2416"
       is_visible="true"
       lpeversion="1"
       switcher_size="15"
       interruption_width="3"
       prop_to_stroke_width="true"
       add_stroke_width="inkscape_1.0_and_up"
       both="false"
       inverse_width="false"
       add_other_stroke_width="inkscape_1.0_and_up"
       crossing_points_vector="" /><inkscape:path-effect
       effect="knot"
       id="path-effect2874"
       is_visible="true"
       lpeversion="1"
       switcher_size="15"
       interruption_width="3"
       prop_to_stroke_width="true"
       add_stroke_width="inkscape_1.0_and_up"
       both="false"
       inverse_width="false"
       add_other_stroke_width="inkscape_1.0_and_up"
       crossing_points_vector="198.58287 | 91.503474 | 0 | 0 | 0 | 3 | 0.75015887 | 3.2648137 | 1 | 101.90226 | 91.987117 | 0 | 0 | 1 | 4 | 1.2602872 | 4.7365889 | 1 | 151.57895 | 177.31983 | 0 | 0 | 2 | 5 | 2.72805 | 5.2850717 | 1" /><inkscape:path-effect
       effect="knot"
       id="path-effect1531"
       is_visible="true"
       lpeversion="1"
       switcher_size="15"
       interruption_width="3"
       prop_to_stroke_width="true"
       add_stroke_width="inkscape_1.0_and_up"
       both="false"
       inverse_width="false"
       add_other_stroke_width="inkscape_1.0_and_up"
       crossing_points_vector="198.46502 | 92.07413 | 0 | 0 | 0 | 3 | 0.74221392 | 3.2823757 | 1 | 99.92342 | 92.824088 | 0 | 0 | 1 | 4 | 1.2809931 | 4.7297779 | 1 | 153.12343 | 176.80229 | 0 | 0 | 2 | 5 | 2.7568006 | 5.2818837 | 1" /></defs><g
     inkscape:groupmode="layer"
     id="layer3"
     inkscape:label="Thickened Layer"
     style="display:none"
     sodipodi:insensitive="true"><path
       style="display:inline;fill:none;stroke:#ff6600;stroke-width:8;stroke-linecap:butt;stroke-linejoin:miter;stroke-dasharray:none;stroke-opacity:1"
       d="m 232.24643,184.6441 c 14.79231,-30.10354 -16.21765,-77.4242 -81.19684,-77.7087 -64.979168,-0.2845 -96.666218,47.65917 -83.476077,79.69341 13.190141,32.03424 87.057247,25.22546 114.224147,-29.76487 13.58348,-27.49521 11.07166,-52.35662 -3.16706,-72.474923 C 164.39189,64.270712 106.7384,4.5261282 150.10987,4.2378127 193.48135,3.9494972 136.85497,63.83168 121.17114,84.364537 105.4873,104.8974 105.1571,129.66052 119.32556,156.77256 c 28.33689,54.22398 98.12854,57.9751 112.92087,27.87154 z"
       id="path297"
       sodipodi:nodetypes="zzzszzzsz"
       inkscape:label="bezier thick" /><path
       style="display:inline;fill:none;stroke:#ff0000;stroke-width:2;stroke-linecap:butt;stroke-linejoin:miter;stroke-dasharray:none;stroke-opacity:1"
       d="m 232.24643,184.6441 c 14.79006,-30.10445 -16.33739,-77.47265 -81.19684,-77.7087 -64.859449,-0.23605 -96.666218,47.65917 -83.476077,79.69341 13.190141,32.03424 87.057247,25.22546 114.224147,-29.76487 13.58348,-27.49521 11.07166,-52.35662 -3.16706,-72.474923 C 164.39189,64.270712 106.7384,4.5261282 150.10987,4.2378127 193.48135,3.9494972 136.85497,63.83168 121.17114,84.364537 105.4873,104.8974 105.1571,129.66052 119.32556,156.77256 c 28.33689,54.22398 98.13081,57.97599 112.92087,27.87154 z"
       id="path299"
       sodipodi:nodetypes="zzzszzzsz"
       inkscape:label="bezier thin" /></g><g
     inkscape:label="Knot Layer"
     inkscape:groupmode="layer"
     id="layer1"
     style="display:inline"><path
       style="color:#000000;fill:#000000;-inkscape-stroke:none"
       d="m 150.10352,3.2382813 c -6.30161,0.04189 -10.67606,1.2964496 -13.44141,3.6914062 -2.76535,2.3949566 -3.72514,5.8869725 -3.36133,9.8046875 0.72762,7.835431 6.75265,18.332945 13.85221,28.588177 l 1.17112,-1.777536 c -7.03159,-10.157042 -12.37951,-19.97899 -13.03114,-26.996188 -0.32582,-3.508599 0.45146,-6.177647 2.67969,-8.1074217 2.22822,-1.9297744 6.10587,-3.1629826 12.14453,-3.2031251 5.3071,-0.035279 8.97583,0.8653036 11.30468,2.359375 2.32886,1.4940715 3.42313,3.5324638 3.67383,6.2421878 0.50141,5.419447 -2.85617,13.45079 -8.16211,22.132812 -10.61187,17.364045 -28.64698,37.430046 -36.55664,47.785156 -6.10793,7.99634 -10.35646,17.731148 -11.69462,26.972568 l 2.18724,-1.05972 c 1.51678,-8.85701 5.16685,-16.936066 11.09723,-24.699957 7.77416,-10.177726 25.89249,-30.316931 36.67187,-47.955078 5.38969,-8.819073 9.03652,-16.990362 8.44727,-23.359375 -0.29463,-3.184506 -1.7693,-5.9364342 -4.58399,-7.7421875 -2.81468,-1.8057533 -6.86268,-2.7125806 -12.39843,-2.6757812 z m 3.05,46.9931147 -1.18868,1.780323 c 9.75819,13.098047 20.73384,25.726851 25.84961,32.955078 14.04632,19.846453 16.5417,44.218403 3.08594,71.455073 -6.54081,13.23969 -16.53951,24.17778 -27.02306,31.90157 l 1.91173,1.0789 c 10.72109,-7.89879 20.2153,-18.55605 26.9043,-32.0957 13.71118,-27.75369 11.185,-53.10598 -3.24609,-73.496093 -5.2586,-7.430032 -16.59719,-20.563818 -26.29375,-33.579151 z m -2.09883,55.704154 c -32.7362,-0.14333 -57.196441,11.87258 -71.798831,28.05664 -14.60239,16.18405 -19.376696,36.57737 -12.607422,53.01758 4.788415,11.62938 17.213745,18.23348 32.289063,19.56835 15.07532,1.33488 33.77921,-2.83625 49.77337,-12.46131 l -1.77728,-1.26329 c -15.73856,9.25365 -33.22347,13.02492 -47.820309,11.73242 -14.59684,-1.29251 -26.189675,-7.58976 -30.615234,-18.33789 -6.420853,-15.59401 -1.946176,-35.19084 12.242187,-50.91602 14.188363,-15.72518 38.061786,-27.53765 70.304686,-27.39648 12.89249,0.0564 25.14985,2.19951 35.22625,5.46862 l -0.2439,-2.19046 c -10.28351,-3.33631 -21.88656,-5.22087 -34.97258,-5.27816 z m 43.22589,8.38747 0.19677,2.28791 c 33.9705,14.94638 47.49249,45.97919 36.87226,67.59219 -7.11438,14.47833 -27.76159,21.04588 -50.31445,17.14258 -22.55287,-3.9033 -46.80749,-18.21543 -60.82422,-45.03711 -6.81809,-13.04675 -10.21526,-26.34159 -10.16521,-37.97923 l -2.00372,0.88714 c -0.0518,12.03367 3.46413,24.7524 10.39744,38.01964 14.32013,27.40225 39.13064,42.07772 62.25586,46.08008 23.12522,4.00235 44.77129,-2.60527 52.44922,-18.23047 11.25141,-22.89752 -3.24363,-55.09612 -37.97208,-70.37599 z"
       id="path2381"
       sodipodi:nodetypes="sssccsssssssccsssssccssccsscssssccssscccsccsssccssscc" /></g></svg>
