<?xml version="1.0" encoding="UTF-8" standalone="no"?>
<!-- Created with Inkscape (http://www.inkscape.org/) -->

<svg
   width="297mm"
   height="210mm"
   viewBox="0 0 297 210"
   version="1.1"
   id="svg5"
   xml:space="preserve"
   inkscape:version="1.2.2 (b0a8486541, 2022-12-01)"
   sodipodi:docname="trefoil_nonalternating.svg"
   inkscape:export-filename="trefoil_nonalternating.pdf"
   inkscape:export-xdpi="96"
   inkscape:export-ydpi="96"
   xmlns:inkscape="http://www.inkscape.org/namespaces/inkscape"
   xmlns:sodipodi="http://sodipodi.sourceforge.net/DTD/sodipodi-0.dtd"
   xmlns="http://www.w3.org/2000/svg"
   xmlns:svg="http://www.w3.org/2000/svg"><sodipodi:namedview
     id="namedview7"
     pagecolor="#ffffff"
     bordercolor="#666666"
     borderopacity="1.0"
     inkscape:showpageshadow="2"
     inkscape:pageopacity="0.0"
     inkscape:pagecheckerboard="0"
     inkscape:deskcolor="#d1d1d1"
     inkscape:document-units="mm"
     showgrid="false"
     inkscape:zoom="1.4142136"
     inkscape:cx="480.1255"
     inkscape:cy="381.83766"
     inkscape:window-width="1920"
     inkscape:window-height="1007"
     inkscape:window-x="0"
     inkscape:window-y="0"
     inkscape:window-maximized="1"
     inkscape:current-layer="layer1"
     showguides="true"><sodipodi:guide
       position="145.83928,110.22519"
       orientation="0,-1"
       id="guide958"
       inkscape:locked="false" /><sodipodi:guide
       position="150.12593,90.506386"
       orientation="1,0"
       id="guide960"
       inkscape:locked="false" /><sodipodi:guide
       position="179.37841,128.31383"
       orientation="0,-1"
       id="guide962"
       inkscape:locked="false" /></sodipodi:namedview><defs
     id="defs2"><inkscape:path-effect
       effect="knot"
       id="path-effect4493"
       is_visible="true"
       lpeversion="1"
       switcher_size="15"
       interruption_width="3.8"
       prop_to_stroke_width="true"
       add_stroke_width="inkscape_1.0_and_up"
       both="false"
       inverse_width="false"
       add_other_stroke_width="inkscape_1.0_and_up"
       crossing_points_vector="" /><inkscape:path-effect
       effect="knot"
       id="path-effect2416"
       is_visible="true"
       lpeversion="1"
       switcher_size="15"
       interruption_width="3"
       prop_to_stroke_width="true"
       add_stroke_width="inkscape_1.0_and_up"
       both="false"
       inverse_width="false"
       add_other_stroke_width="inkscape_1.0_and_up"
       crossing_points_vector="" /><inkscape:path-effect
       effect="knot"
       id="path-effect2874"
       is_visible="true"
       lpeversion="1"
       switcher_size="15"
       interruption_width="3"
       prop_to_stroke_width="true"
       add_stroke_width="inkscape_1.0_and_up"
       both="false"
       inverse_width="false"
       add_other_stroke_width="inkscape_1.0_and_up"
       crossing_points_vector="198.58287 | 91.503474 | 0 | 0 | 0 | 3 | 0.75015887 | 3.2648137 | 1 | 101.90226 | 91.987117 | 0 | 0 | 1 | 4 | 1.2602872 | 4.7365889 | 1 | 151.57895 | 177.31983 | 0 | 0 | 2 | 5 | 2.72805 | 5.2850717 | 1" /><inkscape:path-effect
       effect="knot"
       id="path-effect1531"
       is_visible="true"
       lpeversion="1"
       switcher_size="15"
       interruption_width="3"
       prop_to_stroke_width="true"
       add_stroke_width="inkscape_1.0_and_up"
       both="false"
       inverse_width="false"
       add_other_stroke_width="inkscape_1.0_and_up"
       crossing_points_vector="198.46502 | 92.07413 | 0 | 0 | 0 | 3 | 0.74221392 | 3.2823757 | 1 | 99.92342 | 92.824088 | 0 | 0 | 1 | 4 | 1.2809931 | 4.7297779 | 1 | 153.12343 | 176.80229 | 0 | 0 | 2 | 5 | 2.7568006 | 5.2818837 | 1" /></defs><g
     inkscape:groupmode="layer"
     id="layer3"
     inkscape:label="Thickened Layer"
     style="display:none"><path
       style="display:inline;fill:none;stroke:#ff6600;stroke-width:2;stroke-linecap:butt;stroke-linejoin:miter;stroke-dasharray:none;stroke-opacity:1"
       d="m 232.24643,184.6441 c 14.79231,-30.10354 -16.21765,-77.4242 -81.19684,-77.7087 -64.979168,-0.2845 -96.666218,47.65917 -83.476077,79.69341 13.190141,32.03424 87.057247,25.22546 114.224147,-29.76487 13.58348,-27.49521 11.07166,-52.35662 -3.16706,-72.474923 C 164.39189,64.270712 106.7384,4.5261282 150.10987,4.2378127 193.48135,3.9494972 136.85497,63.83168 121.17114,84.364537 105.4873,104.8974 105.1571,129.66052 119.32556,156.77256 c 28.33689,54.22398 98.12854,57.9751 112.92087,27.87154 z"
       id="path2381"
       sodipodi:nodetypes="zzzszzzsz"
       inkscape:label="bezier thick" /></g><g
     inkscape:label="Knot Layer"
     inkscape:groupmode="layer"
     id="layer1"
     style="display:inline"><path
       style="color:#000000;fill:#000000;-inkscape-stroke:none"
       d="m 150.10352,3.2382813 c -6.33746,0.042129 -10.72652,1.311067 -13.48829,3.7324218 -2.76177,2.4213549 -3.69552,5.9448139 -3.30078,9.8964839 0.7895,7.903342 6.05363,17.286367 13.2275,27.604355 l 1.11264,-1.913273 c -7.10657,-10.221199 -11.6415,-18.796796 -12.3499,-25.888347 -0.3542,-3.545776 0.40593,-6.246345 2.6289,-8.1953126 2.22297,-1.9489679 6.11059,-3.1959573 12.1836,-3.2363282 5.3071,-0.035279 8.97583,0.8653036 11.30468,2.359375 2.32886,1.4940715 3.42313,3.5324638 3.67383,6.2421878 0.50141,5.419447 -2.85617,13.45079 -8.16211,22.132812 -10.61187,17.364045 -28.64698,37.430046 -36.55664,47.785156 -15.91514,20.835678 -16.22466,46.139328 -1.9375,73.478518 7.40059,14.16137 15.97204,23.73283 27.29572,31.37845 l 1.68834,-1.15151 c -11.06408,-7.47035 -19.96878,-17.29334 -27.21257,-31.15468 -14.04973,-26.88483 -13.69665,-51.10788 1.75586,-71.337887 7.77416,-10.177726 25.89249,-30.316931 36.67187,-47.955078 5.38969,-8.819073 9.03652,-16.990362 8.44727,-23.359375 -0.29463,-3.184506 -1.7693,-5.9364342 -4.58399,-7.7421875 -2.81468,-1.8057533 -6.86268,-2.7125806 -12.39843,-2.6757812 z m 3.61942,47.7948847 -1.20792,1.726249 c 9.82087,13.219162 20.13973,24.917073 25.29943,32.207382 5.37685,7.597101 8.57719,13.797725 10.31722,22.624833 l 2.32651,1.09565 C 188.66069,99.568666 184.97141,91.615759 179.44727,83.810547 174.1435,76.3167 163.48056,64.167188 153.72294,51.033166 Z m -2.66825,54.902384 c -14.37749,-0.063 -25.59618,1.5761 -36.64706,5.527 l -0.40267,2.30108 c 10.82038,-3.86849 22.87913,-5.89011 37.03996,-5.82808 32.24752,0.14119 55.95775,11.94535 69.77344,27.33984 13.81569,15.39449 17.71395,34.31035 10.53125,48.92773 -4.88965,9.95082 -16.11155,16.167 -30.04102,17.81446 -13.92946,1.64746 -29.33255,-0.70342 -44.56012,-8.95123 l -1.9526,1.3147 c 15.58467,8.44122 32.35857,11.32461 46.7471,9.62286 14.38853,-1.70176 26.32459,-8.17891 31.60156,-18.91797 7.60959,-15.48613 3.39809,-35.28367 -10.83789,-51.14649 -14.23598,-15.86281 -38.52035,-27.86059 -71.25195,-28.0039 z m -46.66374,9.72157 c -33.60731,15.67479 -47.562587,47.50312 -37.742513,71.35265 3.427393,8.32393 10.79958,14.0924 20.207032,17.16601 9.407452,3.07361 20.882291,3.49888 32.779301,1.18555 23.79401,-4.62666 49.323,-20.25156 63.05859,-48.05469 6.83044,-13.82594 9.61189,-25.20315 8.91929,-37.52405 l -1.93732,-1.08779 c 0.67104,11.93735 -2.07174,24.1587 -8.77494,37.72707 -13.43128,27.18715 -38.41774,42.45982 -61.64648,46.97657 -11.61438,2.25837 -22.776043,1.81787 -31.777348,-1.12305 -9.001304,-2.94092 -15.810843,-8.33418 -18.978515,-16.02734 -9.314624,-22.62197 2.860402,-52.93351 35.719443,-68.25931 z"
       id="path4489"
       sodipodi:nodetypes="sssccssssssssccssssssccsccscccccsssccsssccssssccsssscc"
       inkscape:label="knot" /></g></svg>
