<?xml version="1.0" encoding="UTF-8" standalone="no"?>
<!-- Created with Inkscape (http://www.inkscape.org/) -->

<svg
   width="297mm"
   height="210mm"
   viewBox="0 0 297 210"
   version="1.1"
   id="svg5"
   inkscape:version="1.2.2 (b0a8486541, 2022-12-01)"
   sodipodi:docname="unknot_goeritz.svg"
   inkscape:export-filename="unknot_goeritz.pdf"
   inkscape:export-xdpi="96"
   inkscape:export-ydpi="96"
   xml:space="preserve"
   xmlns:inkscape="http://www.inkscape.org/namespaces/inkscape"
   xmlns:sodipodi="http://sodipodi.sourceforge.net/DTD/sodipodi-0.dtd"
   xmlns="http://www.w3.org/2000/svg"
   xmlns:svg="http://www.w3.org/2000/svg"><sodipodi:namedview
     id="namedview7"
     pagecolor="#ffffff"
     bordercolor="#666666"
     borderopacity="1.0"
     inkscape:showpageshadow="2"
     inkscape:pageopacity="0.0"
     inkscape:pagecheckerboard="true"
     inkscape:deskcolor="#d1d1d1"
     inkscape:document-units="mm"
     showgrid="false"
     showguides="true"
     inkscape:zoom="1"
     inkscape:cx="438.5"
     inkscape:cy="430.5"
     inkscape:window-width="1920"
     inkscape:window-height="1006"
     inkscape:window-x="0"
     inkscape:window-y="0"
     inkscape:window-maximized="1"
     inkscape:current-layer="layer1"><sodipodi:guide
       position="165.89376,112.63333"
       orientation="0,-1"
       id="guide1014"
       inkscape:locked="false" /><sodipodi:guide
       position="156.10417,109.45833"
       orientation="1,0"
       id="guide1077"
       inkscape:locked="false" /></sodipodi:namedview><defs
     id="defs2"><inkscape:path-effect
       effect="knot"
       id="path-effect1081"
       is_visible="true"
       lpeversion="1"
       switcher_size="15"
       interruption_width="4"
       prop_to_stroke_width="true"
       add_stroke_width="inkscape_1.0_and_up"
       both="false"
       inverse_width="false"
       add_other_stroke_width="inkscape_1.0_and_up"
       crossing_points_vector="137.03704 | 56.82871 | 0 | 0 | 0 | 5 | 0.20533383 | 5.7064452 | 1 | 28.949766 | 99.170443 | 0 | 0 | 1 | 12 | 2.5346086 | 13.498875 | -1 | 62.415592 | 97.704078 | 0 | 0 | 2 | 13 | 3.5190621 | 14.472994 | -1 | 86.622284 | 97.700286 | 0 | 0 | 3 | 14 | 4.5225848 | 15.524268 | -1 | 114.25464 | 97.803546 | 0 | 0 | 4 | 15 | 5.2428233 | 16.242907 | -1 | 191.86372 | 96.853521 | 0 | 0 | 7 | 18 | 6.7184312 | 17.740269 | 1 | 174.32006 | 57.109741 | 0 | 0 | 6 | 21 | 6.2908918 | 21.801998 | 1 | 227.37502 | 97.860317 | 0 | 0 | 8 | 19 | 7.4976354 | 18.504049 | 1 | 269.25703 | 97.698897 | 0 | 0 | 9 | 20 | 8.4285471 | 19.487401 | 1 | 175.15413 | 139.83585 | 0 | 0 | 10 | 17 | 10.798741 | 17.306261 | -1 | 137.82878 | 140.54643 | 0 | 0 | 11 | 16 | 11.239152 | 16.697435 | -1" /><inkscape:path-effect
       effect="knot"
       id="path-effect1045"
       is_visible="true"
       lpeversion="1"
       switcher_size="15"
       interruption_width="3"
       prop_to_stroke_width="true"
       add_stroke_width="inkscape_1.0_and_up"
       both="false"
       inverse_width="false"
       add_other_stroke_width="inkscape_1.0_and_up"
       crossing_points_vector="" /><inkscape:path-effect
       effect="bspline"
       id="path-effect1041"
       is_visible="true"
       lpeversion="1"
       weight="33.333333"
       steps="2"
       helper_size="0"
       apply_no_weight="true"
       apply_with_weight="true"
       only_selected="false" /><inkscape:path-effect
       effect="knot"
       id="path-effect1035"
       is_visible="true"
       lpeversion="1"
       switcher_size="15"
       interruption_width="3"
       prop_to_stroke_width="true"
       add_stroke_width="inkscape_1.0_and_up"
       both="false"
       inverse_width="false"
       add_other_stroke_width="inkscape_1.0_and_up"
       crossing_points_vector="" /><inkscape:path-effect
       effect="bspline"
       id="path-effect479"
       is_visible="true"
       lpeversion="1"
       weight="33.333333"
       steps="2"
       helper_size="0"
       apply_no_weight="true"
       apply_with_weight="true"
       only_selected="false" /><inkscape:path-effect
       effect="bspline"
       id="path-effect459"
       is_visible="true"
       lpeversion="1"
       weight="33.333"
       steps="2"
       helper_size="0"
       apply_no_weight="true"
       apply_with_weight="true"
       only_selected="false" /><inkscape:path-effect
       effect="bspline"
       id="path-effect455"
       is_visible="true"
       lpeversion="1"
       weight="33.333333"
       steps="2"
       helper_size="0"
       apply_no_weight="true"
       apply_with_weight="true"
       only_selected="false" /><inkscape:path-effect
       effect="mirror_symmetry"
       start_point="131.19853,60.241367"
       end_point="130.80825,117.13455"
       center_point="131.00339,88.687959"
       id="path-effect247"
       is_visible="true"
       lpeversion="1.2"
       lpesatellites=""
       mode="free"
       discard_orig_path="false"
       fuse_paths="true"
       oposite_fuse="true"
       split_items="false"
       split_open="false"
       link_styles="false" /></defs><g
     inkscape:label="Layer 1"
     inkscape:groupmode="layer"
     id="layer1"><path
       style="display:none;fill:none;stroke:#d45500;stroke-width:8;stroke-linecap:butt;stroke-linejoin:miter;stroke-dasharray:none;stroke-opacity:1"
       d="M 156.38294,58.667848 C 126.91467,58.179563 86.847867,43.509717 53.18091,44.16116 28.61084,44.636582 17.885948,61.829412 17.812196,68.670381 17.584876,89.755801 33.012471,110.83332 51.524697,110.23656 62.187739,109.89282 61.79163,86.798119 73.399911,86.657967 85.127488,86.516375 87.067795,107.4684 99.225516,107.35053 123.61411,107.1141 129.27789,43.620545 156.376,43.620545 c 27.2953,0 25.95166,65.900875 52.61138,66.073305 15.52059,0.10038 21.56301,-23.912581 36.45329,-23.911571 20.23656,0.0014 38.8948,26.181081 39.06312,46.668781 0.0947,11.52583 -11.95291,21.95976 -28.00963,22.16813 -9.78519,0.12698 -76.64214,-16.41449 -99.82132,-16.62676 C 139.39443,137.8342 77.817867,156.20668 56.251386,155.67751 38.962596,155.2533 18.820523,140.97814 18.967931,127.76345 19.227955,104.45325 34.699541,88.064534 51.169123,87.665264 62.605647,87.38801 63.36099,109.8181 74.103697,109.5175 84.879669,109.21598 86.937601,87.667672 99.42229,87.735511 c 22.90394,0.124453 33.18451,67.491409 57.0915,67.763939 27.68974,0.31565 25.37923,-70.599548 50.20072,-70.371886 18.2497,0.167387 23.43673,24.954136 39.14828,25.281176 12.93591,0.26926 38.55818,-20.445406 37.46704,-46.155678 -0.45444,-10.707833 -14.76606,-21.50961 -34.10726,-21.991496 -29.68034,-0.739485 -63.37136,16.894567 -92.83963,16.406282 z"
       id="path362"
       sodipodi:nodetypes="zsssssssssssssssssssssz"
       inkscape:label="thick" /><path
       style="color:#000000;fill:#000000;-inkscape-stroke:none"
       d="m 249.24414,41.361328 c -22.88829,-0.570261 -47.85495,9.572961 -71.34961,14.177734 l 1.24622,1.534838 c 23.74469,-4.653777 47.73848,-14.467893 70.05847,-13.911791 9.50873,0.23691 17.76384,3.016356 23.6543,7.00586 5.89045,3.989504 9.36538,9.156212 9.57617,14.123047 0.53248,12.546725 -5.46791,23.938345 -13.22852,32.164062 -7.76061,8.225722 -17.34481,13.179072 -23.32031,13.054692 -6.25052,-0.13011 -10.79229,-4.39407 -15.42969,-9.54102 l -1.33789,1.20508 c 4.69667,5.21274 9.68278,9.98807 16.73047,10.13476 6.9604,0.14488 16.65627,-5.12533 24.66797,-13.617184 8.0117,-8.491852 14.27545,-20.313042 13.7168,-33.476562 -0.24365,-5.740988 -4.15099,-11.328304 -10.36524,-15.53711 -6.21425,-4.208806 -14.78669,-7.07143 -24.61914,-7.316406 z m -92.86719,1.359375 c -7.12959,0 -12.83421,4.20326 -17.64648,10.275391 l 1.89395,0.422668 c 4.6365,-5.850345 9.32622,-8.897278 15.75253,-8.897278 4.34788,0 7.87237,1.731045 10.99024,4.716797 3.11787,2.985752 5.77775,7.241618 8.18164,12.144531 4.80777,9.805828 8.58077,22.156706 13.47656,32.046875 l 1.23575,-1.756765 c -4.79345,-9.683417 -8.18915,-21.076949 -13.09512,-31.083078 -2.45299,-5.003065 -5.19181,-9.431961 -8.55469,-12.652344 -3.36288,-3.220383 -7.39913,-5.216797 -12.23438,-5.216797 z M 53.164062,43.261719 c -12.492296,0.241721 -21.543909,4.749859 -27.457031,10.099609 -5.913121,5.34975 -8.753064,11.416233 -8.794922,15.298828 -0.11606,10.765395 3.748156,21.483241 10.021485,29.480469 6.273329,7.997225 15.01395,13.305725 24.61914,12.996095 2.40304,-0.0775 4.357881,-1.22454 5.904297,-2.87695 1.546416,-1.65242 2.254649,-2.86606 3.374435,-5.15632 l -1.122482,-1.7304 c -1.089873,2.22907 -2.239799,4.23871 -3.566406,5.65625 -1.326607,1.41754 -2.765071,2.24794 -4.646484,2.30859 -8.907017,0.28713 -17.134802,-4.64491 -23.146485,-12.308593 -6.011682,-7.663681 -9.747977,-18.029605 -9.636718,-28.34961 0.03189,-2.958367 2.590903,-8.908623 8.201171,-13.984375 5.610269,-5.075751 14.207408,-9.401065 26.285157,-9.634765 33.391821,-0.646119 73.414671,14.014805 103.167971,14.507812 4.67642,0.07749 9.44545,-0.29634 14.27539,-0.974609 l -1.01936,-1.667686 c -4.75835,0.668215 -8.66442,0.917079 -13.22478,0.841514 C 127.21525,57.284017 87.106088,42.604953 53.164062,43.261719 Z m 80.616958,16.958404 c -6.64578,10.885568 -11.3177,23.667057 -17.70808,33.445189 l 1.11261,1.516329 c 6.55943,-10.036815 11.96726,-23.893537 18.48437,-34.56836 z m 72.94164,24.008393 c -3.31687,-0.03042 -6.22699,1.15049 -8.72266,3.171875 -2.49567,2.021384 -4.60432,4.863099 -6.49219,8.230468 -3.77574,6.734741 -6.67856,15.600571 -9.66992,24.425781 -2.99136,8.82521 -6.07096,17.60793 -10.05469,24.07617 -3.98373,6.46825 -8.72128,10.54134 -15.25976,10.4668 -5.8475,-0.0667 -10.60892,-3.88765 -15.42412,-10.70912 l -1.84346,0.42006 c 4.94989,7.01228 10.51238,12.01111 17.24805,12.08789 7.30637,0.0833 12.66409,-4.58982 16.81054,-11.32227 4.14646,-6.73245 7.23361,-15.60574 10.22852,-24.4414 2.99491,-8.83567 5.89777,-17.6351 9.53515,-24.123051 1.8187,-3.243977 3.81757,-5.900914 6.05469,-7.712891 2.23713,-1.811977 4.68572,-2.797977 7.57422,-2.771484 7.53087,0.06907 12.7216,4.499204 17.58399,9.751953 l 1.32031,-1.222656 c -4.9557,-5.353553 -10.6553,-10.252614 -18.88867,-10.328125 z m 38.71875,0.654296 c -3.96447,-2.68e-4 -7.34719,1.612415 -10.34766,3.9375 -3.00047,2.325086 -5.6621,5.364026 -8.31641,8.357422 -2.65431,2.993396 -5.29938,5.940566 -8.17968,8.101566 -2.88031,2.16099 -5.95581,3.53726 -9.60352,3.51367 -5.92998,-0.0383 -10.36186,-3.4688 -14.18555,-8.955079 l -0.91632,1.855409 c 4.00107,5.74078 8.46145,8.85758 15.09015,8.90045 4.11258,0.0266 7.61218,-1.55988 10.69531,-3.87305 3.08314,-2.31316 5.78767,-5.35049 8.44532,-8.347653 2.65765,-2.997164 5.26882,-5.954987 8.07422,-8.128906 2.80539,-2.17392 5.76347,-3.562736 9.24414,-3.5625 7.31164,5.05e-4 14.49515,3.569667 20.63867,9.164062 l 1.21094,-1.332031 c -6.37787,-5.807793 -13.95473,-9.630313 -21.84961,-9.63086 z m -172.052738,0.875 c -2.333709,0.02818 -4.289896,0.926888 -5.873047,2.310547 -1.583151,1.38366 -2.332266,2.384958 -3.437925,4.4023 l 1.207206,1.548367 c 1.052942,-1.921157 2.083434,-3.430315 3.416266,-4.595198 1.332832,-1.164883 2.810477,-1.842312 4.708984,-1.865234 2.663667,-0.03216 4.722985,1.096276 6.638672,2.9375 1.915687,1.841223 3.617002,4.393543 5.353516,6.998047 1.736514,2.604499 3.510347,5.261689 5.693359,7.308589 2.183013,2.04691 4.840547,3.47925 8.138672,3.44727 5.172775,-0.0501 9.223935,-2.46074 13.013125,-6.63876 l -1.01703,-1.54288 c -3.59412,3.96293 -7.46305,6.33873 -12.013673,6.38281 -2.780729,0.027 -4.923988,-1.11692 -6.890625,-2.96094 -1.966637,-1.84402 -3.69156,-4.393071 -5.425781,-6.994136 -1.734222,-2.601065 -3.47709,-5.253104 -5.603516,-7.296875 -2.126426,-2.043771 -4.708087,-3.480043 -7.908203,-3.441407 z m -22.242188,1.007813 c -7.417682,0.179826 -14.319875,3.240582 -20.077691,8.856657 l 1.087508,1.395349 c 5.475305,-5.340518 12.124516,-8.285646 19.035105,-8.453178 2.564958,-0.06218 4.463897,1.099778 6.205078,3.041016 1.741182,1.941237 3.228106,4.655443 4.707032,7.419922 1.478925,2.764479 2.948778,5.577419 4.808593,7.749999 1.859816,2.17258 4.218006,3.72649 7.216797,3.64258 2.522543,-0.0706 4.636267,-1.21379 6.416016,-2.85938 1.779749,-1.64558 2.775597,-3.19097 4.226723,-5.44309 l -1.011879,-1.57839 c -1.426465,2.21385 -2.866011,4.24619 -4.4375,5.69922 -1.57149,1.45302 -3.225295,2.32437 -5.244141,2.38086 -2.372557,0.0664 -4.138243,-1.07187 -5.798828,-3.01172 -1.660585,-1.93985 -3.107533,-4.65888 -4.589844,-7.429689 -1.482311,-2.770807 -3.000452,-5.594455 -4.953125,-7.771484 -1.952673,-2.177029 -4.436545,-3.715117 -7.589844,-3.638672 z m 48.28125,0.07031 c -5.051988,-0.02745 -8.126375,2.663178 -10.941342,6.523738 l 1.165098,1.479926 c 2.689356,-3.68829 5.488745,-6.22808 9.766479,-6.204835 3.490131,0.01896 6.700731,1.720926 9.810551,4.705078 3.10981,2.984151 6.064,7.232388 8.91992,12.128908 5.71183,9.79305 10.69164,21.64896 16.57112,31.74307 l 1.89958,-0.39932 c -5.79502,-9.9491 -11.11793,-22.30907 -16.91601,-32.25 -2.89905,-4.970468 -5.91586,-9.342688 -9.22852,-12.521486 -3.31266,-3.178799 -6.97455,-5.182952 -11.046876,-5.205079 z m 172.919926,12.984375 -1.26359,1.27724 c 7.56534,9.09647 12.43436,21.00447 12.51945,31.36143 0.0895,10.89426 -11.44834,21.05638 -27.1211,21.25977 -1.66848,0.0216 -5.67825,-0.54877 -11.01172,-1.51172 -5.33346,-0.96294 -12.0622,-2.3084 -19.4707,-3.80078 -14.81699,-2.98477 -31.89367,-6.48749 -46.51705,-8.81033 l -0.74272,1.70291 c 14.56063,2.31287 32.08385,5.88758 46.9043,8.87304 7.41023,1.49274 14.14474,2.83675 19.50586,3.80469 5.36112,0.96794 9.2785,1.56992 11.35547,1.54297 16.44065,-0.21335 28.99833,-10.91879 28.89844,-23.07617 -0.0897,-10.91778 -5.2435,-23.22861 -13.05664,-32.62305 z m -246.367191,1.76172 c -4.776099,6.9178 -7.797515,15.89883 -7.91211,26.17188 -0.07884,7.06813 5.152523,14.11178 12.470703,19.48828 7.318181,5.3765 16.806153,9.11797 25.689454,9.33593 11.059567,0.27137 31.782812,-4.2164 52.037114,-8.7246 20.25429,-4.50821 40.08798,-9.03705 48.39843,-8.96094 3.78817,0.0347 8.06244,0.34029 13.85356,1.12505 l 1.00972,-1.60747 c -5.83112,-0.79018 -10.92033,-1.28241 -14.8457,-1.31836 -8.96794,-0.0821 -28.56147,4.49773 -48.80664,9.0039 -20.245166,4.50618 -41.09467,8.93945 -51.601563,8.68164 -8.405471,-0.20624 -17.631734,-3.81553 -24.669921,-8.98632 -7.038187,-5.1708 -11.804892,-11.87104 -11.736329,-18.01758 0.110791,-9.932 2.792179,-18.24319 7.356176,-24.85378 z"
       id="path1079"
       sodipodi:nodetypes="sccsssssccssssssccsssccssssssscsccsssssssccsscccccssssssccssssssccssssscccsssssccsssccsssssccccsssssccssssssccsssssssccsssccsssccssssccssssccsssssccssssscc"
       inkscape:label="knot" /></g></svg>
