<?xml version="1.0" encoding="UTF-8" standalone="no"?>
<!-- Created with Inkscape (http://www.inkscape.org/) -->

<svg
   width="297mm"
   height="210mm"
   viewBox="0 0 297 210"
   version="1.1"
   id="svg5"
   xml:space="preserve"
   inkscape:version="1.2.2 (b0a8486541, 2022-12-01)"
   sodipodi:docname="virtual_reidemeister_1.svg"
   inkscape:export-filename="virtual_reidemeister_1.pdf"
   inkscape:export-xdpi="96"
   inkscape:export-ydpi="96"
   xmlns:inkscape="http://www.inkscape.org/namespaces/inkscape"
   xmlns:sodipodi="http://sodipodi.sourceforge.net/DTD/sodipodi-0.dtd"
   xmlns="http://www.w3.org/2000/svg"
   xmlns:svg="http://www.w3.org/2000/svg"><sodipodi:namedview
     id="namedview7"
     pagecolor="#ffffff"
     bordercolor="#666666"
     borderopacity="1.0"
     inkscape:showpageshadow="2"
     inkscape:pageopacity="0.0"
     inkscape:pagecheckerboard="true"
     inkscape:deskcolor="#d1d1d1"
     inkscape:document-units="mm"
     showgrid="false"
     showguides="true"
     inkscape:zoom="1"
     inkscape:cx="603.5"
     inkscape:cy="336.5"
     inkscape:window-width="1920"
     inkscape:window-height="1080"
     inkscape:window-x="0"
     inkscape:window-y="0"
     inkscape:window-maximized="1"
     inkscape:current-layer="layer1"><sodipodi:guide
       position="-66.232027,184.88702"
       orientation="0,-1"
       id="guide361"
       inkscape:locked="false" /><sodipodi:guide
       position="-67.335894,34.485132"
       orientation="0,-1"
       id="guide363"
       inkscape:locked="false" /><sodipodi:guide
       position="239.52027,118.70073"
       orientation="1,0"
       id="guide1098"
       inkscape:locked="false" /><sodipodi:guide
       position="256.41433,108.7638"
       orientation="0,-1"
       id="guide1104"
       inkscape:locked="false" /></sodipodi:namedview><defs
     id="defs2"><inkscape:path-effect
       effect="knot"
       id="path-effect1613"
       is_visible="true"
       lpeversion="1"
       switcher_size="15"
       interruption_width="3"
       prop_to_stroke_width="true"
       add_stroke_width="inkscape_1.0_and_up"
       both="false"
       inverse_width="false"
       add_other_stroke_width="inkscape_1.0_and_up"
       crossing_points_vector="" /><inkscape:path-effect
       effect="knot"
       id="path-effect1607"
       is_visible="true"
       lpeversion="1"
       switcher_size="15"
       interruption_width="3"
       prop_to_stroke_width="true"
       add_stroke_width="inkscape_1.0_and_up"
       both="false"
       inverse_width="false"
       add_other_stroke_width="inkscape_1.0_and_up"
       crossing_points_vector="" /><inkscape:path-effect
       effect="bspline"
       id="path-effect1455"
       is_visible="true"
       lpeversion="1"
       weight="33.333333"
       steps="2"
       helper_size="0"
       apply_no_weight="true"
       apply_with_weight="true"
       only_selected="false" /><marker
       style="overflow:visible"
       id="marker1305"
       refX="0"
       refY="0"
       orient="auto-start-reverse"
       inkscape:stockid="Arrow2"
       markerWidth="7.6999998"
       markerHeight="5.5999999"
       viewBox="0 0 7.7 5.6"
       inkscape:isstock="true"
       inkscape:collect="always"
       preserveAspectRatio="xMidYMid"><path
         transform="scale(0.7)"
         d="M -2,-4 9,0 -2,4 c 2,-2.33 2,-5.66 0,-8 z"
         style="fill:context-stroke;fill-rule:evenodd;stroke:none"
         id="path1303" /></marker><marker
       style="overflow:visible"
       id="Arrow2"
       refX="0"
       refY="0"
       orient="auto-start-reverse"
       inkscape:stockid="Arrow2"
       markerWidth="7.6999998"
       markerHeight="5.5999999"
       viewBox="0 0 7.7 5.6"
       inkscape:isstock="true"
       inkscape:collect="always"
       preserveAspectRatio="xMidYMid"><path
         transform="scale(0.7)"
         d="M -2,-4 9,0 -2,4 c 2,-2.33 2,-5.66 0,-8 z"
         style="fill:context-stroke;fill-rule:evenodd;stroke:none"
         id="arrow2L" /></marker></defs><g
     inkscape:label="Layer 1"
     inkscape:groupmode="layer"
     id="layer1"
     style="display:inline"><path
       style="fill:none;stroke:#000000;stroke-width:2;stroke-linecap:butt;stroke-linejoin:miter;stroke-dasharray:none;stroke-opacity:1"
       d="m 50.373155,25.115466 c 0,150.401884 0,150.401884 0,150.401884"
       id="path373"
       inkscape:label="left strand" /><path
       style="fill:none;stroke:#000000;stroke-width:1.2;stroke-linecap:butt;stroke-linejoin:miter;stroke-dasharray:none;stroke-opacity:1;marker-start:url(#Arrow2);marker-end:url(#marker1305)"
       d="m 123.38703,100.31641 h 50.22594"
       id="path1084"
       inkscape:label="arrow" /><path
       style="display:none;fill:none;stroke:#d45500;stroke-width:8;stroke-linecap:butt;stroke-linejoin:miter;stroke-dasharray:none;stroke-opacity:1"
       d="m 228.80944,25.11298 c -0.18709,47.290333 -0.56126,60.301159 11.5995,76.52702 12.16076,16.22586 21.30045,16.22586 27.50205,16.22586 6.2016,0 19.08302,-4.57551 19.08302,-16.22586 0,-11.650353 -10.84563,-17.075921 -18.14761,-17.075921 -7.30198,0 -17.77882,2.46671 -29.18582,17.075921 -11.407,14.60921 -11.27366,29.55722 -10.85114,73.87487"
       id="path1609"
       sodipodi:nodetypes="czzzszc"
       inkscape:label="right strand thick"
       sodipodi:insensitive="true" /><path
       style="color:#000000;display:inline;fill:#000000;-inkscape-stroke:none"
       d="m 227.27942,25.109379 c -0.0935,23.642868 -0.24024,38.730657 1.17774,50.041016 1.41797,11.310358 4.46279,18.870339 10.62304,27.089835 6.15248,8.20913 11.61167,12.39981 16.38086,14.51172 4.76919,2.11192 8.81913,2.11328 11.91993,2.11328 3.34672,0 8.22588,-1.17877 12.41406,-3.90429 4.18818,-2.72553 7.66992,-7.12659 7.66992,-13.32031 0,-6.13548 -2.90218,-10.732219 -6.72266,-13.697267 -3.82047,-2.965047 -8.52712,-4.378906 -12.42578,-4.378906 -7.00519,0 -15.97836,1.239591 -26.62292,13.4944 l 1.181,1.707422 c 10.32711,-11.889346 18.85591,-13.201822 25.44192,-13.201822 3.40331,0 7.77139,1.298666 11.19922,3.958984 3.42783,2.660319 5.94922,6.602326 5.94922,12.117189 0,5.45661 -2.9588,9.16776 -6.76172,11.64257 -3.80292,2.47482 -8.4674,3.58203 -11.32226,3.58203 -3.1008,0 -6.7201,0.003 -11.11133,-1.9414 -4.39124,-1.94455 -9.58158,-5.8661 -15.58985,-13.88281 -6.00049,-8.006341 -8.84992,-15.066545 -10.23828,-26.140625 -1.38835,-11.074081 -1.25566,-26.135786 -1.16211,-49.783204 z M 236.4858,103.475 c -5.05012,7.15767 -7.2238,14.38219 -8.38606,25.40781 -1.16227,11.02563 -1.02189,25.49759 -0.82032,46.64063 l 2,-0.0176 c -0.20157,-21.14291 -0.33071,-35.58767 0.81055,-46.41406 1.14127,-10.8264 2.90258,-16.8176 7.74948,-23.68724 l 5.04241,-6.648781 -1.17526,-1.710619 z"
       id="path2127"
       inkscape:label="right strand"
       sodipodi:nodetypes="cssssssssccssssscsscccsccscccc" /><circle
       style="fill:none;stroke:#000000;stroke-width:1;stroke-dasharray:none"
       id="path1102"
       cx="239.52026"
       cy="101.2362"
       r="8" /></g></svg>
